<?xml version="1.0" encoding="UTF-8"?>
<svg version="1.1" xmlns="http://www.w3.org/2000/svg" width="1056" height="336">
<path d="M0 0 C348.48 0 696.96 0 1056 0 C1056 110.88 1056 221.76 1056 336 C707.52 336 359.04 336 0 336 C0 225.12 0 114.24 0 0 Z " fill="#FAF9FD" transform="translate(0,0)"/>
<path d="M0 0 C1.31521637 -0.00571014 2.63043274 -0.01142029 3.98550415 -0.01730347 C5.44125357 -0.01854871 6.89700309 -0.01967383 8.35275269 -0.02069092 C9.88702514 -0.0253205 11.42129644 -0.03034535 12.95556641 -0.03573608 C17.12061982 -0.04884276 21.28565713 -0.05530087 25.45072794 -0.05974674 C28.05118813 -0.06267837 30.65164392 -0.0667832 33.2521019 -0.07125092 C41.38393703 -0.08491709 49.5157621 -0.09458983 57.64760792 -0.09845281 C67.04411525 -0.10294099 76.44047765 -0.12052768 85.83694088 -0.1494534 C93.09644373 -0.17102822 100.35590566 -0.18115472 107.61544025 -0.18249393 C111.95378814 -0.18354436 116.29199964 -0.18950322 120.63031387 -0.20731354 C124.70641884 -0.2237233 128.78228378 -0.22598462 132.85840988 -0.21717453 C134.357258 -0.2164005 135.85611866 -0.22079463 137.35493469 -0.23063278 C139.39462488 -0.24324039 141.43441039 -0.23572493 143.47412109 -0.22705078 C145.18915927 -0.22925062 145.18915927 -0.22925062 146.93884468 -0.2314949 C147.82035131 -0.10875576 148.70185795 0.01398338 149.6100769 0.14044189 C150.6000769 1.62544189 150.6000769 1.62544189 151.6100769 3.14044189 C152.27567218 3.44983987 152.94126745 3.75923784 153.62703228 4.07801151 C156.16606103 5.43831438 156.47912002 6.42950159 157.33879089 9.139328 C158.8242819 14.18678351 159.01448424 18.92661221 158.95065308 24.15826416 C158.95109116 25.11542831 158.95152924 26.07259247 158.95198059 27.0587616 C158.94990692 30.19167176 158.92664324 33.3240326 158.90304565 36.45684814 C158.89744464 38.64116626 158.89317693 40.82548816 158.8901825 43.0098114 C158.87877354 48.73581498 158.84934042 54.46158728 158.81607056 60.1875 C158.78528436 66.03962069 158.77165892 71.89177905 158.75656128 77.74395752 C158.72446687 89.20955346 158.67331848 100.67497838 158.6100769 112.14044189 C157.010035 111.66493407 155.41034582 111.18823928 153.81080627 110.71104431 C152.91994166 110.44571239 152.02907705 110.18038046 151.11121655 109.90700817 C142.92675426 107.39857854 135.05625206 103.93102627 127.18429565 100.58966064 C125.71360114 99.96789548 124.24289795 99.34615085 122.77218628 98.72442627 C120.52024419 97.77241177 118.27052502 96.81626351 116.02584839 95.847229 C113.81321827 94.89390861 111.59349216 93.95912042 109.37179565 93.02716064 C108.3793409 92.59133919 108.3793409 92.59133919 107.36683655 92.14671326 C101.3915201 89.67329219 96.40436695 89.70684516 89.9850769 90.70294189 C85.44686289 92.6358849 82.85679868 94.70984371 80.6100769 99.14044189 C78.01850957 109.17866474 83.15691909 119.70450963 86.50558472 129.01593018 C88.57114325 134.85921446 90.48224713 140.75465639 92.4225769 146.64044189 C93.17710269 148.92234908 93.93349086 151.20364166 94.69210815 153.48419189 C95.01413208 154.45550049 95.33615601 155.42680908 95.66793823 156.42755127 C96.29788351 158.24148025 96.98630331 160.03610188 97.72994995 161.80645752 C98.6100769 164.14044189 98.6100769 164.14044189 98.6100769 167.14044189 C84.64962507 167.25739758 70.68924954 167.34515689 56.72840786 167.39950275 C50.24567603 167.42558719 43.76327351 167.46096555 37.2807312 167.51763916 C31.02374602 167.57199801 24.76707745 167.60187111 18.50987434 167.61482811 C16.12364786 167.62406086 13.73743854 167.64209036 11.35134697 167.66909218 C8.00679058 167.70543229 4.66353945 167.71038493 1.31881714 167.70806885 C0.33410431 167.72604523 -0.65060852 167.74402161 -1.66516113 167.76254272 C-8.23535009 167.71336871 -11.38300517 166.40549444 -16.3899231 162.14044189 C-16.7199231 162.14044189 -17.0499231 162.14044189 -17.3899231 162.14044189 C-17.55356428 142.33001773 -17.67694254 122.51973102 -17.7526083 102.70877075 C-17.78867775 93.5098204 -17.83783866 84.31129039 -17.91799927 75.11260986 C-17.98784754 67.09346767 -18.03294902 59.07462994 -18.04854256 51.05519199 C-18.05765564 46.81016402 -18.07901752 42.56600692 -18.13003349 38.32125854 C-18.17770649 34.3220909 -18.19217266 30.32414901 -18.18167686 26.3247242 C-18.18359564 24.8605895 -18.19742764 23.39641193 -18.22436142 21.93252373 C-18.44138813 9.523479 -18.44138813 9.523479 -14.09025574 4.26837158 C-9.77929802 -0.04156879 -5.91114306 0.01536881 0 0 Z " fill="#8752FA" transform="translate(149.38992309570313,127.85955810546875)"/>
<path d="M0 0 C0.69268264 -0.00453111 1.38536528 -0.00906223 2.0990383 -0.01373065 C4.41966496 -0.02638891 6.74005736 -0.02475338 9.06071472 -0.02310181 C10.72480572 -0.02908622 12.38889395 -0.03589157 14.05297852 -0.04345703 C18.57374347 -0.06113428 23.09443272 -0.06581317 27.61522889 -0.0670886 C31.38999153 -0.06898779 35.16473655 -0.07634564 38.9394924 -0.08343279 C47.84677091 -0.09972132 56.75400898 -0.10460137 65.66130066 -0.10317993 C74.84650506 -0.10197872 84.03147439 -0.12307531 93.21661931 -0.15466726 C101.10465341 -0.18083005 108.99261074 -0.19154721 116.88068789 -0.19026911 C121.5909 -0.18975943 126.3009033 -0.19544596 131.01107216 -0.21662521 C135.44264686 -0.23600736 139.87381356 -0.23613231 144.30540276 -0.22159195 C145.92954225 -0.21950263 147.55370728 -0.22421211 149.17780304 -0.23631287 C151.40018093 -0.25179534 153.62115724 -0.24243925 155.84350586 -0.22705078 C157.08549649 -0.22814032 158.32748713 -0.22922985 159.60711384 -0.2303524 C164.6629296 0.48764797 168.36550117 2.52795626 172.02546692 6.17271423 C173.41380015 8.84869915 173.49300839 10.77124349 173.50041199 13.7828064 C173.50986847 14.88752792 173.51932495 15.99224945 173.52906799 17.13044739 C173.51995895 18.91334923 173.51995895 18.91334923 173.51066589 20.73226929 C173.51497116 22.57045982 173.51497116 22.57045982 173.5193634 24.44578552 C173.52140485 27.03729718 173.51586945 29.62882422 173.50334167 32.2203064 C173.48730398 36.18623366 173.50318172 40.1511396 173.52238464 44.11703491 C173.52040196 46.63461529 173.51655776 49.15219503 173.51066589 51.66976929 C173.51673859 52.85634628 173.52281128 54.04292328 173.52906799 55.26545715 C173.51488327 56.92726768 173.51488327 56.92726768 173.50041199 58.62265015 C173.49802521 59.59431625 173.49563843 60.56598236 173.49317932 61.5670929 C172.88182139 65.90064256 171.03436527 68.36659124 167.94363117 71.38592529 C164.38420694 73.7512043 162.27483353 73.76792226 158.02154541 73.76863098 C156.96793081 73.77693258 156.96793081 73.77693258 155.89303106 73.78540188 C153.54524265 73.79898803 151.19852113 73.78405127 148.85075378 73.76913452 C147.16518706 73.7729185 145.47962345 73.77841919 143.79406738 73.7855072 C139.21959411 73.79946999 134.64549662 73.78828582 130.07104421 73.77179599 C125.28255879 73.75794396 120.49409515 73.76440583 115.70559692 73.76792908 C107.66310065 73.77063134 99.62075361 73.75715511 91.57829285 73.73397827 C82.2834398 73.70737748 72.9888364 73.70561851 63.69395834 73.71736664 C54.74997458 73.72815127 45.80608102 73.72195137 36.86210442 73.70781136 C33.05720828 73.7020566 29.25237826 73.70213026 25.44748116 73.70687675 C20.96503115 73.711654 16.48285398 73.70151388 12.00045586 73.6799221 C10.35656021 73.67436392 8.7126383 73.67388005 7.06874084 73.67887497 C4.82215752 73.68484434 2.57640371 73.67229192 0.32989502 73.65510559 C-1.55464842 73.65146075 -1.55464842 73.65146075 -3.47726345 73.64774227 C-8.11231128 73.13087318 -11.54590425 71.74810676 -14.70027161 68.26742554 C-16.74149323 64.82957859 -17.02980127 61.99501202 -17.09651184 58.0809021 C-17.11580246 57.02260193 -17.13509308 55.96430176 -17.15496826 54.87393188 C-17.21277603 50.03410314 -17.26198227 45.19442156 -17.2928009 40.3543396 C-17.3143886 37.8034207 -17.3484999 35.25257603 -17.39533997 32.70199585 C-17.46232675 29.02034486 -17.4897995 25.34022494 -17.50886536 21.65805054 C-17.53669601 20.52240662 -17.56452667 19.3867627 -17.59320068 18.21670532 C-17.5769139 11.93030373 -17.05301077 8.12949255 -12.56906128 3.55838013 C-8.41636397 0.36979 -5.23365341 0.01413663 0 0 Z " fill="#1C1943" transform="translate(44.88777160644531,37.732574462890625)"/>
<path d="M0 0 C1.75747978 1.3654266 3.51032415 2.73696076 5.25 4.125 C3.54200715 8.06206826 0.9439578 11.27587189 -1.6875 14.625 C-2.5717855 15.76028356 -3.45590411 16.89569713 -4.33984375 18.03125 C-5.53287109 19.56265625 -5.53287109 19.56265625 -6.75 21.125 C-7.7541413 22.45521729 -8.75630781 23.78695904 -9.75 25.125 C-12.872729 23.69404292 -15.35866212 21.91859825 -18.0625 19.8125 C-28.01682269 12.89656069 -37.77557283 10.69915579 -49.6875 10.625 C-50.56317627 10.61863525 -51.43885254 10.61227051 -52.34106445 10.60571289 C-59.44125069 10.74580807 -65.69843554 12.24819657 -71.5625 16.5 C-72.10519531 16.87898438 -72.64789063 17.25796875 -73.20703125 17.6484375 C-76.20372319 20.51615789 -77.61192049 23.13107632 -78.18359375 27.24609375 C-78.28430731 35.94360539 -78.28430731 35.94360539 -73.75 43.125 C-64.01526804 51.53511784 -50.7590007 53.97009561 -38.5925293 57.17724609 C-21.11388176 61.81122472 -4.37957009 67.83420228 5.85546875 83.59765625 C11.14757182 93.90020985 11.13370604 107.93194841 8.43359375 119.08203125 C4.93253695 129.36562316 -2.73149745 138.08335008 -12.14453125 143.50390625 C-24.67521382 149.63766524 -35.82352827 152.52165429 -49.875 152.5 C-50.97086426 152.49838867 -52.06672852 152.49677734 -53.19580078 152.49511719 C-62.29465272 152.35861433 -70.1251187 151.00997772 -78.75 148.125 C-79.72582031 147.83625 -80.70164062 147.5475 -81.70703125 147.25 C-92.72561612 143.71900857 -102.47265897 137.12726323 -110.75 129.125 C-110.16911726 125.39556442 -108.60731552 123.5415117 -106.0625 120.8125 C-104.98935547 119.64460938 -104.98935547 119.64460938 -103.89453125 118.453125 C-103.18683594 117.68484375 -102.47914063 116.9165625 -101.75 116.125 C-99.73191996 113.80653488 -97.7421907 111.46582407 -95.75 109.125 C-92.31831912 110.1649033 -90.49475344 111.35852345 -87.8125 113.8125 C-75.78726423 124.4783613 -59.83518859 128.04120535 -44.18359375 127.5546875 C-37.83759326 127.12458947 -32.43265843 124.94073165 -26.75 122.125 C-25.9971875 121.77953125 -25.244375 121.4340625 -24.46875 121.078125 C-22.17975481 119.80877312 -21.73439842 118.51568188 -20.75 116.125 C-20.24146484 115.24714844 -20.24146484 115.24714844 -19.72265625 114.3515625 C-17.50779747 109.28140384 -17.89302322 103.00712302 -19.44921875 97.7734375 C-23.97488638 89.05858311 -34.55927003 86.33432004 -43.3125 83.5625 C-47.64351204 82.23382119 -51.99496741 81.04822705 -56.3984375 79.984375 C-73.97074719 75.7217494 -90.45054197 69.8247004 -101.5234375 54.703125 C-107.50287876 44.67978417 -108.48491142 32.35284336 -106.09765625 21.03125 C-101.65380014 7.75689869 -93.21282372 -2.25213823 -81.0625 -9.1875 C-54.75911185 -20.60317046 -22.78760304 -17.14880814 0 0 Z " fill="#151733" transform="translate(476.75,105.875)"/>
<path d="M0 0 C10.77448786 8.84988469 16.38678068 20.45941016 18.37109375 34.1015625 C18.37109375 40.7015625 18.37109375 47.3015625 18.37109375 54.1015625 C-8.68890625 54.1015625 -35.74890625 54.1015625 -63.62890625 54.1015625 C-59.50237302 67.51279549 -57.58068928 73.31277202 -46.09375 79.97265625 C-37.87849587 83.73526868 -27.09051343 83.29508405 -18.69140625 80.4140625 C-12.64973622 77.89595849 -7.20439098 74.78027354 -3.62890625 69.1015625 C-0.39802132 69.70345516 1.51060245 70.75029807 4.04296875 72.82421875 C4.70683594 73.36240234 5.37070312 73.90058594 6.0546875 74.45507812 C7.07755859 75.30102539 7.07755859 75.30102539 8.12109375 76.1640625 C8.81847656 76.73189453 9.51585937 77.29972656 10.234375 77.88476562 C11.95161563 79.28443436 13.6635267 80.69012186 15.37109375 82.1015625 C5.19582442 94.19994932 -6.89888769 103.41373138 -23.2109375 104.9765625 C-41.53823018 105.92401543 -57.61592853 103.66484289 -72.19140625 91.7265625 C-79.66679298 84.43229747 -84.08329432 75.82211654 -87.62890625 66.1015625 C-88.18384766 64.76738281 -88.18384766 64.76738281 -88.75 63.40625 C-89.99027595 58.74281242 -89.92729541 54.28132172 -89.87890625 49.4765625 C-89.86996338 48.49107422 -89.86102051 47.50558594 -89.85180664 46.49023438 C-89.58705747 29.8645349 -85.83053127 16.50124779 -74.015625 4.28515625 C-53.18133661 -14.77600121 -22.91161582 -16.54538676 0 0 Z " fill="#141632" transform="translate(721.62890625,152.8984375)"/>
<path d="M0 0 C5.54797891 4.71085783 9.3657519 9.41533376 12.328125 16.0546875 C12.740625 16.9415625 13.153125 17.8284375 13.578125 18.7421875 C15.30229573 24.05838059 15.4698045 29.35342224 15.44165039 34.89599609 C15.44179642 35.65765076 15.44194244 36.41930542 15.4420929 37.20404053 C15.44140018 39.70376504 15.43363799 42.20341362 15.42578125 44.703125 C15.42391479 46.44332844 15.42249196 48.18353241 15.42149353 49.92373657 C15.41768631 54.49067653 15.40787142 59.05758439 15.39678955 63.62451172 C15.38653677 68.29003465 15.38198764 72.95556279 15.37695312 77.62109375 C15.36624747 86.76564133 15.34866528 95.91015672 15.328125 105.0546875 C7.408125 105.0546875 -0.511875 105.0546875 -8.671875 105.0546875 C-9.001875 101.0946875 -9.331875 97.1346875 -9.671875 93.0546875 C-11.280625 94.8490625 -11.280625 94.8490625 -12.921875 96.6796875 C-22.35204562 106.12663778 -33.1783635 108.35158487 -46.05395508 108.44628906 C-53.0325652 108.32321217 -58.55493783 106.42584297 -64.671875 103.0546875 C-65.765 102.4565625 -66.858125 101.8584375 -67.984375 101.2421875 C-75.12574717 95.42944271 -79.83149108 89.21278843 -81.671875 80.0546875 C-82.80881318 68.93199983 -82.38164854 59.49934349 -75.359375 50.4921875 C-65.6443088 40.20878104 -51.28818126 36.32223617 -37.54296875 35.8125 C-28.08349449 35.62226209 -18.92152408 35.90984134 -9.671875 38.0546875 C-9.83276622 28.26138036 -9.83276622 28.26138036 -14.671875 20.0546875 C-22.78361903 13.56529228 -31.59238114 13.01161422 -41.671875 14.0546875 C-49.57006078 16.19987376 -56.66320882 19.89700417 -63.671875 24.0546875 C-67.301875 18.7746875 -70.931875 13.4946875 -74.671875 8.0546875 C-70.98873588 0.68840927 -61.37379396 -2.78405431 -53.75390625 -5.3515625 C-37.10600763 -10.3197726 -14.53459026 -10.58220168 0 0 Z " fill="#151733" transform="translate(912.671875,149.9453125)"/>
<path d="M0 0 C1.97785492 -0.02409439 1.97785492 -0.02409439 3.9956665 -0.04867554 C5.43818515 -0.06016385 6.88071104 -0.07077224 8.32324219 -0.08056641 C9.05093559 -0.08589008 9.778629 -0.09121376 10.52837372 -0.09669876 C14.38137253 -0.12340672 18.23433924 -0.14278763 22.08740234 -0.15722656 C25.26901059 -0.17055539 28.44997588 -0.19839031 31.63134766 -0.23925781 C35.47985708 -0.28868947 39.32778429 -0.31336023 43.1765976 -0.32045364 C44.63898833 -0.327148 46.10136699 -0.34232289 47.56357574 -0.36634445 C60.41017408 -0.56532364 60.41017408 -0.56532364 64.88476562 2.35058594 C69.39466048 7.03678693 70.99410441 11.09206128 71.00830078 17.56201172 C71.01775726 18.80349976 71.02721375 20.04498779 71.03695679 21.32409668 C71.03158655 22.66577476 71.02543347 24.0074499 71.01855469 25.34912109 C71.02057815 26.73864901 71.02349186 28.12817589 71.0272522 29.5177002 C71.03166278 32.42271079 71.02528575 35.32744369 71.01123047 38.23242188 C70.99413892 41.94464475 71.00398697 45.6562168 71.02194786 49.36841583 C71.03282023 52.235584 71.02932364 55.10259942 71.02156448 57.96977234 C71.01957199 59.33802875 71.02198814 60.70629931 71.02900314 62.07453918 C71.03667375 63.99093335 71.02289775 65.90737654 71.00830078 67.82373047 C71.005914 68.9114978 71.00352722 69.99926514 71.00106812 71.11999512 C70.40059597 75.96360169 68.68570856 79.20719907 65.12011719 82.50537109 C61.08800763 85.22704505 57.98574319 85.32965645 53.22436523 85.36987305 C52.58007568 85.37644424 51.93578613 85.38301544 51.27197266 85.38978577 C49.14192583 85.40947955 47.01194938 85.42117255 44.88183594 85.43115234 C43.7884236 85.43726563 43.7884236 85.43726563 42.67292213 85.44350243 C38.81458445 85.46434652 34.95628216 85.47865535 31.09790039 85.48803711 C27.1198859 85.49909786 23.14243135 85.53349792 19.16461468 85.57320881 C16.0993193 85.59939629 13.03415694 85.60773079 9.96875954 85.61131859 C8.50277742 85.61617913 7.03680103 85.62777808 5.57092857 85.64635658 C3.51485603 85.67079548 1.46022708 85.66977562 -0.59594727 85.6628418 C-1.76382278 85.66870804 -2.9316983 85.67457428 -4.13496399 85.68061829 C-8.90316111 84.96390552 -12.04071123 82.716756 -15.19238281 79.13037109 C-17.44964528 75.44746917 -17.51048279 72.3702264 -17.52514648 68.1484375 C-17.53152634 66.90349518 -17.53790619 65.65855286 -17.54447937 64.37588501 C-17.5460082 63.0154016 -17.54712208 61.65491767 -17.54785156 60.29443359 C-17.55106547 58.89822353 -17.55442965 57.5020138 -17.55793762 56.10580444 C-17.56392512 53.17876403 -17.56577794 50.25175313 -17.56518555 47.32470703 C-17.565084 43.57993688 -17.57873013 39.83535665 -17.59595776 36.09063148 C-17.60709465 33.2063816 -17.60910423 30.32217736 -17.60857582 27.43790817 C-17.60975362 26.05765504 -17.61416419 24.67740064 -17.62190819 23.29716873 C-17.63174067 21.36350205 -17.62755738 19.42977959 -17.62280273 17.49609375 C-17.62422775 16.39705719 -17.62565277 15.29802063 -17.62712097 14.16567993 C-17.31630217 10.42837303 -16.52502908 7.45604079 -13.97753906 4.64599609 C-9.11710924 0.83680428 -6.08600873 0.0673294 0 0 Z " fill="#201B4C" transform="translate(45.3798828125,127.80712890625)"/>
<path d="M0 0 C0.67384232 -0.00686325 1.34768463 -0.0137265 2.04194641 -0.02079773 C4.2587317 -0.03902678 6.47480658 -0.03523406 8.69165039 -0.02954102 C10.23955006 -0.03410483 11.7874477 -0.039411 13.33534241 -0.04542542 C16.575859 -0.05434892 19.81612905 -0.05194234 23.05664062 -0.04199219 C27.20057498 -0.03050526 31.34365683 -0.05071276 35.48747921 -0.07990932 C38.68320584 -0.09829392 41.87872905 -0.0979744 45.07449532 -0.0922718 C46.60185504 -0.09211885 48.12922879 -0.09814149 49.65653801 -0.11056328 C51.79630198 -0.12551482 53.93450226 -0.11476837 56.07421875 -0.09765625 C57.28935654 -0.09749008 58.50449432 -0.09732391 59.75645447 -0.09715271 C64.59823044 0.62824909 67.71847149 2.85824104 70.94970703 6.46899414 C72.74422225 11.04065381 72.54935699 15.49645748 72.53540039 20.36499023 C72.54064224 21.42891998 72.54588409 22.49284973 72.55128479 23.58901978 C72.55769974 25.83660002 72.55637484 28.08421387 72.54785156 30.33178711 C72.53935354 33.7601342 72.56809285 37.18680814 72.59985352 40.61499023 C72.60146602 42.80248974 72.60088705 44.98999218 72.59790039 47.17749023 C72.60913437 48.19749115 72.62036835 49.21749207 72.63194275 50.2684021 C72.57121559 56.51107618 71.93359219 60.38931359 68.10180664 65.40405273 C64.08753069 68.42582608 61.08178802 68.79001398 56.11181641 68.82397461 C55.42822052 68.83244415 54.74462463 68.8409137 54.04031372 68.84963989 C51.79108843 68.87294956 49.54254959 68.8740336 47.29321289 68.87280273 C45.72289255 68.87990779 44.15257479 68.88760729 42.58226013 68.89587402 C39.29467548 68.90930477 36.00733093 68.91089392 32.71972656 68.9050293 C28.51512022 68.89913309 24.31166855 68.92972654 20.1072855 68.97014618 C16.86522764 68.99604623 13.62344702 68.99889859 10.38129997 68.99525452 C8.83159418 68.9969435 7.28187528 69.00656478 5.73227119 69.0243988 C3.56113393 69.04663799 1.39232346 69.03686596 -0.77880859 69.01928711 C-2.01171127 69.02134155 -3.24461395 69.023396 -4.51487732 69.0255127 C-8.8983466 68.2203409 -10.82544617 66.58458461 -13.89819336 63.40405273 C-15.72524128 60.03520583 -16.15427525 57.23471989 -16.1887207 53.43359375 C-16.20148041 52.47232071 -16.21424011 51.51104767 -16.22738647 50.52064514 C-16.22961212 49.49345871 -16.23183777 48.46627228 -16.23413086 47.40795898 C-16.24078766 46.34165756 -16.24744446 45.27535614 -16.25430298 44.17674255 C-16.26441366 41.92497479 -16.26912049 39.67317716 -16.26879883 37.42138672 C-16.2731735 33.98216308 -16.30951547 30.54422149 -16.34741211 27.10522461 C-16.35328031 24.91447378 -16.35724968 22.72371687 -16.35913086 20.53295898 C-16.37350189 19.50779678 -16.38787292 18.48263458 -16.40267944 17.42640686 C-16.36554019 11.60542167 -16.00719094 7.88775365 -11.89819336 3.40405273 C-7.87379761 0.43707468 -4.95643714 0.02205272 0 0 Z " fill="#1C1944" transform="translate(43.898193359375,226.595947265625)"/>
<path d="M0 0 C8.58 0 17.16 0 26 0 C26 10.56 26 21.12 26 32 C35.9 32 45.8 32 56 32 C56 39.59 56 47.18 56 55 C46.1 55 36.2 55 26 55 C26.06766712 62.32204944 26.13812187 69.64313033 26.2355423 76.96469116 C26.2801109 80.37454974 26.31956459 83.78428807 26.34643555 87.19433594 C26.37754229 91.11158567 26.43232892 95.02833576 26.48828125 98.9453125 C26.49467117 100.16115021 26.5010611 101.37698792 26.50764465 102.62966919 C26.5885333 110.75125449 26.5885333 110.75125449 30 118 C33.48876641 121.23349082 36.15957305 122.25939933 40.8125 122.375 C45.68951068 122.1825838 50.29787896 121.27207139 55 120 C57.79080349 126.95068039 58.63419196 133.54508438 59 141 C51.1030469 144.56137101 44.38576833 145.23020233 35.75 145.3125 C34.75097656 145.34150391 33.75195312 145.37050781 32.72265625 145.40039062 C22.96481972 145.48330035 15.91787573 142.64065481 8.7890625 135.98046875 C-0.09827679 126.14230058 -0.29638175 114.38679309 -0.1953125 101.77734375 C-0.19157439 100.42257396 -0.1887312 99.06780143 -0.18673706 97.71302795 C-0.17916332 94.17685252 -0.15957004 90.64084586 -0.1373291 87.10473633 C-0.11673443 83.48456097 -0.10770645 79.86435789 -0.09765625 76.24414062 C-0.07631706 69.16268546 -0.04118734 62.08137163 0 55 C-6.27 55 -12.54 55 -19 55 C-19 47.41 -19 39.82 -19 32 C-12.73 32 -6.46 32 0 32 C0 21.44 0 10.88 0 0 Z " fill="#191B38" transform="translate(957,112)"/>
<path d="M0 0 C1.5631897 0.00785522 1.5631897 0.00785522 3.15795898 0.01586914 C4.17059814 0.0183667 5.1832373 0.02086426 6.2265625 0.0234375 C7.52263428 0.0325415 8.81870605 0.04164551 10.15405273 0.05102539 C14.25842773 0.07165039 18.36280273 0.09227539 22.59155273 0.11352539 C22.59155273 10.67352539 22.59155273 21.23352539 22.59155273 32.11352539 C32.16155273 32.11352539 41.73155273 32.11352539 51.59155273 32.11352539 C51.59155273 39.37352539 51.59155273 46.63352539 51.59155273 54.11352539 C42.02155273 54.11352539 32.45155273 54.11352539 22.59155273 54.11352539 C22.65921612 61.56583099 22.72966561 69.01718417 22.82709503 76.4690094 C22.8716672 79.93952208 22.91112021 83.4099165 22.93798828 86.88061523 C22.96909037 90.86735931 23.02387722 94.85361215 23.07983398 98.84008789 C23.08622391 100.07779938 23.09261383 101.31551086 23.09919739 102.59072876 C23.21690193 109.49304794 23.61353155 114.35862911 28.02905273 119.92602539 C32.08334411 123.00728683 37.75614673 122.44356104 42.59155273 122.11352539 C45.63185185 121.58537675 48.60914579 120.90319342 51.59155273 120.11352539 C52.27003481 122.29738957 52.93380784 124.48582623 53.59155273 126.67602539 C53.96280273 127.89418945 54.33405273 129.11235352 54.71655273 130.36743164 C55.58670216 134.09275888 55.74843677 137.30418488 55.59155273 141.11352539 C53.88577931 141.76608996 52.17679184 142.4102558 50.46655273 143.05102539 C49.03956055 143.59049805 49.03956055 143.59049805 47.58374023 144.14086914 C37.3288311 147.47438399 25.07782473 147.7464477 15.09155273 143.49633789 C6.98227433 139.01089327 1.64763793 132.86448421 -1.40844727 124.11352539 C-3.54444402 116.37519954 -3.66898624 109.10908972 -3.60375977 101.10961914 C-3.60092987 99.79059097 -3.59809998 98.47156281 -3.59518433 97.11256409 C-3.58761201 93.63557103 -3.56802004 90.15874974 -3.54577637 86.68182373 C-3.52517856 83.12197186 -3.51615306 79.56209177 -3.50610352 76.00219727 C-3.48476685 69.03922972 -3.44963835 62.07640353 -3.40844727 55.11352539 C-9.34844727 55.11352539 -15.28844727 55.11352539 -21.40844727 55.11352539 C-21.43527714 51.4676437 -21.45520296 47.82195693 -21.47094727 44.17602539 C-21.47932617 43.13510742 -21.48770508 42.09418945 -21.49633789 41.02172852 C-21.50117187 39.53769531 -21.50117187 39.53769531 -21.50610352 38.02368164 C-21.51134033 37.10723877 -21.51657715 36.1907959 -21.52197266 35.24658203 C-21.40844727 33.11352539 -21.40844727 33.11352539 -20.40844727 32.11352539 C-17.5457716 32.04027371 -14.70772827 32.02114334 -11.84594727 32.05102539 C-11.03963867 32.05553711 -10.23333008 32.06004883 -9.40258789 32.06469727 C-7.4045097 32.07652021 -5.40646944 32.09445625 -3.40844727 32.11352539 C-3.41630249 30.71275757 -3.41630249 30.71275757 -3.42431641 29.28369141 C-3.44132346 25.83039743 -3.45388028 22.37714772 -3.46337891 18.92382812 C-3.46841847 17.42707621 -3.47525014 15.93032923 -3.48388672 14.43359375 C-3.49596885 12.28652732 -3.50167918 10.13952577 -3.50610352 7.99243164 C-3.51395874 6.05219116 -3.51395874 6.05219116 -3.52197266 4.07275391 C-3.37182617 0.15893555 -3.37182617 0.15893555 0 0 Z " fill="#181B37" transform="translate(568.408447265625,111.886474609375)"/>
<path d="M0 0 C1.02463852 -0.00637985 2.04927704 -0.0127597 3.10496521 -0.01933289 C4.75662437 -0.02100212 4.75662437 -0.02100212 6.44165039 -0.02270508 C7.57832657 -0.02603348 8.71500275 -0.02936188 9.88612366 -0.03279114 C12.2893127 -0.03785226 14.69250876 -0.04019971 17.09570312 -0.04003906 C20.77168344 -0.04222584 24.44736378 -0.06039128 28.12329102 -0.0793457 C30.45857645 -0.08227972 32.7938633 -0.08426446 35.12915039 -0.08520508 C36.77777321 -0.09598335 36.77777321 -0.09598335 38.45970154 -0.10697937 C39.48749222 -0.10390274 40.5152829 -0.10082611 41.57421875 -0.09765625 C42.47482529 -0.09908127 43.37543182 -0.10050629 44.30332947 -0.10197449 C48.70603499 0.32514992 52.05513445 1.79262851 55.11669922 4.9909668 C59.14587011 10.00530431 58.69600878 15.4343091 58.61352539 21.61401367 C58.61689407 22.80828979 58.62026276 24.00256592 58.62373352 25.23303223 C58.6234353 27.75118325 58.60824562 30.26937113 58.57910156 32.78735352 C58.53943264 36.63304883 58.55840655 40.47529284 58.58422852 44.32104492 C58.57666891 46.77288116 58.56571496 49.22470978 58.55102539 51.67651367 C58.56150154 53.3939679 58.56150154 53.3939679 58.57218933 55.14611816 C58.44942546 62.11569414 57.78818044 66.07178047 52.85180664 71.14526367 C49.24096406 72.94462558 46.26505043 73.41063629 42.25463867 73.4675293 C41.15644806 73.48674438 40.05825745 73.50595947 38.92678833 73.52575684 C37.16103958 73.53850647 37.16103958 73.53850647 35.35961914 73.55151367 C33.53066605 73.56861389 33.53066605 73.56861389 31.6647644 73.58605957 C29.08766133 73.60493386 26.51051026 73.61801733 23.93334961 73.62573242 C19.99775911 73.64516024 16.06425149 73.70723114 12.12915039 73.77026367 C9.62265235 73.78332325 7.11613941 73.79382439 4.60961914 73.80151367 C3.43650177 73.82620728 2.2633844 73.85090088 1.05471802 73.87634277 C-5.30625357 73.84177511 -9.2486144 73.38523267 -13.87014771 68.82531738 C-16.6296725 65.19778667 -17.40075043 62.4762213 -17.4387207 57.92114258 C-17.45148041 56.879711 -17.46424011 55.83827942 -17.47738647 54.76528931 C-17.47961212 53.64544647 -17.48183777 52.52560364 -17.48413086 51.37182617 C-17.49078766 50.21532562 -17.49744446 49.05882507 -17.50430298 47.86727905 C-17.51442659 45.42121979 -17.51912009 42.97513293 -17.51879883 40.52905273 C-17.52316878 36.79128375 -17.55948484 33.0546985 -17.59741211 29.31713867 C-17.60328095 26.93953854 -17.60724989 24.5619328 -17.60913086 22.18432617 C-17.62350189 21.0685318 -17.63787292 19.95273743 -17.65267944 18.8031311 C-17.61623106 12.59694414 -17.32945137 8.85441403 -13.14819336 4.14526367 C-9.07683477 0.45559495 -5.36547163 0.02272932 0 0 Z " fill="#9354F8" transform="translate(250.148193359375,37.854736328125)"/>
<path d="M0 0 C0.72832031 -0.00386719 1.45664062 -0.00773438 2.20703125 -0.01171875 C7.62157931 -0.00171034 7.62157931 -0.00171034 9.875 1.125 C9.875 9.375 9.875 17.625 9.875 26.125 C7.235 25.795 4.595 25.465 1.875 25.125 C-7.56429024 24.33189159 -14.47017747 26.13888743 -22.4375 31.25 C-28.99712318 38.26727131 -31.20035276 46.15412141 -31.33032227 55.56762695 C-31.35026749 56.84857742 -31.37021271 58.12952789 -31.39076233 59.44929504 C-31.40774278 60.83728924 -31.42462173 62.22528467 -31.44140625 63.61328125 C-31.46199424 65.04103675 -31.48299118 66.46878641 -31.50437927 67.89653015 C-31.55940953 71.64306895 -31.60890227 75.38966101 -31.65722656 79.1362915 C-31.70758121 82.96395574 -31.76319418 86.79154323 -31.81835938 90.61914062 C-31.92570779 98.12103039 -32.02671757 105.62298498 -32.125 113.125 C-40.705 113.125 -49.285 113.125 -58.125 113.125 C-58.125 76.495 -58.125 39.865 -58.125 2.125 C-49.875 2.125 -41.625 2.125 -33.125 2.125 C-32.63 10.54 -32.63 10.54 -32.125 19.125 C-30.8875 17.083125 -30.8875 17.083125 -29.625 15 C-24.97886672 8.03080008 -18.42505505 3.26938494 -10.4609375 0.55859375 C-6.98513341 -0.08658059 -3.52151022 -0.01889898 0 0 Z " fill="#161835" transform="translate(815.125,141.875)"/>
<path d="M0 0 C2.3722528 0.80497429 4.71863122 1.68879681 7.0390625 2.6328125 C7.70634872 2.90162735 8.37363495 3.1704422 9.06114197 3.44740295 C11.25228954 4.33227465 13.43867879 5.22827678 15.625 6.125 C17.15852649 6.74840895 18.69230392 7.37120093 20.22631836 7.9934082 C22.63529446 8.97110746 25.04380744 9.94987384 27.45097351 10.93202209 C32.57467814 13.02186186 37.70847126 15.08414965 42.85229492 17.1239624 C46.26590241 18.47787359 49.67652728 19.83920207 53.08685303 21.20135498 C54.73414655 21.85753509 56.38262565 22.51074686 58.0322876 23.16094971 C60.33893976 24.07118892 62.6405749 24.99313372 64.94140625 25.91796875 C65.97333351 26.32028465 65.97333351 26.32028465 67.02610779 26.73072815 C70.4849602 28.13532182 71.87003467 28.805052 74 32 C73.625 35.6875 73.625 35.6875 73 39 C66.23572814 41.97495003 59.34419749 44.16816651 52.24243164 46.16088867 C50.84779688 46.5558482 49.45800116 46.96831687 48.07373047 47.39819336 C46 48 46 48 43.86767578 48.36938477 C41.44792199 48.92859536 39.97739245 49.47754233 38 51 C35.72837495 55.07111901 34.44966936 59.35745322 33.125 63.8125 C32.74859375 64.98876953 32.3721875 66.16503906 31.984375 67.37695312 C31.28409752 69.57339083 30.59657182 71.77396618 29.92626953 73.97973633 C26.78987112 84.20651142 26.78987112 84.20651142 24 86 C18.89144317 86.6385696 18.89144317 86.6385696 16.46630859 84.90136719 C14.38373652 82.20088912 13.59220912 79.44441563 12.5390625 76.203125 C12.31195587 75.51358734 12.08484924 74.82404968 11.8508606 74.11361694 C11.10029503 71.82846181 10.36252238 69.53939486 9.625 67.25 C9.1040492 65.65255161 8.58222467 64.05538792 8.05957031 62.45849609 C7.23637638 59.94327463 6.41383363 57.42786244 5.59460449 54.91134644 C3.55027948 48.64066807 1.44739918 42.39147454 -0.6796875 36.1484375 C-1.57789442 33.50077334 -2.47544533 30.85288756 -3.37286377 28.20495605 C-3.95529174 26.49183727 -4.54051648 24.77966666 -5.12860107 23.06848145 C-5.95346895 20.6655876 -6.76693802 18.25910322 -7.578125 15.8515625 C-7.82440643 15.1436557 -8.07068787 14.4357489 -8.32443237 13.70639038 C-9.66743433 9.68030926 -10.3512472 6.24253066 -10 2 C-7.63200933 -2.31810063 -4.27070064 -0.81744519 0 0 Z " fill="#6D39F4" transform="translate(251,230)"/>
<path d="M0 0 C8.25 0 16.5 0 25 0 C25 36.3 25 72.6 25 110 C16.75 110 8.5 110 0 110 C0 73.7 0 37.4 0 0 Z " fill="#121530" transform="translate(506,145)"/>
<path d="M0 0 C0.72256485 0.00424484 1.4451297 0.00848969 2.18959045 0.01286316 C4.47184318 0.02950457 6.75317558 0.06712627 9.03515625 0.10546875 C10.5930861 0.12053452 12.15102995 0.13421959 13.70898438 0.14648438 C17.50555682 0.17935993 21.30145112 0.23103785 25.09765625 0.29296875 C25.13840417 2.35790734 25.16736233 4.42308061 25.19140625 6.48828125 C25.20880859 7.63828613 25.22621094 8.78829102 25.24414062 9.97314453 C24.94040444 16.85681895 22.29525458 21.49307269 17.34765625 26.16796875 C9.01480582 32.73370648 0.60909554 33.49919949 -9.90234375 32.29296875 C-14.56588067 30.71981162 -17.65516541 28.0929327 -20.40234375 24.04296875 C-22.41273198 19.84935349 -23.05412473 15.83005192 -21.90234375 11.29296875 C-16.85117947 2.75055857 -9.63622549 -0.2175947 0 0 Z " fill="#F9F9FA" transform="translate(877.90234375,204.70703125)"/>
<path d="M0 0 C5.79905234 3.28749094 9.52636341 7.01562588 12.58984375 12.9375 C13.21875 15.2578125 13.21875 15.2578125 13.21875 23.2578125 C-5.26125 23.2578125 -23.74125 23.2578125 -42.78125 23.2578125 C-40.68462077 12.77466635 -38.68774832 7.72642134 -30.21875 1.8828125 C-20.76960937 -4.14712038 -10.24330558 -4.75582045 0 0 Z " fill="#F8F8F9" transform="translate(700.78125,165.7421875)"/>
<path d="M0 0 C5.48282153 2.24211602 9.52782504 5.54061364 12 11 C12.84345204 16.94294369 12.48441712 21.9536028 9 27 C3.76736031 31.83012894 -0.40389762 33.54787738 -7.46484375 33.37109375 C-11.61612566 32.76343307 -14.19941158 31.07544723 -17 28 C-20.37455435 23.21354013 -21.7658193 18.90774891 -21 13 C-17.81910729 3.45732187 -9.95527649 -2.24388772 0 0 Z " fill="#7B44FA" transform="translate(523,91)"/>
<path d="M0 0 C0.33 0 0.66 0 1 0 C1.33 15.51 1.66 31.02 2 47 C2.33 47 2.66 47 3 47 C3.4596998 52.74624746 2.67500704 55.55130726 -1 60 C-2.9320519 62.00954062 -4.66492902 63.3946387 -7 65 C-9.375 64.8125 -9.375 64.8125 -11 64 C-11 64.66 -11 65.32 -11 66 C-32.81811583 66.04670544 -54.63622342 66.08198171 -76.45437908 66.10362434 C-86.58475604 66.11394016 -96.71510195 66.12800634 -106.84545898 66.15087891 C-115.67431322 66.17080342 -124.50314497 66.18371422 -133.33202106 66.18817699 C-138.00752057 66.19078595 -142.68295576 66.19692454 -147.35843468 66.21146011 C-151.75865346 66.22502917 -156.15878137 66.229224 -160.55901909 66.22621536 C-162.17431888 66.22676583 -163.7896217 66.2307473 -165.40490341 66.23841095 C-167.61031323 66.24836167 -169.81537997 66.24596851 -172.02079773 66.24050903 C-173.25507854 66.24235262 -174.48935934 66.24419621 -175.76104259 66.24609566 C-178.93169083 66.00519012 -181.1479638 65.3611615 -184 64 C-183.67 63.01 -183.34 62.02 -183 61 C-182.01 61.33 -181.02 61.66 -180 62 C-177.71835091 62.10288347 -175.43377115 62.14378206 -173.14982605 62.15390015 C-172.09877472 62.16047353 -172.09877472 62.16047353 -171.02649003 62.1671797 C-168.67284936 62.1805602 -166.31924612 62.18674483 -163.96557617 62.19287109 C-162.28030732 62.20077256 -160.59504016 62.20904154 -158.90977478 62.21765137 C-153.37085586 62.24386301 -147.8319294 62.25917662 -142.29296875 62.2734375 C-140.38654386 62.27879724 -138.48011902 62.28417475 -136.57369423 62.28956985 C-128.64461389 62.31119594 -120.71553558 62.32993344 -112.78643322 62.34119225 C-101.42027444 62.35743749 -90.05445718 62.39063228 -78.68842715 62.44759309 C-70.69768077 62.48627492 -62.70702581 62.50582276 -54.71618825 62.51111281 C-49.94276473 62.51476824 -45.16970553 62.52681004 -40.39638329 62.55921555 C-35.9056915 62.58926586 -31.41558507 62.59561898 -26.92481422 62.58383179 C-25.27766362 62.58361081 -23.63048608 62.59193617 -21.98342896 62.60948563 C-19.7319565 62.63216739 -17.48260863 62.62388985 -15.23112488 62.60800171 C-13.34268498 62.61296693 -13.34268498 62.61296693 -11.41609478 62.61803246 C-6.85495668 61.79284125 -5.23405505 60.28230185 -2 57 C-0.99314613 53.97943839 -0.84627314 51.86445386 -0.79467773 48.70239258 C-0.77473251 47.62149857 -0.75478729 46.54060455 -0.73423767 45.42695618 C-0.71752518 44.26125595 -0.70081268 43.09555573 -0.68359375 41.89453125 C-0.6524221 40.10301888 -0.6524221 40.10301888 -0.62062073 38.27531433 C-0.55515724 34.45443557 -0.4962549 30.63348724 -0.4375 26.8125 C-0.39431176 24.22460214 -0.35069737 21.63671135 -0.30664062 19.04882812 C-0.19947908 12.69929261 -0.0977066 6.34968766 0 0 Z " fill="#D7C8F7" transform="translate(218,48)"/>
<path d="M0 0 C0 0.66 0 1.32 0 2 C-0.99 2.33 -1.98 2.66 -3 3 C-3.83333333 4.91666667 -3.83333333 4.91666667 -4 7 C-3.505 7.99 -3.505 7.99 -3 9 C-4.12019531 9.32613281 -5.24039063 9.65226562 -6.39453125 9.98828125 C-7.86733797 10.42918517 -9.33998607 10.87061921 -10.8125 11.3125 C-11.55048828 11.52583984 -12.28847656 11.73917969 -13.04882812 11.95898438 C-13.76103516 12.17490234 -14.47324219 12.39082031 -15.20703125 12.61328125 C-15.8616333 12.80704346 -16.51623535 13.00080566 -17.19067383 13.20043945 C-20.57752286 14.69712419 -21.75846717 16.42002118 -23.17919922 19.83154297 C-23.55061035 20.95705566 -23.92202148 22.08256836 -24.3046875 23.2421875 C-24.72363281 24.47324219 -25.14257812 25.70429688 -25.57421875 26.97265625 C-26.22649593 28.92164674 -26.87402029 30.87201603 -27.51513672 32.82470703 C-28.14053021 34.71813973 -28.78493741 36.60525833 -29.4296875 38.4921875 C-29.80335449 39.61995605 -30.17702148 40.74772461 -30.56201172 41.90966797 C-32.20371191 45.43779038 -34.050149 47.48538231 -37 50 C-39.8125 50.8125 -39.8125 50.8125 -42 51 C-42 50.34 -42 49.68 -42 49 C-43.98 48.67 -45.96 48.34 -48 48 C-48.33 46.02 -48.66 44.04 -49 42 C-48.34 42.33 -47.68 42.66 -47 43 C-42.97435757 43.44461166 -42.97435757 43.44461166 -39.421875 41.8671875 C-37.49311861 39.33437004 -36.97097231 36.95880426 -36.1875 33.875 C-35.66736328 32.01681641 -35.66736328 32.01681641 -35.13671875 30.12109375 C-34.54693798 28.00578779 -33.97186773 25.88989734 -33.42822266 23.76220703 C-30.00024321 10.59775525 -30.00024321 10.59775525 -25.4375 6.953125 C-22.30749855 5.60456054 -19.31995329 4.76673286 -16 4 C-13.45789586 3.23061061 -10.91622673 2.45978246 -8.375 1.6875 C-2.33201581 0 -2.33201581 0 0 0 Z " fill="#F0EBFC" transform="translate(316,272)"/>
<path d="M0 0 C2.97672584 1.77280561 5.42804007 3.85608015 7 7 C7.67660495 12.86390959 7.67660495 12.86390959 5.953125 15.7578125 C4.16405507 17.93626824 2.54084375 19.72957812 0 21 C-4.07909806 21.38482057 -6.29089873 21.44121857 -9.8125 19.25 C-13.21387283 15.75144509 -13.21387283 15.75144509 -14 13 C-13.80743088 7.70434916 -12.69046589 4.80229819 -9 1 C-5.85088521 -0.57455739 -3.47991184 -0.34799118 0 0 Z " fill="#F0F0F2" transform="translate(64,65)"/>
<path d="M0 0 C5.53846154 3.07692308 5.53846154 3.07692308 7 6 C7.42071592 9.05920574 7.48514117 11.9467746 7 15 C4.81840855 17.75569447 3.12822506 19.43588747 0 21 C-3.3125 21.375 -3.3125 21.375 -7 21 C-9.875 18.5625 -9.875 18.5625 -12 16 C-12.33 15.67 -12.66 15.34 -13 15 C-13.63875068 11.15941049 -13.86586712 7.52763699 -11.90625 4.0703125 C-8.31486608 0.07776336 -5.43564453 -0.97065081 0 0 Z " fill="#F1F1F3" transform="translate(130,65)"/>
<path d="M0 0 C4.99503071 0.4913145 6.31841769 1.88091769 9.8125 5.375 C11.58814811 8.92629622 11.26844986 12.88280047 10.125 16.625 C8.27538541 19.09115278 6.63525936 20.12044028 3.8125 21.375 C-0.45698503 21.90868563 -2.4293138 21.86946926 -6.0625 19.5 C-8.90691408 16.65558592 -9.39104172 14.9862568 -9.5625 11.0625 C-9.54379584 7.19073889 -9.33618109 6.55799211 -6.75 3.375 C-5.904375 2.715 -5.05875 2.055 -4.1875 1.375 C-3.1875 0.375 -3.1875 0.375 0 0 Z " fill="#F2F2F4" transform="translate(93.1875,64.625)"/>
<path d="M0 0 C51.48 0 102.96 0 156 0 C156.33 0.66 156.66 1.32 157 2 C156.10075806 1.99214478 156.10075806 1.99214478 155.18334961 1.98413086 C152.43474398 1.96318557 149.68615522 1.95028444 146.9375 1.9375 C145.52307617 1.92493164 145.52307617 1.92493164 144.08007812 1.91210938 C138.9369232 1.89418897 134.06741573 2.10740389 129 3 C129 2.34 129 1.68 129 1 C126.69 1.66 124.38 2.32 122 3 C122 2.34 122 1.68 122 1 C121.17264516 1.21261128 121.17264516 1.21261128 120.32857609 1.42951775 C114.97386773 2.72464117 110.03957672 3.28156464 104.54272461 3.22705078 C103.75137115 3.22734283 102.9600177 3.22763489 102.14468384 3.22793579 C99.56378697 3.22655733 96.98318934 3.21106717 94.40234375 3.1953125 C92.59916847 3.19157708 90.79599115 3.18873261 88.99281311 3.18673706 C84.27298263 3.17914227 79.55327746 3.15952995 74.83349609 3.1373291 C70.00685317 3.11678067 65.18018978 3.10771619 60.35351562 3.09765625 C50.90228904 3.07627974 41.45115499 3.04219458 32 3 C32 2.34 32 1.68 32 1 C21.44 1 10.88 1 0 1 C0 0.67 0 0.34 0 0 Z " fill="#AC7CFB" transform="translate(143,128)"/>
<path d="M0 0 C2.49361571 1.20381448 4.68143083 2.45428722 7 4 C9.1080669 4.30992718 9.1080669 4.30992718 11.46086121 4.2784729 C12.83014015 4.29521812 12.83014015 4.29521812 14.2270813 4.31230164 C15.22617523 4.31446182 16.22526917 4.31662201 17.25463867 4.31884766 C18.83537422 4.33391609 18.83537422 4.33391609 20.44804382 4.34928894 C23.93801315 4.38022737 27.4279054 4.39718581 30.91796875 4.4140625 C33.33507455 4.43276556 35.75217376 4.45233831 38.16926575 4.4727478 C44.53636804 4.52416602 50.90349152 4.5637399 57.27069092 4.60089111 C63.76580082 4.64087005 70.26082183 4.69199022 76.75585938 4.7421875 C89.50384277 4.83906151 102.25187708 4.92380773 115 5 C109.3725776 8.75161493 102.14026633 8.1436838 95.55200195 8.09765625 C94.74931885 8.09619598 93.94663574 8.09473572 93.11962891 8.0932312 C91.39165433 8.08945037 89.66368353 8.08336085 87.93572426 8.07516479 C85.19910022 8.06231604 82.46252507 8.05586438 79.72587585 8.05102539 C73.92139516 8.0396434 68.11695513 8.02038839 62.3125 8 C55.57299778 7.97637408 48.83351852 7.95600268 42.0939846 7.94406128 C39.40127335 7.93759129 36.70863328 7.92508699 34.01594543 7.91235352 C32.3639024 7.90872071 30.71185871 7.90536901 29.05981445 7.90234375 C28.31424789 7.89717743 27.56868134 7.89201111 26.80052185 7.88668823 C23.06129192 7.88630823 19.63801859 8.13934198 16 9 C11.10195911 9.64691106 8.54903612 9.02347602 4.625 6.1875 C1.92361475 4.07541308 1.1115091 3.33452729 0 0 Z " fill="#BFABF6" transform="translate(133,290)"/>
<path d="M0 0 C0.33 0 0.66 0 1 0 C1.33 15.51 1.66 31.02 2 47 C2.33 47 2.66 47 3 47 C3.4596998 52.74624746 2.67500704 55.55130726 -1 60 C-5.47089916 64.38671447 -7.78861443 65.62463359 -14.25131226 65.56330872 C-14.95880981 65.56349729 -15.66630737 65.56368586 -16.39524424 65.56388015 C-18.75437007 65.55842565 -21.11146488 65.51711754 -23.47021484 65.47583008 C-25.16564658 65.46455203 -26.86109431 65.45549397 -28.55654907 65.44848633 C-33.15149195 65.42321491 -37.74559146 65.36692331 -42.34016752 65.3050406 C-47.14465888 65.24561252 -51.94933181 65.21473951 -56.75405884 65.18083191 C-65.84894323 65.11231174 -74.94337335 65.0181277 -84.03792059 64.91471261 C-94.39320579 64.79821191 -104.74867206 64.71033651 -115.10425258 64.62486041 C-136.40319038 64.44841551 -157.70164475 64.23603899 -179 64 C-179 63.67 -179 63.34 -179 63 C-178.12424253 62.99945523 -177.24848507 62.99891047 -176.3461895 62.99834919 C-155.03867721 62.98338298 -133.73137421 62.94094256 -112.42397881 62.86790943 C-102.11986803 62.83325389 -91.81589111 62.80790316 -81.51171875 62.80444336 C-72.53075779 62.80140425 -63.55003519 62.78092098 -54.5691663 62.73947543 C-49.81364171 62.71813888 -45.05845604 62.70554819 -40.30288315 62.71384621 C-35.82608211 62.7213822 -31.34996806 62.7055822 -26.87329292 62.67193985 C-25.23102531 62.6637011 -23.58868945 62.66396315 -21.9464283 62.67340279 C-19.70126018 62.68502949 -17.45834185 62.66590416 -15.21334839 62.63923645 C-13.95786634 62.63647107 -12.7023843 62.63370569 -11.40885735 62.63085651 C-6.86098627 61.78920965 -5.22950188 60.2738724 -2 57 C-0.99314613 53.97943839 -0.84627314 51.86445386 -0.79467773 48.70239258 C-0.77473251 47.62149857 -0.75478729 46.54060455 -0.73423767 45.42695618 C-0.71752518 44.26125595 -0.70081268 43.09555573 -0.68359375 41.89453125 C-0.6524221 40.10301888 -0.6524221 40.10301888 -0.62062073 38.27531433 C-0.55515724 34.45443557 -0.4962549 30.63348724 -0.4375 26.8125 C-0.39431176 24.22460214 -0.35069737 21.63671135 -0.30664062 19.04882812 C-0.19947908 12.69929261 -0.0977066 6.34968766 0 0 Z " fill="#B3A7D7" transform="translate(218,48)"/>
<path d="M0 0 C22.04431077 -0.09346079 44.08858886 -0.16398781 66.13305759 -0.20724869 C76.36880175 -0.22786979 86.60442277 -0.25598181 96.84008789 -0.30175781 C105.76198549 -0.34163934 114.6837939 -0.3674361 123.60577816 -0.37635398 C128.32949199 -0.38156649 133.05295069 -0.39380843 137.77658272 -0.42292023 C142.22448361 -0.45011008 146.67202473 -0.45843778 151.12000084 -0.45243073 C152.75060101 -0.45352937 154.38121345 -0.46146209 156.01174164 -0.4768219 C158.24305292 -0.49680665 160.47301667 -0.49190957 162.70436096 -0.48101807 C163.95154687 -0.48470524 165.19873278 -0.48839241 166.4837122 -0.49219131 C171.58017178 0.22118406 175.31144211 2.25697251 178.9375 6 C180 8 180 8 180 12 C179.34 12 178.68 12 178 12 C178 11.01 178 10.02 178 9 C177.34 9 176.68 9 176 9 C175.525625 8.175 175.05125 7.35 174.5625 6.5 C174.046875 5.675 173.53125 4.85 173 4 C172.01 4 171.02 4 170 4 C170 3.34 170 2.68 170 2 C169.27039063 2.0721875 168.54078125 2.144375 167.7890625 2.21875 C161.13881876 2.80988278 154.5494109 3.10807061 147.875 3.125 C146.80306396 3.13176758 146.80306396 3.13176758 145.70947266 3.13867188 C141.78121156 3.12799 137.93491045 2.91517212 134.02775574 2.50453186 C127.68137761 1.91413269 121.37167004 1.82635786 115.0012207 1.79467773 C113.75115738 1.78477814 112.50109406 1.77487854 111.21315002 1.76467896 C107.82135295 1.73870419 104.42957674 1.71675613 101.03774285 1.69667697 C97.47966136 1.6746353 93.92162008 1.64733657 90.36357117 1.62062073 C83.64200903 1.57093731 76.92042428 1.52590937 70.19881839 1.48259836 C62.53967399 1.43301627 54.88056997 1.37817672 47.22146475 1.32291877 C31.48101392 1.20947313 15.74052579 1.10255435 0 1 C0 0.67 0 0.34 0 0 Z " fill="#69638D" transform="translate(38,38)"/>
<path d="M0 0 C0.64910843 -0.0049649 1.29821686 -0.00992981 1.96699524 -0.01504517 C4.11147118 -0.02963548 6.25587324 -0.03646222 8.40039062 -0.04199219 C9.89107261 -0.04774461 11.38175458 -0.05350233 12.87243652 -0.05926514 C15.99617863 -0.06976508 19.11989507 -0.07561486 22.24365234 -0.07910156 C26.24876224 -0.0845954 30.25353373 -0.10864624 34.25853729 -0.13707352 C37.33657837 -0.15568055 40.41453743 -0.16090437 43.49263 -0.16243744 C44.96944537 -0.16546705 46.44625919 -0.17350599 47.92301941 -0.18662262 C49.98670412 -0.20364943 52.04955509 -0.20181222 54.11328125 -0.1953125 C55.2878186 -0.19895813 56.46235596 -0.20260376 57.67248535 -0.20635986 C60.55664062 0.16113281 60.55664062 0.16113281 62.45935059 1.68341064 C63.00250916 2.41488312 63.00250916 2.41488312 63.55664062 3.16113281 C60.69607686 4.59141469 58.30335415 4.24139355 55.10668945 4.1953125 C54.44464508 4.18742706 53.78260071 4.17954163 53.10049438 4.17141724 C51.66051169 4.15420185 50.22055182 4.13499023 48.78061867 4.11403656 C45.71461282 4.07207072 42.64855672 4.04851737 39.5823698 4.02400589 C33.87292653 3.97826668 28.16381743 3.92556505 22.45483398 3.83886719 C18.48436242 3.77928179 14.51432851 3.74444959 10.54346275 3.72568512 C9.03358925 3.71397769 7.52375658 3.69321958 6.01413918 3.66304779 C-5.18958073 3.40268745 -5.18958073 3.40268745 -14.44335938 9.16113281 C-15.10335938 9.16113281 -15.76335938 9.16113281 -16.44335938 9.16113281 C-14.94857823 5.35623536 -12.74893723 3.49922447 -9.44335938 1.16113281 C-6.08880506 0.04294804 -3.53577011 0.02055469 0 0 Z " fill="#3F3079" transform="translate(45.443359375,127.8388671875)"/>
<path d="M0 0 C0.33 0 0.66 0 1 0 C1.33 38.94 1.66 77.88 2 118 C1.34 118 0.68 118 0 118 C-0.92484438 115.22546686 -1.12556141 113.58176272 -1.12698364 110.72032166 C-1.12980347 109.84716309 -1.13262329 108.97400452 -1.13552856 108.0743866 C-1.13350433 107.11905533 -1.1314801 106.16372406 -1.12939453 105.17944336 C-1.13114685 104.1709433 -1.13289917 103.16244324 -1.13470459 102.12338257 C-1.1391165 98.77885227 -1.13618587 95.43437462 -1.1328125 92.08984375 C-1.1334861 89.76396169 -1.13445659 87.4380797 -1.13571167 85.11219788 C-1.13718805 80.22884452 -1.13503735 75.34550943 -1.13037109 70.4621582 C-1.12469599 64.22034963 -1.12793907 57.97858427 -1.13394356 51.73677731 C-1.1375697 46.92820413 -1.13640078 42.11964107 -1.13381577 37.31106758 C-1.13315102 35.0111039 -1.13395903 32.71113928 -1.13629532 30.41117668 C-1.13885309 27.18286615 -1.13493647 23.95462385 -1.12939453 20.72631836 C-1.13141876 19.78515671 -1.13344299 18.84399506 -1.13552856 17.87431335 C-1.11653981 11.86152428 -0.70645962 5.97091836 0 0 Z " fill="#5B2DF1" transform="translate(133,170)"/>
<path d="M0 0 C5.88156801 5.57994914 5.88156801 5.57994914 6.13371277 10.7322998 C6.13752457 11.83577759 6.14133636 12.93925537 6.14526367 14.07617188 C6.15483345 15.95326843 6.15483345 15.95326843 6.16459656 17.86828613 C6.16612505 19.23510703 6.16723911 20.60192844 6.16796875 21.96875 C6.171182 23.36975133 6.17454612 24.77075231 6.17805481 26.17175293 C6.18404102 29.10718565 6.18589517 32.04258895 6.18530273 34.97802734 C6.185201 38.74092998 6.19886712 42.5036444 6.21607494 46.26650238 C6.22718674 49.15924956 6.22922222 52.05195107 6.22869301 54.94471741 C6.22987383 56.33220571 6.23430133 57.71969517 6.24202538 59.10716248 C6.25181059 61.04602636 6.24768677 62.98494541 6.24291992 64.92382812 C6.24434494 66.02730591 6.24576996 67.13078369 6.24723816 68.2677002 C6 71 6 71 4 74 C3 73 3 73 2.90666199 70.459198 C2.92094742 69.32781403 2.93523285 68.19643005 2.94995117 67.03076172 C2.96293747 65.75208221 2.97592377 64.47340271 2.98930359 63.15597534 C2.99828863 62.46776577 3.00727367 61.7795562 3.01653099 61.07049179 C3.04311585 58.91777565 3.06102092 56.76516161 3.07600403 54.61233521 C3.11879282 48.48941477 3.16609383 42.36669385 3.24682617 36.24414062 C3.29553688 32.50176765 3.32440102 28.75968171 3.34057045 25.01703262 C3.35043398 23.59371129 3.36759244 22.17042021 3.39235497 20.74728012 C3.65600907 10.15661248 3.65600907 10.15661248 -1 1 C-0.67 0.67 -0.34 0.34 0 0 Z " fill="#4B3C82" transform="translate(110,131)"/>
<path d="M0 0 C2 2 2 2 2.18286133 4.44262695 C2.07391069 7.73356932 1.95776344 11.02292666 1.8125 14.3125 C1.78091797 15.45396484 1.74933594 16.59542969 1.71679688 17.77148438 C1.67232422 18.87427734 1.62785156 19.97707031 1.58203125 21.11328125 C1.52366089 22.62595581 1.52366089 22.62595581 1.46411133 24.16918945 C0.93704194 27.38400775 -0.20138048 29.3123378 -2 32 C-2.28875 32.721875 -2.5775 33.44375 -2.875 34.1875 C-4.47307621 36.76217834 -6.15389878 37.06875103 -9 38 C-11.49536133 38.22705078 -11.49536133 38.22705078 -14.08203125 38.1953125 C-15.01337891 38.18886719 -15.94472656 38.18242187 -16.90429688 38.17578125 C-17.86400391 38.15902344 -18.82371094 38.14226562 -19.8125 38.125 C-20.79154297 38.11597656 -21.77058594 38.10695313 -22.77929688 38.09765625 C-25.18645061 38.07417182 -27.59309743 38.0413284 -30 38 C-30 37.67 -30 37.34 -30 37 C-45.84 36.67 -61.68 36.34 -78 36 C-78 35.67 -78 35.34 -78 35 C-76.7199987 34.98786972 -76.7199987 34.98786972 -75.41413879 34.97549438 C-67.36583643 34.8975008 -59.31770026 34.81019566 -51.26961231 34.71247292 C-47.13216812 34.66256194 -42.99474882 34.61623152 -38.85717773 34.578125 C-34.86296953 34.5412064 -30.86897219 34.49482876 -26.87494469 34.44193649 C-25.35239047 34.42342744 -23.82979111 34.40830662 -22.30716896 34.39665604 C-20.1717642 34.37973355 -18.0368387 34.35068504 -15.90161133 34.31884766 C-14.07959953 34.29886215 -14.07959953 34.29886215 -12.22077942 34.2784729 C-9.03582169 34.00309719 -6.81762577 33.49141445 -4 32 C-2.68931667 29.55711372 -2.68931667 29.55711372 -2 27 C-1.67 26.34 -1.34 25.68 -1 25 C-0.84655791 23.11527141 -0.75040429 21.22572126 -0.68359375 19.3359375 C-0.64169922 18.21445312 -0.59980469 17.09296875 -0.55664062 15.9375 C-0.51732422 14.761875 -0.47800781 13.58625 -0.4375 12.375 C-0.37272461 10.59996094 -0.37272461 10.59996094 -0.30664062 8.7890625 C-0.20032574 5.85949672 -0.09829358 2.92984412 0 0 Z " fill="#B8ACD6" transform="translate(116,260)"/>
<path d="M0 0 C0.99 0.495 0.99 0.495 2 1 C2 1.66 2 2.32 2 3 C7.85790799 5.01958453 13.08263584 5.27432896 19.24975586 5.22705078 C20.25539581 5.22734283 21.26103577 5.22763489 22.29714966 5.22793579 C25.60313712 5.2265485 28.90889592 5.21101549 32.21484375 5.1953125 C34.5141233 5.19158024 36.81340445 5.18873427 39.11268616 5.18673706 C45.15101548 5.17911742 51.1892479 5.15948321 57.22753906 5.1373291 C63.39451792 5.11683473 69.5615125 5.10772766 75.72851562 5.09765625 C87.81905288 5.07623579 99.90951837 5.04211996 112 5 C112.495 5.99 112.495 5.99 113 7 C99.00496879 7.09348304 85.00998606 7.16373251 71.01470661 7.20724869 C64.51628613 7.22813313 58.01807524 7.2564671 51.51977539 7.30175781 C45.24984359 7.34518397 38.98011353 7.36913065 32.71004295 7.37950897 C30.31659964 7.38690607 27.9231675 7.40135063 25.52980995 7.42292023 C22.18019275 7.45191031 18.8314117 7.45595771 15.48168945 7.45410156 C14.48978607 7.46848267 13.49788269 7.48286377 12.47592163 7.49768066 C8.14150779 7.4716503 5.65082536 7.37973127 1.84489441 5.15911865 C0 3 0 3 0 0 Z " fill="#532CE0" transform="translate(135,288)"/>
<path d="M0 0 C0.66 0.99 1.32 1.98 2 3 C1.67 3.33 1.34 3.66 1 4 C0.9064081 5.71865409 0.88255389 7.44115744 0.88647461 9.16235352 C0.88655014 10.26341934 0.88662567 11.36448517 0.88670349 12.49891663 C0.89186478 13.6968132 0.89702606 14.89470978 0.90234375 16.12890625 C0.9037587 17.34827377 0.90517365 18.5676413 0.90663147 19.82395935 C0.91225033 23.7368307 0.92480604 27.64964581 0.9375 31.5625 C0.94251257 34.20768147 0.9470759 36.85286383 0.95117188 39.49804688 C0.96222589 45.99871726 0.97898236 52.49935461 1 59 C1.66 59 2.32 59 3 59 C3.66 60.32 4.32 61.64 5 63 C1.13026749 61.53217043 -0.16127454 59.65284527 -2 56 C-2.3742218 53.40682983 -2.3742218 53.40682983 -2.37231445 50.61474609 C-2.37854324 49.56370697 -2.38477203 48.51266785 -2.39118958 47.42977905 C-2.38197983 46.30568634 -2.37277008 45.18159363 -2.36328125 44.0234375 C-2.36377975 42.86123688 -2.36427826 41.69903625 -2.36479187 40.50161743 C-2.36245435 38.04891242 -2.35274491 35.59620488 -2.33618164 33.14355469 C-2.31254364 29.38194442 -2.31562913 25.62104089 -2.32226562 21.859375 C-2.3166903 19.47655826 -2.30958134 17.09374451 -2.30078125 14.7109375 C-2.30169266 13.58279633 -2.30260406 12.45465515 -2.30354309 11.29232788 C-2.29401108 10.24759308 -2.28447906 9.20285828 -2.2746582 8.12646484 C-2.27005081 7.2066684 -2.26544342 6.28687195 -2.26069641 5.33920288 C-2 3 -2 3 0 0 Z " fill="#784CEC" transform="translate(235,45)"/>
<path d="M0 0 C4.85177876 4.63124337 4.85177876 4.63124337 5.24050903 8.22099304 C5.23606781 9.08481094 5.23162659 9.94862885 5.22705078 10.83862305 C5.22689972 11.8194133 5.22674866 12.80020355 5.22659302 13.81071472 C5.21627045 14.86704605 5.20594788 15.92337738 5.1953125 17.01171875 C5.1924826 18.09508011 5.18965271 19.17844147 5.18673706 20.29463196 C5.17553091 23.75903308 5.15042534 27.22317685 5.125 30.6875 C5.11497077 33.03450148 5.10584482 35.381507 5.09765625 37.72851562 C5.07559016 43.48576507 5.04210827 49.24286415 5 55 C4.01 55 3.02 55 2 55 C2.00444122 54.39944794 2.00888245 53.79889587 2.01345825 53.18014526 C2.05777407 46.91829818 2.08790072 40.6564958 2.10986328 34.39453125 C2.11990831 32.05890086 2.13354677 29.723283 2.15087891 27.38769531 C2.17519277 24.02666119 2.18649827 20.66579366 2.1953125 17.3046875 C2.20563507 16.26384003 2.21595764 15.22299255 2.22659302 14.15060425 C2.2273819 9.02983621 2.0629386 4.78972941 0 0 Z " fill="#4B3D7F" transform="translate(111,230)"/>
<path d="M0 0 C32.34 0 64.68 0 98 0 C98.495 0.99 98.495 0.99 99 2 C98.10075806 1.99214478 98.10075806 1.99214478 97.18334961 1.98413086 C94.43474398 1.96318557 91.68615522 1.95028444 88.9375 1.9375 C87.52307617 1.92493164 87.52307617 1.92493164 86.08007812 1.91210938 C80.9369232 1.89418897 76.06741573 2.10740389 71 3 C71 2.34 71 1.68 71 1 C68.69 1.66 66.38 2.32 64 3 C64 2.34 64 1.68 64 1 C42.88 1 21.76 1 0 1 C0 0.67 0 0.34 0 0 Z " fill="#BE97F8" transform="translate(201,128)"/>
<path d="M0 0 C0 0.99 0 1.98 0 3 C-8.13143039 6.90853549 -16.12104135 6.81856714 -25 7 C-26.84102295 7.04084717 -26.84102295 7.04084717 -28.71923828 7.08251953 C-32.14181733 7.1527466 -35.5641554 7.1980997 -38.98730469 7.22915649 C-40.35763866 7.24292029 -41.7279356 7.26120299 -43.09814453 7.28427124 C-51.06525345 7.40745014 -57.60580789 7.07753888 -65 4 C-64.67 3.34 -64.34 2.68 -64 2 C-63.34 2.33 -62.68 2.66 -62 3 C-60.24488852 3.10596708 -58.48580323 3.1487853 -56.72753906 3.16113281 C-55.62589417 3.17074036 -54.52424927 3.1803479 -53.38922119 3.19024658 C-52.19343445 3.19449646 -50.99764771 3.19874634 -49.765625 3.203125 C-47.92674713 3.21167511 -47.92674713 3.21167511 -46.05072021 3.22039795 C-43.45146552 3.2298594 -40.85219876 3.23638646 -38.25292969 3.24023438 C-34.28043565 3.24678084 -30.30831038 3.28093409 -26.3359375 3.3125 C-23.81250308 3.31903127 -21.28906495 3.32428125 -18.765625 3.328125 C-16.98409027 3.3466452 -16.98409027 3.3466452 -15.16656494 3.36553955 C-9.30483086 3.34975172 -4.93850024 3.31788376 0 0 Z " fill="#D4C0FB" transform="translate(304,107)"/>
<path d="M0 0 C0.33 0 0.66 0 1 0 C1.78639011 18.34840544 2.14327931 36.63379734 2 55 C2.66 55.33 3.32 55.66 4 56 C4 56.99 4 57.98 4 59 C5.65 59.33 7.3 59.66 9 60 C9 60.66 9 61.32 9 62 C5.46491897 61.70540991 4.23796556 61.25118587 1.75 58.625 C-0.87211062 54.69183408 -1.12782848 51.83113726 -1.1328125 47.20703125 C-1.13474609 46.02971436 -1.13667969 44.85239746 -1.13867188 43.6394043 C-1.1319043 41.74508667 -1.1319043 41.74508667 -1.125 39.8125 C-1.12209961 37.88241089 -1.12209961 37.88241089 -1.11914062 35.91333008 C-1.06604593 23.92794055 -0.63034912 11.96825091 0 0 Z " fill="#0F122C" transform="translate(29,48)"/>
<path d="M0 0 C19.14 0.33 38.28 0.66 58 1 C57.67 1.66 57.34 2.32 57 3 C38.52 3 20.04 3 1 3 C0.67 2.01 0.34 1.02 0 0 Z " fill="#7A49E7" transform="translate(241,108)"/>
<path d="M0 0 C0.70298721 -0.00058411 1.40597443 -0.00116821 2.13026428 -0.00177002 C4.44111465 0.00100449 6.75065585 0.03206366 9.0612793 0.06347656 C10.66838374 0.07094127 12.27549732 0.07663312 13.88261414 0.08062744 C18.10292904 0.09586583 22.32268921 0.1351316 26.54278564 0.17944336 C30.85291033 0.22043515 35.16312505 0.23864676 39.47338867 0.25878906 C47.92351242 0.30162811 56.37318613 0.36985704 64.82299805 0.45410156 C64.82299805 1.44410156 64.82299805 2.43410156 64.82299805 3.45410156 C63.961577 3.4429985 63.10015594 3.43189545 62.21263123 3.42045593 C54.07687144 3.32008562 45.94132093 3.24405141 37.80508327 3.1950407 C33.62255279 3.16899606 29.44053578 3.13369339 25.25830078 3.0769043 C21.21877592 3.02239907 17.17974356 2.99264244 13.13987923 2.97971535 C11.60211501 2.97050843 10.06437641 2.95252906 8.52682304 2.92545128 C-2.81161188 2.6581707 -2.81161188 2.6581707 -12.17700195 8.45410156 C-12.83700195 8.45410156 -13.49700195 8.45410156 -14.17700195 8.45410156 C-11.51043572 1.66647841 -6.94683466 -0.04866434 0 0 Z " fill="#332A66" transform="translate(43.177001953125,128.5458984375)"/>
<path d="M0 0 C0.33 0 0.66 0 1 0 C1 16.83 1 33.66 1 51 C0.01 50.67 -0.98 50.34 -2 50 C-1.88270883 43.03982616 -1.75787295 36.07981755 -1.62768555 29.11987305 C-1.5842619 26.75011292 -1.54259251 24.38032 -1.50268555 22.01049805 C-1.44516232 18.61236667 -1.38141697 15.21440157 -1.31640625 11.81640625 C-1.29969376 10.74975235 -1.28298126 9.68309845 -1.26576233 8.5841217 C-1.24581711 7.60318039 -1.22587189 6.62223907 -1.20532227 5.61157227 C-1.18977798 4.74331314 -1.1742337 3.87505402 -1.15821838 2.98048401 C-1 1 -1 1 0 0 Z " fill="#E5DAFB" transform="translate(232,49)"/>
<path d="M0 0 C6.29860838 -0.1270508 12.5968849 -0.21445561 18.89648438 -0.2746582 C21.03821156 -0.29976163 23.17985341 -0.33385168 25.32128906 -0.37719727 C28.4045113 -0.4380315 31.48659843 -0.46625181 34.5703125 -0.48828125 C35.52366486 -0.51408768 36.47701721 -0.5398941 37.45925903 -0.56648254 C41.88552693 -0.56833889 45.03307395 -0.47402586 48.59716797 2.32348633 C51.28776847 5.32054519 51.81520513 7.02691035 52 11 C51.34 11 50.68 11 50 11 C50 10.01 50 9.02 50 8 C49.34 8 48.68 8 48 8 C47.525625 7.175 47.05125 6.35 46.5625 5.5 C46.046875 4.675 45.53125 3.85 45 3 C44.01 3 43.02 3 42 3 C42 2.34 42 1.68 42 1 C41.27039063 1.0721875 40.54078125 1.144375 39.7890625 1.21875 C26.55524695 2.39508916 13.20636147 2.62897851 0 1 C0 0.67 0 0.34 0 0 Z " fill="#36207D" transform="translate(166,39)"/>
<path d="M0 0 C1.84369737 1.55913927 2.89483531 2.46357884 3.36749268 4.87449646 C3.36384705 5.57776566 3.36020142 6.28103485 3.35644531 7.00561523 C3.35944641 7.80752792 3.36244751 8.60944061 3.36553955 9.43565369 C3.35319275 10.30122391 3.34084595 11.16679413 3.328125 12.05859375 C3.32625183 12.95812271 3.32437866 13.85765167 3.32244873 14.78443909 C3.31572088 16.69348847 3.30179188 18.60252389 3.28125 20.51147461 C3.25045226 23.39515397 3.24031033 26.27828275 3.234375 29.16210938 C3.19433684 38.48463187 3.04287957 47.72686038 2 57 C1.67 57 1.34 57 1 57 C0.98969254 56.3426738 0.97938507 55.6853476 0.96876526 55.00810242 C0.86075129 48.17888335 0.74614903 41.34979759 0.62768555 34.52075195 C0.58432033 31.97065006 0.54264644 29.42051884 0.50268555 26.87036133 C0.44502161 23.20905711 0.38131575 19.54790078 0.31640625 15.88671875 C0.29969376 14.7428923 0.28298126 13.59906586 0.26576233 12.420578 C0.24581711 11.35970474 0.22587189 10.29883148 0.20532227 9.20581055 C0.18977798 8.27093307 0.1742337 7.3360556 0.15821838 6.37284851 C0.09027292 3.85013487 0.09027292 3.85013487 -1 1 C-0.67 0.67 -0.34 0.34 0 0 Z " fill="#EEE3FD" transform="translate(218,44)"/>
<path d="M0 0 C2.29946417 3.44919626 2.80769035 6.1381022 3.625 10.1875 C3.88539063 11.45980469 4.14578125 12.73210937 4.4140625 14.04296875 C4.60742188 15.01878906 4.80078125 15.99460937 5 17 C3.68 17.33 2.36 17.66 1 18 C-0.65 12.72 -2.3 7.44 -4 2 C-3.01 2 -2.02 2 -1 2 C-0.67 2.99 -0.34 3.98 0 5 C0 3.35 0 1.7 0 0 Z " fill="#E6D8FC" transform="translate(247,278)"/>
<path d="M0 0 C0.33 0 0.66 0 1 0 C1.01030746 0.5902446 1.02061493 1.1804892 1.03123474 1.78862 C1.13949106 7.93690642 1.25407326 14.08505196 1.37231445 20.2331543 C1.41560199 22.5270696 1.45728142 24.82101583 1.49731445 27.11499023 C1.55516666 30.41399454 1.61881822 33.71284401 1.68359375 37.01171875 C1.70866249 38.54792122 1.70866249 38.54792122 1.73423767 40.11515808 C1.75418289 41.07577652 1.77412811 42.03639496 1.79467773 43.02612305 C1.81022202 43.86773483 1.8257663 44.70934662 1.84178162 45.57646179 C2.00800615 48.12263557 2.44625552 50.51169671 3 53 C1 52 1 52 0 49 C-0.66 48.67 -1.32 48.34 -2 48 C-2 46.68 -2 45.36 -2 44 C-1.34 44 -0.68 44 0 44 C0 29.48 0 14.96 0 0 Z " fill="#CBC8D6" transform="translate(27,237)"/>
<path d="M0 0 C9.57 0 19.14 0 29 0 C29.33 0.66 29.66 1.32 30 2 C29.40050537 1.99476318 28.80101074 1.98952637 28.18334961 1.98413086 C25.43474398 1.96318557 22.68615522 1.95028444 19.9375 1.9375 C18.52307617 1.92493164 18.52307617 1.92493164 17.08007812 1.91210938 C11.9369232 1.89418897 7.06741573 2.10740389 2 3 C2 2.34 2 1.68 2 1 C1.34 0.67 0.68 0.34 0 0 Z " fill="#CA9CFA" transform="translate(270,128)"/>
<path d="M0 0 C2.19462349 1.05667057 4.21960411 2.14640274 6.25 3.5 C9.33362901 5.18197946 11.84703122 5.69243303 15.3125 6.1875 C16.38113281 6.34605469 17.44976562 6.50460937 18.55078125 6.66796875 C19.76314453 6.83232422 19.76314453 6.83232422 21 7 C21 7.33 21 7.66 21 8 C11.36946903 10.33467418 11.36946903 10.33467418 6.80859375 7.765625 C1.24926355 3.74779065 1.24926355 3.74779065 0 0 Z " fill="#D1BFFA" transform="translate(133,290)"/>
<path d="M0 0 C4.29651318 0.68006939 7.412263 2.55347489 10.640625 5.41796875 C12.640625 8.23046875 12.640625 8.23046875 13.640625 10.41796875 C12.980625 10.41796875 12.320625 10.41796875 11.640625 10.41796875 C11.640625 9.75796875 11.640625 9.09796875 11.640625 8.41796875 C10.980625 8.41796875 10.320625 8.41796875 9.640625 8.41796875 C9.640625 7.75796875 9.640625 7.09796875 9.640625 6.41796875 C8.980625 6.41796875 8.320625 6.41796875 7.640625 6.41796875 C7.640625 5.75796875 7.640625 5.09796875 7.640625 4.41796875 C1.62031156 3.80831676 -4.30607756 3.28345103 -10.359375 3.41796875 C-7.28233107 -0.32626593 -4.62366689 -0.14195469 0 0 Z " fill="#A26CF9" transform="translate(520.359375,90.58203125)"/>
<path d="M0 0 C0 0.66 0 1.32 0 2 C-0.99 2.33 -1.98 2.66 -3 3 C-4.20882096 5.00016466 -4.20882096 5.00016466 -5 7 C-7.375 7.125 -7.375 7.125 -10 7 C-10.66 6.34 -11.32 5.68 -12 5 C-15.59679066 5.32326553 -15.59679066 5.32326553 -19 6 C-15.66135833 3.77423889 -12.79479374 2.95201066 -8.9375 1.875 C-7.68839844 1.52179688 -6.43929688 1.16859375 -5.15234375 0.8046875 C-2 0 -2 0 0 0 Z " fill="#DBD2F8" transform="translate(316,272)"/>
<path d="M0 0 C4.45495848 2.96997232 4.93456872 6.90960609 6 12 C6.2100971 14.73126235 6.15243635 17.25614568 6 20 C3.28256973 17.28256973 2.49067114 14.13057954 1.3125 10.5625 C0.95575195 9.5405957 0.95575195 9.5405957 0.59179688 8.49804688 C-1.12211809 3.36635427 -1.12211809 3.36635427 0 0 Z " fill="#EDE2FB" transform="translate(231,240)"/>
<path d="M0 0 C1.20153575 3.97365037 0.637386 6.15214289 -1 10 C-2.25 11.875 -2.25 11.875 -4 13 C-7.1875 13.1875 -7.1875 13.1875 -10 13 C-10.66 11.68 -11.32 10.36 -12 9 C-10.576875 9.2784375 -10.576875 9.2784375 -9.125 9.5625 C-6.10131207 10.28686632 -6.10131207 10.28686632 -4 9 C-2.87293294 6.88984046 -2.87293294 6.88984046 -1.875 4.4375 C-1.52179688 3.61121094 -1.16859375 2.78492188 -0.8046875 1.93359375 C-0.53914063 1.29550781 -0.27359375 0.65742188 0 0 Z " fill="#5430D7" transform="translate(279,303)"/>
<path d="M0 0 C0.33 0 0.66 0 1 0 C1.4596998 5.74624746 0.67500704 8.55130726 -3 13 C-4.93263251 14.79122037 -6.91050254 16.38538833 -9 18 C-10.32 17.34 -11.64 16.68 -13 16 C-11.9275 15.46375 -10.855 14.9275 -9.75 14.375 C-5.98791698 12.26215338 -4.25698484 9.67804937 -2 6 C-1.34 6 -0.68 6 0 6 C0 4.02 0 2.04 0 0 Z " fill="#D5C7F1" transform="translate(220,95)"/>
<path d="M0 0 C0.33 0 0.66 0 1 0 C1 11.55 1 23.1 1 35 C0.01 34.67 -0.98 34.34 -2 34 C-1.84152588 33.31591064 -1.68305176 32.63182129 -1.51977539 31.92700195 C-0.9370438 28.64547588 -0.78632513 25.49940079 -0.68359375 22.16796875 C-0.64169922 20.87568359 -0.59980469 19.58339844 -0.55664062 18.25195312 C-0.51683648 16.89713808 -0.47712409 15.54232033 -0.4375 14.1875 C-0.39426277 12.81313895 -0.35064688 11.43878976 -0.30664062 10.06445312 C-0.2007021 6.70973331 -0.09862811 3.3549414 0 0 Z " fill="#D8C7F8" transform="translate(232,65)"/>
<path d="M0 0 C0.66 0.99 1.32 1.98 2 3 C1.67 3.33 1.34 3.66 1 4 C0.91224395 6.14558827 0.89304781 8.29404421 0.90234375 10.44140625 C0.90556641 11.74658203 0.90878906 13.05175781 0.91210938 14.39648438 C0.92046599 15.7851569 0.92893095 17.17382877 0.9375 18.5625 C0.94251334 19.95507656 0.94707653 21.34765481 0.95117188 22.74023438 C0.96300566 26.1601987 0.9794912 29.58007844 1 33 C0.34 32.67 -0.32 32.34 -1 32 C-1.02465504 27.60343827 -1.04283842 23.2069128 -1.05493164 18.81030273 C-1.05997121 17.31355082 -1.06680287 15.81680384 -1.07543945 14.32006836 C-1.08752159 12.17300193 -1.09323191 10.02600038 -1.09765625 7.87890625 C-1.10289307 6.5854126 -1.10812988 5.29191895 -1.11352539 3.95922852 C-1 1 -1 1 0 0 Z " fill="#733AF9" transform="translate(235,45)"/>
<path d="M0 0 C2.23135604 1.64835788 3.55198737 2.6912492 5 5 C5.48552153 8.48341248 5.15519006 11.82396449 4.8125 15.3125 C4.74224609 16.24384766 4.67199219 17.17519531 4.59960938 18.13476562 C4.423347 20.42617646 4.22284605 22.71272844 4 25 C3.67 25 3.34 25 3 25 C3.06960937 23.28103516 3.06960937 23.28103516 3.140625 21.52734375 C3.17816909 19.99742209 3.21456641 18.46747199 3.25 16.9375 C3.28351563 16.18533203 3.31703125 15.43316406 3.3515625 14.65820312 C3.45065774 8.93545282 2.20081225 5.74451107 -1 1 C-0.67 0.67 -0.34 0.34 0 0 Z " fill="#422F87" transform="translate(110,131)"/>
<path d="M0 0 C3.90047216 0.57784773 6.23265649 2.23265649 9 5 C9.8125 8.25 9.8125 8.25 10 11 C9.34 11 8.68 11 8 11 C8 10.01 8 9.02 8 8 C7.34 8 6.68 8 6 8 C5.2884375 6.7625 5.2884375 6.7625 4.5625 5.5 C4.046875 4.675 3.53125 3.85 3 3 C2.01 3 1.02 3 0 3 C0 2.01 0 1.02 0 0 Z " fill="#513A96" transform="translate(208,39)"/>
<path d="M0 0 C0.99 0 1.98 0 3 0 C3.33 0.99 3.66 1.98 4 3 C6.32269959 4.24498609 6.32269959 4.24498609 9.0625 5.1875 C9.98160156 5.53167969 10.90070312 5.87585938 11.84765625 6.23046875 C12.55792969 6.48441406 13.26820312 6.73835938 14 7 C14 7.33 14 7.66 14 8 C9.70313391 8.42968661 6.98785452 8.41369759 3.625 5.6875 C1 3 1 3 0 0 Z " fill="#1A1C37" transform="translate(29,287)"/>
<path d="M0 0 C-2 2 -2 2 -4.79736328 2.13525391 C-5.95993652 2.08288574 -7.12250977 2.03051758 -8.3203125 1.9765625 C-9.57714844 1.925 -10.83398438 1.8734375 -12.12890625 1.8203125 C-13.46094835 1.75543074 -14.7929795 1.69032366 -16.125 1.625 C-17.46480294 1.56676177 -18.80464687 1.50945844 -20.14453125 1.453125 C-23.43020732 1.31129726 -26.71515936 1.15985087 -30 1 C-30 0.67 -30 0.34 -30 0 C-25.56285102 -0.19652332 -21.12527385 -0.38067922 -16.6875 -0.5625 C-14.79354492 -0.64661133 -14.79354492 -0.64661133 -12.86132812 -0.73242188 C-11.65283203 -0.78076172 -10.44433594 -0.82910156 -9.19921875 -0.87890625 C-8.08377686 -0.9260376 -6.96833496 -0.97316895 -5.8190918 -1.02172852 C-3 -1 -3 -1 0 0 Z " fill="#412D85" transform="translate(109,130)"/>
<path d="M0 0 C0.7425 1.1446875 0.7425 1.1446875 1.5 2.3125 C5.6458406 6.76927865 11.07662292 8.07447233 17 9 C17 9.33 17 9.66 17 10 C8.03702815 10.62653784 8.03702815 10.62653784 4 8.1875 C0 3.8125 0 3.8125 0 0 Z " fill="#5F35EA" transform="translate(504,113)"/>
<path d="M0 0 C0.33 0.66 0.66 1.32 1 2 C1.99 2 2.98 2 4 2 C4.33 4.31 4.66 6.62 5 9 C3.68 9.33 2.36 9.66 1 10 C0.63720544 8.71073008 0.28503302 7.41846728 -0.0625 6.125 C-0.35833984 5.04605469 -0.35833984 5.04605469 -0.66015625 3.9453125 C-1 2 -1 2 0 0 Z " fill="#D9C4FA" transform="translate(247,286)"/>
<path d="M0 0 C-0.33 0.99 -0.66 1.98 -1 3 C-2.45635371 3.22174933 -3.91522956 3.42698698 -5.375 3.625 C-6.18710937 3.74101562 -6.99921875 3.85703125 -7.8359375 3.9765625 C-8.55007813 3.98429688 -9.26421875 3.99203125 -10 4 C-10.66 3.34 -11.32 2.68 -12 2 C-7.8803623 0.70756464 -4.33168317 -0.26252625 0 0 Z " fill="#292C49" transform="translate(870,143)"/>
<path d="M0 0 C1.32 0.66 2.64 1.32 4 2 C3.4225 2.268125 2.845 2.53625 2.25 2.8125 C-0.0325868 4.01719859 -1.9737942 5.40798115 -4 7 C-4.66 6.01 -5.32 5.02 -6 4 C-4.02 2.68 -2.04 1.36 0 0 Z " fill="#EDE6FC" transform="translate(139,126)"/>
<path d="M0 0 C-4.00438221 2.8202907 -8.12336539 2.00863471 -12.75 1.625 C-13.54277344 1.56828125 -14.33554687 1.5115625 -15.15234375 1.453125 C-17.10231735 1.31216305 -19.05128671 1.1574288 -21 1 C-21 0.67 -21 0.34 -21 0 C-18.25034772 -0.19511725 -15.50057868 -0.38136433 -12.75 -0.5625 C-11.97269531 -0.61857422 -11.19539062 -0.67464844 -10.39453125 -0.73242188 C-9.64042969 -0.78076172 -8.88632812 -0.82910156 -8.109375 -0.87890625 C-7.41811523 -0.9260376 -6.72685547 -0.97316895 -6.01464844 -1.02172852 C-3.86382928 -0.99853136 -2.05915129 -0.5995764 0 0 Z " fill="#9FA0AC" transform="translate(1008,257)"/>
<path d="M0 0 C0.66 0.99 1.32 1.98 2 3 C1.01 4.485 1.01 4.485 0 6 C-0.66 6 -1.32 6 -2 6 C-2.33 7.32 -2.66 8.64 -3 10 C-3.66 10 -4.32 10 -5 10 C-3.66511872 6.40608886 -2.03977277 3.24509304 0 0 Z " fill="#2B2D48" transform="translate(642,164)"/>
<path d="M0 0 C0.99 0.495 0.99 0.495 2 1 C4.3329866 1.04022391 6.66706666 1.04320247 9 1 C8.67 2.32 8.34 3.64 8 5 C4.28400809 5.20086443 3.22791555 5.1519437 0 3 C0 2.01 0 1.02 0 0 Z " fill="#DED4F8" transform="translate(267,314)"/>
<path d="M0 0 C-1.49097658 3.7952131 -3.75700849 5.61042731 -7 8 C-7 6.68 -7 5.36 -7 4 C-2.77777778 0 -2.77777778 0 0 0 Z " fill="#E1E1E6" transform="translate(409,120)"/>
<path d="M0 0 C0.99 0.33 1.98 0.66 3 1 C3 1.99 3 2.98 3 4 C4.65 4.33 6.3 4.66 8 5 C8 5.66 8 6.32 8 7 C5.25851328 6.62952882 3.41406801 6.31412056 1.1875 4.625 C0 3 0 3 0 0 Z " fill="#191A2F" transform="translate(30,103)"/>
<path d="M0 0 C0.99 0.495 0.99 0.495 2 1 C2 1.66 2 2.32 2 3 C4.31 3.66 6.62 4.32 9 5 C9 5.66 9 6.32 9 7 C5.2241456 6.47557578 2.77627845 5.67345333 0 3 C0 2.01 0 1.02 0 0 Z " fill="#5B37E3" transform="translate(135,288)"/>
<path d="M0 0 C0.99 0.66 1.98 1.32 3 2 C2.67 2.99 2.34 3.98 2 5 C1.65772583 6.33106622 1.32248257 7.66400079 1 9 C-0.625 6.75 -0.625 6.75 -2 4 C-1.1875 1.6875 -1.1875 1.6875 0 0 Z " fill="#1C1F3D" transform="translate(840,154)"/>
<path d="M0 0 C0.99 0.33 1.98 0.66 3 1 C2.2884375 1.8353125 2.2884375 1.8353125 1.5625 2.6875 C-0.12395996 5.18346074 -0.58953107 7.0446237 -1 10 C-2.125 8.3125 -2.125 8.3125 -3 6 C-1.7 1.7 -1.7 1.7 0 0 Z " fill="#171A32" transform="translate(32,42)"/>
<path d="M0 0 C0.33 0 0.66 0 1 0 C1 4.62 1 9.24 1 14 C-0.65 13.67 -2.3 13.34 -4 13 C-3.01 12.34 -2.02 11.68 -1 11 C-0.41651248 8.3443272 -0.41651248 8.3443272 -0.3125 5.375 C-0.24675781 4.37210938 -0.18101562 3.36921875 -0.11328125 2.3359375 C-0.05720703 1.17964844 -0.05720703 1.17964844 0 0 Z " fill="#A177F6" transform="translate(307,226)"/>
<path d="M0 0 C0.99 0 1.98 0 3 0 C3 1.98 3 3.96 3 6 C2.01 6 1.02 6 0 6 C0 4.02 0 2.04 0 0 Z " fill="#1F223B" transform="translate(1013,247)"/>
<path d="M0 0 C0.33 0 0.66 0 1 0 C1 1.65 1 3.3 1 5 C0.67 5 0.34 5 0 5 C0 3.35 0 1.7 0 0 Z M-1 5 C-0.3125 6.75 -0.3125 6.75 0 9 C-1.4375 11.25 -1.4375 11.25 -3 13 C-3.33 12.01 -3.66 11.02 -4 10 C-3.67 9.34 -3.34 8.68 -3 8 C-2.34 8 -1.68 8 -1 8 C-1 7.01 -1 6.02 -1 5 Z " fill="#181D3A" transform="translate(461,210)"/>
<path d="M0 0 C1.70884005 1.62339805 3.37446717 3.29319053 5 5 C5 5.66 5 6.32 5 7 C4.01 7 3.02 7 2 7 C1.01 5.02 0.02 3.04 -1 1 C-0.67 0.67 -0.34 0.34 0 0 Z " fill="#513B9B" transform="translate(110,131)"/>
<path d="M0 0 C0.99 0.33 1.98 0.66 3 1 C2.67 1.99 2.34 2.98 2 4 C2.66 4 3.32 4 4 4 C4.33 5.32 4.66 6.64 5 8 C4.01 8 3.02 8 2 8 C0.74335022 5.09399739 0 3.20395416 0 0 Z " fill="#EADDFC" transform="translate(240,270)"/>
<path d="M0 0 C0.66 0.66 1.32 1.32 2 2 C0.35 3.32 -1.3 4.64 -3 6 C-3.66 5.34 -4.32 4.68 -5 4 C-3.35 2.68 -1.7 1.36 0 0 Z " fill="#212443" transform="translate(794,148)"/>
<path d="M0 0 C-0.33 0.99 -0.66 1.98 -1 3 C-3.31 3 -5.62 3 -8 3 C-4.93882432 0.37613513 -4.26826873 0 0 0 Z " fill="#292C49" transform="translate(668,146)"/>
</svg>
