<?xml version="1.0" encoding="UTF-8"?>
<svg version="1.1" xmlns="http://www.w3.org/2000/svg" width="1073" height="343">
<path d="M0 0 C354.09 0 708.18 0 1073 0 C1073 113.19 1073 226.38 1073 343 C718.91 343 364.82 343 0 343 C0 229.81 0 116.62 0 0 Z " fill="#121017" transform="translate(0,0)"/>
<path d="M0 0 C1.2897171 -0.0071553 2.5794342 -0.01431061 3.90823364 -0.02168274 C5.33557105 -0.02452282 6.76290871 -0.02723457 8.19024658 -0.02983093 C9.69508012 -0.03609821 11.19991212 -0.04274524 12.70474243 -0.04974365 C17.64423552 -0.07075426 22.58372881 -0.08114291 27.52325439 -0.09111023 C29.22563951 -0.09515884 30.92802446 -0.09927579 32.63040924 -0.10346031 C40.62876994 -0.12250502 48.62712144 -0.13673783 56.62550044 -0.14507228 C65.84993127 -0.15484378 75.07412208 -0.18116397 84.29846835 -0.22157317 C91.43407351 -0.25175674 98.56960994 -0.26654326 105.70527768 -0.26985329 C109.96450283 -0.27220112 114.22347135 -0.28112672 118.48262787 -0.30631447 C122.49149979 -0.32963975 126.49994691 -0.33381072 130.50886917 -0.32355309 C131.9761789 -0.3230587 133.44350986 -0.3293504 134.91075516 -0.34310913 C150.0251185 -0.47685505 150.0251185 -0.47685505 155.72637939 4.14717102 C160.52573681 9.18326671 160.27714534 14.07040457 160.18048096 20.65058899 C160.18106506 21.6950972 160.18164917 22.73960541 160.18225098 23.81576538 C160.17947133 27.25730486 160.14838365 30.69797092 160.11700439 34.13935852 C160.10954162 36.52974474 160.10384886 38.92013709 160.09985352 41.31053162 C160.08460027 47.59395822 160.04532047 53.87701344 160.0010376 60.16029358 C159.96007862 66.57513912 159.94184112 72.99004483 159.92169189 79.40498352 C159.87882647 91.98587089 159.81135011 104.56650118 159.72637939 117.14717102 C160.34506897 117.35181473 160.96375854 117.55645844 161.60119629 117.76730347 C162.41239929 118.03647079 163.22360229 118.30563812 164.05938721 118.58296204 C164.86370178 118.84948074 165.66801636 119.11599945 166.4967041 119.39059448 C172.83959854 121.54287429 180.05631826 124.01648411 183.84747314 129.88154602 C184.98833716 132.82243993 184.91973619 135.25275826 184.85137939 138.39717102 C184.83333252 139.47482727 184.81528564 140.55248352 184.79669189 141.66279602 C184.77348877 142.48263977 184.75028564 143.30248352 184.72637939 144.14717102 C185.38637939 144.47717102 186.04637939 144.80717102 186.72637939 145.14717102 C185.77520805 146.31968412 184.81520931 147.48504117 183.85137939 148.64717102 C183.31770752 149.29685852 182.78403564 149.94654602 182.23419189 150.61592102 C181.73661377 151.12123352 181.23903564 151.62654602 180.72637939 152.14717102 C180.06637939 152.14717102 179.40637939 152.14717102 178.72637939 152.14717102 C178.43762939 153.11654602 178.14887939 154.08592102 177.85137939 155.08467102 C176.72637939 158.14717102 176.72637939 158.14717102 174.72637939 159.14717102 C174.39637939 158.48717102 174.06637939 157.82717102 173.72637939 157.14717102 C167.88043373 158.12919747 162.97560886 159.27259298 157.72637939 162.14717102 C157.09473877 162.27092102 156.46309814 162.39467102 155.81231689 162.52217102 C151.43195279 163.83463967 148.49926644 167.669604 145.72637939 171.14717102 C144.02601398 174.37471649 142.8811272 177.69333075 141.72637939 181.14717102 C141.02958345 182.94335613 140.32143102 184.73518159 139.60137939 186.52217102 C139.28942627 187.3136554 138.97747314 188.10513977 138.65606689 188.92060852 C137.01240985 192.85709808 135.88144123 195.38554822 132.28887939 197.83467102 C131.69204346 198.25103821 131.09520752 198.6674054 130.48028564 199.09638977 C125.66696971 201.9800913 120.14941738 201.73764507 114.72637939 201.14717102 C111.28887939 199.20967102 111.28887939 199.20967102 108.72637939 197.14717102 C106.63344908 196.504961 106.63344908 196.504961 104.72637939 196.14717102 C104.60520752 195.53228821 104.48403564 194.9174054 104.35919189 194.28388977 C104.19161377 193.47564758 104.02403564 192.6674054 103.85137939 191.83467102 C103.68895752 191.03416321 103.52653564 190.2336554 103.35919189 189.40888977 C102.7815894 186.89415984 102.7815894 186.89415984 100.72637939 184.14717102 C100.31231689 181.88545227 100.31231689 181.88545227 100.10137939 179.45967102 C100.02661377 178.65142883 99.95184814 177.84318665 99.87481689 177.01045227 C99.80134033 176.08812805 99.80134033 176.08812805 99.72637939 175.14717102 C99.06637939 175.14717102 98.40637939 175.14717102 97.72637939 175.14717102 C97.39637939 174.15717102 97.06637939 173.16717102 96.72637939 172.14717102 C95.73637939 172.14717102 94.74637939 172.14717102 93.72637939 172.14717102 C93.39637939 171.48717102 93.06637939 170.82717102 92.72637939 170.14717102 C91.47436737 170.14352539 90.22235535 170.13987976 88.93240356 170.13612366 C77.13176849 170.09917802 65.33139448 170.04140976 53.53095818 169.96326828 C47.46425166 169.92376393 41.39769093 169.89158979 35.33087158 169.87617493 C29.47572988 169.8610281 23.62098892 169.82661696 17.76602554 169.778862 C15.53256845 169.76402795 13.29905414 169.75612885 11.06554794 169.75528717 C7.93626966 169.75292194 4.80810286 169.72587668 1.67901611 169.69306946 C0.75616318 169.69809982 -0.16668976 169.70313019 -1.11750793 169.70831299 C-6.63461532 169.61885898 -9.98489733 168.9559797 -14.27362061 165.14717102 C-17.08410461 161.28549143 -17.64970584 158.58942742 -17.65457153 153.84700012 C-17.66303101 152.57681534 -17.67149048 151.30663055 -17.6802063 149.99795532 C-17.6743739 148.59782281 -17.66822942 147.19769157 -17.6618042 145.79756165 C-17.66587104 144.31726698 -17.67121355 142.83697535 -17.67773438 141.35668945 C-17.69140052 137.3422392 -17.68611229 133.32802047 -17.67659712 129.31356621 C-17.66899687 125.11051183 -17.67604715 120.90747716 -17.68075562 116.704422 C-17.6862121 109.64640243 -17.67902437 102.58847706 -17.66473389 95.5304718 C-17.64840755 87.37280748 -17.65369613 79.21536809 -17.6702131 71.05770922 C-17.68383102 64.05119925 -17.68574614 57.04475697 -17.6778971 50.03823805 C-17.67322225 45.85464764 -17.67259052 41.67116294 -17.68250656 37.48757935 C-17.69117842 33.55423272 -17.68515048 29.62117585 -17.66782379 25.68786049 C-17.6638601 24.24511 -17.66499102 22.80233509 -17.67161179 21.35959435 C-17.67982112 19.38885245 -17.66769656 17.41805721 -17.65457153 15.44734192 C-17.65344046 14.34491905 -17.65230938 13.24249619 -17.65114403 12.10666656 C-17.11164635 7.87741648 -15.4744522 5.23179311 -12.33612061 2.39717102 C-8.35815657 -0.01371627 -4.58473605 0.01746905 0 0 Z " fill="#7545FC" transform="translate(143.27362060546875,118.85282897949219)"/>
<path d="M0 0 C1.03646069 -0.00551503 1.03646069 -0.00551503 2.09385997 -0.01114148 C4.42063839 -0.02219782 6.74737219 -0.02602547 9.07417297 -0.02983093 C10.73796735 -0.0360942 12.40176033 -0.04274087 14.06555176 -0.04974365 C18.59467964 -0.067168 23.12379694 -0.07770968 27.65295005 -0.08594918 C30.48225638 -0.09109713 33.31155941 -0.09717301 36.14086342 -0.10346031 C44.99192495 -0.12251784 53.84297811 -0.13674683 62.69405621 -0.14507228 C72.91294555 -0.15484268 83.13161817 -0.18115469 93.35043114 -0.22157317 C101.24690806 -0.25173458 109.14332286 -0.26654125 117.03985626 -0.26985329 C121.75681878 -0.27220408 126.47354992 -0.28116793 131.19045067 -0.30631447 C135.63018825 -0.32960016 140.0695422 -0.33382647 144.50932503 -0.32355309 C146.13669486 -0.32305771 147.76408359 -0.3293788 149.39139557 -0.34310913 C151.61824013 -0.36084278 153.84371016 -0.35371616 156.07055664 -0.34057617 C157.31514491 -0.34296453 158.55973318 -0.34535288 159.84203625 -0.34781361 C164.90314138 0.36576727 168.60350982 2.40430495 172.26597595 6.05345154 C173.652461 8.72460875 173.73350703 10.64026308 173.74092102 13.64668274 C173.7503775 14.74817657 173.75983398 15.84967041 173.76957703 16.98454285 C173.76046799 18.76273911 173.76046799 18.76273911 173.75117493 20.57685852 C173.75548019 22.41149155 173.75548019 22.41149155 173.75987244 24.28318787 C173.76191403 26.87050336 173.7563776 29.45783426 173.74385071 32.04512024 C173.727827 36.00006293 173.74368313 39.95397931 173.76289368 43.90888977 C173.76091072 46.42321494 173.75706597 48.93753947 173.75117493 51.45185852 C173.75724762 52.63327423 173.76332031 53.81468994 173.76957703 55.03190613 C173.68174838 65.32076545 173.68174838 65.32076545 170.35273743 70.14717102 C166.04579785 74.05033501 162.24778954 74.27646774 156.58522034 74.30780029 C155.89339212 74.31288811 155.20156391 74.31797593 154.4887712 74.32321793 C152.16510829 74.33894341 149.84147647 74.34746769 147.51777649 74.35591125 C145.85383405 74.36544959 144.1898936 74.37534074 142.5259552 74.38555908 C137.05678156 74.41694458 131.58759269 74.43720993 126.11836243 74.45576477 C124.72263772 74.46071075 124.72263772 74.46071075 123.29871655 74.46575665 C114.52358686 74.49653569 105.74845374 74.5232432 96.97328568 74.54017544 C85.74919909 74.5620871 74.52559056 74.60407113 63.30169511 74.67361301 C55.40944881 74.7208523 47.51733151 74.74510883 39.62494826 74.75237232 C34.91122091 74.7573284 30.1980324 74.77240501 25.48445892 74.81211662 C21.04868421 74.84899563 16.61375581 74.85738877 12.17785645 74.84411049 C10.55207686 74.84416442 8.92625964 74.85445226 7.30062103 74.87586212 C-6.50519561 75.04793071 -6.50519561 75.04793071 -11.04429626 71.35360718 C-14.66842808 67.53839705 -15.8934037 63.98029616 -15.98539734 58.77119446 C-16.00784012 57.69617676 -16.0302829 56.62115906 -16.05340576 55.51356506 C-16.06504257 54.35624878 -16.07667938 53.1989325 -16.08866882 52.00654602 C-16.10244064 50.81039673 -16.11621246 49.61424744 -16.13040161 48.3818512 C-16.15367533 45.85005823 -16.17093984 43.31820397 -16.18266296 40.78633118 C-16.20956868 36.92499664 -16.28447847 33.06640864 -16.3601532 29.20576477 C-16.37681257 26.74354359 -16.39057828 24.28130079 -16.40116882 21.81904602 C-16.43102371 20.66982666 -16.4608786 19.5206073 -16.49163818 18.33656311 C-16.45332626 11.3057877 -15.38345472 7.56005292 -10.34732056 2.54933167 C-6.93846724 -0.26219595 -4.3555139 0.014978 0 0 Z " fill="#AD83F9" transform="translate(39.64726257324219,29.852828979492188)"/>
<path d="M0 0 C1.47919922 -0.01836914 1.47919922 -0.01836914 2.98828125 -0.03710938 C12.29406961 -0.05550026 20.79516309 1.48133206 29.5 4.75 C30.17248779 5.00177002 30.84497559 5.25354004 31.5378418 5.51293945 C39.76725785 8.76400725 48.75375897 13.56007571 54.75 20.1875 C53.1325067 25.37781078 49.89487963 29.25522586 46.625 33.5 C45.78001953 34.61084961 45.78001953 34.61084961 44.91796875 35.74414062 C43.53365711 37.56251609 42.14425774 39.37674674 40.75 41.1875 C37.32944644 40.56223752 36.56869959 40.02162941 33.8125 37.5 C22.38097165 27.27568046 7.49634358 25.23929199 -7.16943359 25.9921875 C-14.69923448 26.69904513 -21.28568646 30.54623462 -26.25 36.1875 C-29.54297464 41.28773008 -28.8704492 47.37340299 -28.25 53.1875 C-26.98704115 57.97262359 -24.54738753 60.3071958 -20.50390625 63.05078125 C-12.93008852 67.21682704 -5.24126264 69.39855163 3.14379883 71.35107422 C20.23040578 75.34005204 41.91875693 81.41552806 52.75 96.1875 C60.24970634 108.84125985 62.50623863 123.30510953 58.84375 137.765625 C57.66031238 140.42077351 56.34838589 142.76250821 54.75 145.1875 C54.29238281 145.98027344 53.83476562 146.77304688 53.36328125 147.58984375 C46.10015255 159.54913238 34.90868636 165.47889703 21.8125 169.5625 C1.11542317 174.61520824 -25.44397518 171.8611247 -44.08740234 161.12988281 C-50.58858551 157.07568501 -56.579687 152.33034202 -62.25 147.1875 C-59.19655525 142.37017212 -55.74686463 138.10615588 -52 133.8125 C-51.44570313 133.17183594 -50.89140625 132.53117188 -50.3203125 131.87109375 C-48.96656081 130.30727714 -47.60870253 128.74701706 -46.25 127.1875 C-43.21397276 128.57057908 -40.91045196 130.21937255 -38.375 132.375 C-24.0846361 143.63336235 -7.77737303 147.97054762 10.19921875 145.90625 C16.73573785 144.52734942 23.58093712 141.41078946 28.25 136.625 C32.07819552 130.40418228 32.58674996 125.49260918 31.75 118.1875 C30.45932995 113.43366559 28.03909148 111.0366347 23.96875 108.35546875 C12.60663561 102.26293311 0.01718655 98.58905807 -12.5 95.6875 C-28.81357562 91.74029919 -43.51785362 84.26774905 -52.78515625 69.7890625 C-58.17333768 59.31287688 -57.67918882 46.08798477 -55.62109375 34.7109375 C-51.75673662 22.68464221 -42.90296397 13.55948193 -32.25 7.1875 C-21.56688632 1.86644031 -11.84582402 0.0076228 0 0 Z " fill="#F9F9F9" transform="translate(428.25,80.8125)"/>
<path d="M0 0 C0.99837891 -0.00773438 1.99675781 -0.01546875 3.02539062 -0.0234375 C11.89614288 -0.00010876 18.67852316 1.52217723 26.6875 5.5625 C27.84507812 6.13613281 29.00265625 6.70976562 30.1953125 7.30078125 C41.83508958 14.03888886 48.69429747 25.17765533 52.3125 37.9375 C54.81467335 47.52431532 54.5625 56.14122403 54.5625 66.25 C26.8425 66.25 -0.8775 66.25 -29.4375 66.25 C-24.8344165 80.8000411 -24.8344165 80.8000411 -14.4765625 91.25390625 C-3.58016102 96.57686099 7.10384821 96.38891148 18.42578125 92.6640625 C23.64745237 90.31008374 28.94389448 86.48721104 31.5625 81.25 C35.8417498 81.75526082 38.50975683 84.46214002 41.625 87.1875 C44.52944154 89.68864515 47.36559415 92.11872943 50.5625 94.25 C49.60082207 100.78940992 43.25020358 105.20789473 38.26953125 108.9921875 C23.1286394 118.78177586 5.75864735 120.75163712 -11.86669922 117.85009766 C-20.47951568 115.90953765 -27.61870017 111.76936816 -34.4375 106.25 C-35.489375 105.486875 -36.54125 104.72375 -37.625 103.9375 C-44.56658476 97.30443012 -48.98495061 89.12798415 -52.4375 80.25 C-52.91896484 79.07824219 -52.91896484 79.07824219 -53.41015625 77.8828125 C-58.04254108 64.39503157 -57.05670101 47.24440234 -51.4375 34.25 C-50.9115625 32.93708984 -50.9115625 32.93708984 -50.375 31.59765625 C-47.31780669 24.70835604 -42.72675314 19.54845185 -37.4375 14.25 C-36.87160156 13.6725 -36.30570313 13.095 -35.72265625 12.5 C-25.74687929 3.13398936 -13.29213351 -0.10257595 0 0 Z " fill="#FAF9FA" transform="translate(689.4375,133.75)"/>
<path d="M0 0 C11.87784849 12.16065441 12.06389001 25.6583252 11.91796875 41.69921875 C11.91236307 43.52195382 11.90809758 45.34469346 11.90510559 47.16743469 C11.89373325 51.93005177 11.8643329 56.69238783 11.83099365 61.45489502 C11.80012733 66.32861532 11.78656509 71.20238169 11.77148438 76.07617188 C11.73945476 85.61342364 11.68675036 95.15039432 11.625 104.6875 C3.705 104.6875 -4.215 104.6875 -12.375 104.6875 C-12.705 100.3975 -13.035 96.1075 -13.375 91.6875 C-14.365 92.904375 -15.355 94.12125 -16.375 95.375 C-23.70462726 103.67213806 -32.42057838 107.29621766 -43.4375 108.0078125 C-55.46630855 108.47687232 -65.93761288 106.6731384 -75.40625 98.6796875 C-78.6676495 95.37946181 -81.11929849 91.72725634 -83.375 87.6875 C-83.91640625 86.79933594 -84.4578125 85.91117187 -85.015625 84.99609375 C-86.79950851 80.65428531 -86.81572426 76.95701404 -86.75 72.3125 C-86.76160156 71.50039062 -86.77320313 70.68828125 -86.78515625 69.8515625 C-86.73771637 59.98406776 -83.52135251 54.02769895 -76.7421875 46.9453125 C-73.45257178 43.80769222 -70.52211745 41.56341743 -66.375 39.6875 C-65.36050781 39.2234375 -64.34601562 38.759375 -63.30078125 38.28125 C-48.00701672 32.43028801 -29.1090286 32.49736832 -13.375 36.6875 C-13.37738259 26.31931421 -13.37738259 26.31931421 -18.375 17.6875 C-26.93288997 11.27347569 -34.91492725 10.95508859 -45.375 11.6875 C-52.72082406 13.19279182 -58.60965519 16.05605231 -64.53515625 20.61328125 C-65.14230469 20.96777344 -65.74945312 21.32226562 -66.375 21.6875 C-69.76456166 20.55764611 -70.16074251 19.94880237 -72.07421875 17.08984375 C-72.56083984 16.37119141 -73.04746094 15.65253906 -73.54882812 14.91210938 C-74.2980957 13.77999023 -74.2980957 13.77999023 -75.0625 12.625 C-75.82916992 11.48708008 -75.82916992 11.48708008 -76.61132812 10.32617188 C-77.87306185 8.45125915 -79.12720179 6.5717038 -80.375 4.6875 C-62.14166142 -15.99854656 -20.88269298 -15.74401984 0 0 Z " fill="#F9F9FA" transform="translate(920.375,144.3125)"/>
<path d="M0 0 C1.27522522 -0.0159874 2.55045044 -0.03197479 3.86431885 -0.04844666 C5.25426838 -0.05482495 6.64422274 -0.06021719 8.03417969 -0.06469727 C9.4666147 -0.07367027 10.89904878 -0.08279223 12.33148193 -0.09205627 C15.33412956 -0.10853476 18.33666587 -0.11624388 21.33935547 -0.11914062 C25.17049293 -0.1245136 29.00057053 -0.16215154 32.83140945 -0.20788479 C35.79129769 -0.23776438 38.75093451 -0.24486657 41.71096039 -0.24586678 C43.12226957 -0.25005004 44.53358081 -0.26240785 45.9447403 -0.28338432 C59.13123847 -0.46374478 59.13123847 -0.46374478 65.18548584 3.64634705 C69.09808161 7.91784217 70.08346363 12.18637208 70.12597656 17.84326172 C70.14984436 19.76071449 70.14984436 19.76071449 70.17419434 21.71690369 C70.17546168 23.09959864 70.1756384 24.48229495 70.17480469 25.86499023 C70.18191393 27.29696447 70.18961403 28.72893588 70.19787598 30.16090393 C70.21129014 33.15585254 70.21290335 36.15053766 70.20703125 39.14550781 C70.20113551 42.97001257 70.23173344 46.79324768 70.27214813 50.61750698 C70.29808655 53.57309189 70.30089714 56.52837344 70.29725647 59.48405647 C70.29894178 60.89338435 70.30852739 62.30272713 70.32640076 63.71194267 C70.46580165 76.06003562 70.46580165 76.06003562 67.41894531 80.59960938 C63.04503685 84.96367733 60.25809849 85.55720531 54.10498047 85.59692383 C53.12369675 85.60699966 53.12369675 85.60699966 52.12258911 85.61727905 C49.96543732 85.63623691 47.80859704 85.64018209 45.65136719 85.64233398 C44.14687982 85.6487636 42.6423937 85.65549209 41.13790894 85.6625061 C37.98562726 85.67447341 34.83345513 85.67818751 31.68115234 85.67700195 C27.65044115 85.67679882 23.62043551 85.7040964 19.58989143 85.73854637 C16.48254193 85.76083228 13.37536175 85.76483899 10.26794052 85.7637825 C8.78243453 85.76613609 7.29692371 85.77494608 5.81149673 85.79044724 C3.72914101 85.81014264 1.64830041 85.80425737 -0.43408203 85.79223633 C-1.61670624 85.79508636 -2.79933044 85.7979364 -4.01779175 85.8008728 C-8.09619394 85.18531152 -10.1585906 83.97109595 -13.29394531 81.30639648 C-16.06514075 77.05352287 -16.67922862 73.70424139 -16.72973633 68.67773438 C-16.74887589 67.37941177 -16.76801544 66.08108917 -16.78773499 64.74342346 C-16.79232136 63.33863666 -16.79566306 61.93384532 -16.79785156 60.52905273 C-16.80750329 59.07465831 -16.81759655 57.62026675 -16.82810974 56.1658783 C-16.84602644 53.12386322 -16.85163527 50.08210314 -16.84985352 47.04003906 C-16.84954855 43.15482745 -16.89053346 39.27125949 -16.94217014 35.38643742 C-16.97563307 32.38452236 -16.98160817 29.38300092 -16.98002434 26.3809185 C-16.98354818 24.94923667 -16.9967266 23.51754287 -17.02002144 22.08604622 C-17.20519366 9.53465133 -17.20519366 9.53465133 -13.50073242 4.99951172 C-9.34380676 0.94387627 -5.75434594 0.05458213 0 0 Z " fill="#956EF1" transform="translate(40.2939453125,118.693603515625)"/>
<path d="M0 0 C1.25520447 -0.0127597 2.51040894 -0.02551941 3.8036499 -0.03866577 C5.17150722 -0.04172419 6.53936661 -0.04395154 7.90722656 -0.04541016 C9.31724176 -0.0518418 10.72725563 -0.05857044 12.13726807 -0.06558228 C15.09284556 -0.07754979 18.04830624 -0.08126384 21.00390625 -0.08007812 C24.77436899 -0.07987539 28.54407413 -0.10713154 32.31435776 -0.14162254 C35.22791925 -0.16396679 38.1413009 -0.16791333 41.05493927 -0.16685867 C42.443897 -0.1692051 43.83286042 -0.17797424 45.22173309 -0.19352341 C60.03069095 -0.34374474 60.03069095 -0.34374474 65.79785156 4.29052734 C70.72352909 9.39560406 70.38224031 14.67689839 70.32910156 21.38427734 C70.33484192 22.98160706 70.33484192 22.98160706 70.34069824 24.61120605 C70.34341366 26.85702462 70.3360785 29.10287501 70.31933594 31.34863281 C70.29792225 34.77920279 70.31915147 38.20767848 70.34472656 41.63818359 C70.34208322 43.82438612 70.33695812 46.01058734 70.32910156 48.19677734 C70.33719849 49.21880249 70.34529541 50.24082764 70.3536377 51.29382324 C70.27740013 57.10565907 69.8918883 60.8208909 65.79785156 65.29052734 C61.38880341 68.74081347 58.53394262 69.79305139 52.95385742 69.80810547 C52.29776993 69.81511475 51.64168243 69.82212402 50.9657135 69.8293457 C48.81426671 69.84683688 46.66415358 69.83533787 44.51269531 69.82177734 C43.00866953 69.82447453 41.50464545 69.82835885 40.00062561 69.83337402 C36.85596027 69.83925669 33.71175083 69.83074531 30.56713867 69.81201172 C26.54303498 69.78920246 22.51999736 69.80236441 18.49593258 69.82630157 C15.39286814 69.84077655 12.29005525 69.83614628 9.18698311 69.82579041 C7.70346512 69.8231288 6.21992403 69.82637296 4.73643303 69.83570862 C2.66115941 69.84590541 0.58759772 69.83033456 -1.48754883 69.80810547 C-2.66636124 69.8049231 -3.84517365 69.80174072 -5.05970764 69.79846191 C-8.84896063 69.18597859 -10.47396222 67.9378929 -13.20214844 65.29052734 C-16.98150817 59.88959175 -16.68567855 54.36540449 -16.70605469 48.01318359 C-16.71603989 46.92847275 -16.72602509 45.8437619 -16.73631287 44.72618103 C-16.75146624 42.43752852 -16.75853952 40.14881005 -16.75805664 37.86010742 C-16.76462086 34.36770136 -16.81914363 30.87813437 -16.87597656 27.38623047 C-16.88477895 25.15772453 -16.89073295 22.92920514 -16.89355469 20.70068359 C-16.91511124 19.66194595 -16.93666779 18.62320831 -16.95887756 17.55299377 C-16.90195816 11.50242714 -16.13039629 8.02799701 -11.88096619 3.61595154 C-7.95482246 0.51626672 -4.99108206 0.03446742 0 0 Z " fill="#7350DC" transform="translate(40.2021484375,218.70947265625)"/>
<path d="M0 0 C8.25 0 16.5 0 25 0 C25 10.56 25 21.12 25 32 C34.9 32 44.8 32 55 32 C55 39.59 55 47.18 55 55 C45.43 55 35.86 55 26 55 C26.06762355 62.73007099 26.13801342 70.45921524 26.2355423 78.18881989 C26.28015377 81.78853728 26.31959892 85.38813959 26.34643555 88.98803711 C26.37249823 92.45715697 26.41292056 95.92584275 26.46318626 99.39469337 C26.48792221 101.35821845 26.49789227 103.32191158 26.50764465 105.28556824 C26.53733589 107.08686943 26.53733589 107.08686943 26.56762695 108.92456055 C26.58428154 110.50674629 26.58428154 110.50674629 26.60127258 112.12089539 C27.05427229 115.39188576 28.20601285 117.2653929 30 120 C30 120.66 30 121.32 30 122 C33.64117 123.66227326 36.50290369 124.2724556 40.5 124.25 C41.4178125 124.25515625 42.335625 124.2603125 43.28125 124.265625 C46.037504 124.1338196 46.037504 124.1338196 48.53125 122.921875 C51.45906478 121.82857707 53.03969388 122.15419825 56 123 C56.50604924 125.39469729 57.00499517 127.79051717 57.5 130.1875 C57.64308594 130.86103516 57.78617188 131.53457031 57.93359375 132.22851562 C58.68069842 135.87509793 59.17352282 139.27648957 59 143 C57.3962669 143.64690922 55.79199694 144.29248764 54.1875 144.9375 C53.29417969 145.29714844 52.40085937 145.65679687 51.48046875 146.02734375 C42.15123936 149.68557701 29.86227893 149.12030711 20.359375 146.0390625 C12.3637923 142.51782906 6.1720988 136.19439769 2.1875 128.5 C0.27263228 122.85617935 -0.12545743 117.35234065 -0.11352539 111.42211914 C-0.11344986 110.16134048 -0.11337433 108.90056183 -0.11329651 107.60157776 C-0.1081915 106.24610351 -0.10297553 104.89062967 -0.09765625 103.53515625 C-0.09578854 102.13268586 -0.0943663 100.73021481 -0.09336853 99.32774353 C-0.08957116 95.6567908 -0.07976496 91.98587835 -0.06866455 88.31494141 C-0.05839031 84.56087794 -0.05385809 80.80680789 -0.04882812 77.05273438 C-0.0381399 69.70180253 -0.02056597 62.35091207 0 55 C-6.27 55 -12.54 55 -19 55 C-19 47.41 -19 39.82 -19 32 C-12.73 32 -6.46 32 0 32 C0 21.44 0 10.88 0 0 Z " fill="#F7F7F7" transform="translate(962,104)"/>
<path d="M0 0 C8.25 0 16.5 0 25 0 C25 10.89 25 21.78 25 33 C34.9 33 44.8 33 55 33 C55 40.59 55 48.18 55 56 C45.1 56 35.2 56 25 56 C25.0676975 63.43505316 25.13819839 70.86915927 25.2355423 78.30373383 C25.28008068 81.76634994 25.3195404 85.22884847 25.34643555 88.69165039 C25.37758136 92.67098813 25.43236658 96.64983649 25.48828125 100.62890625 C25.49467117 101.86145645 25.5010611 103.09400665 25.50764465 104.36390686 C25.61465514 110.63870679 25.85158382 115.50269647 29 121 C32.51683966 124.29703718 35.94419602 125.27580434 40.75 125.234375 C45.60295764 124.72885858 50.30736221 123.29452077 55 122 C55.67363372 124.72761511 56.33909444 127.456799 57 130.1875 C57.28617188 131.34088867 57.28617188 131.34088867 57.578125 132.51757812 C58.51623421 136.42078253 59.25957208 139.95229795 59 144 C56.93847611 144.64894237 54.87573742 145.2940264 52.8125 145.9375 C51.66394531 146.29714844 50.51539063 146.65679687 49.33203125 147.02734375 C37.99536543 150.3366401 25.60472868 150.71155001 15 145 C7.34295079 140.21100929 3.1492963 132.73652217 0.4365387 124.23394775 C-0.13920792 121.28761593 -0.11925561 118.48993841 -0.11352539 115.48730469 C-0.11367142 114.84298492 -0.11381744 114.19866516 -0.1139679 113.53482056 C-0.1132735 111.41380397 -0.10550336 109.29287617 -0.09765625 107.171875 C-0.09579039 105.69785612 -0.09436728 104.22383662 -0.09336853 102.74981689 C-0.08955661 98.87661008 -0.07973765 95.00344097 -0.06866455 91.13024902 C-0.05842193 87.17537954 -0.0538648 83.22050394 -0.04882812 79.265625 C-0.03811417 71.51039752 -0.02052812 63.75520885 0 56 C-5.94 56 -11.88 56 -18 56 C-18 48.41 -18 40.82 -18 33 C-12.06 33 -6.12 33 0 33 C0 22.11 0 11.22 0 0 Z " fill="#F7F7F7" transform="translate(568,103)"/>
<path d="M0 0 C1.19569107 -0.0038269 2.39138214 -0.00765381 3.62330627 -0.01159668 C6.14739831 -0.01431396 8.6715186 -0.00696584 11.19555664 0.00976562 C15.04963303 0.0311569 18.90184117 0.00996511 22.75585938 -0.015625 C25.21224368 -0.01298133 27.66862683 -0.00785553 30.125 0 C31.84715981 -0.01214539 31.84715981 -0.01214539 33.60411072 -0.02453613 C40.13389445 0.05160905 44.41939955 0.44522509 49.62890625 4.53125 C52.2257637 8.13307636 53.00778484 10.63608148 53.03295898 15.05249023 C53.04564316 16.13388779 53.05832733 17.21528534 53.07139587 18.32945251 C53.06846024 19.48788162 53.0655246 20.64631073 53.0625 21.83984375 C53.06774185 23.03932144 53.0729837 24.23879913 53.0783844 25.47462463 C53.08480204 28.00887275 53.08347098 30.54315066 53.07495117 33.07739258 C53.06644473 36.95122423 53.09520362 40.82357972 53.12695312 44.69726562 C53.12856534 47.16145789 53.12798722 49.62565277 53.125 52.08984375 C53.13623398 53.24624863 53.14746796 54.4026535 53.15904236 55.59410095 C53.10458494 61.89002751 52.86290784 65.74605293 48.62890625 70.53125 C48.11328125 71.129375 47.59765625 71.7275 47.06640625 72.34375 C44.09999194 74.79426617 41.00191061 74.67034348 37.3347168 74.70825195 C35.71239388 74.72750481 35.71239388 74.72750481 34.05729675 74.74714661 C32.88854507 74.75453354 31.7197934 74.76192047 30.515625 74.76953125 C28.71216362 74.78163887 28.71216362 74.78163887 26.87226868 74.79399109 C24.32607464 74.80782972 21.77986208 74.81855286 19.23364258 74.82641602 C15.34225302 74.84363563 11.45171143 74.88752647 7.56054688 74.93164062 C5.08724583 74.94176697 2.61393757 74.95028325 0.140625 74.95703125 C-1.02205399 74.97453934 -2.18473297 74.99204742 -3.38264465 75.01008606 C-13.81194858 74.98211952 -13.81194858 74.98211952 -18.37109375 70.53125 C-22.43241755 65.06898922 -21.80452307 58.8630213 -21.76953125 52.34375 C-21.77240143 51.1678833 -21.77527161 49.9920166 -21.77822876 48.78051758 C-21.78026638 46.2993115 -21.77475772 43.81808924 -21.76220703 41.33691406 C-21.74615009 37.5445556 -21.76206703 33.75326292 -21.78125 29.9609375 C-21.77926752 27.54687265 -21.77542374 25.13280847 -21.76953125 22.71875 C-21.77560394 21.58735596 -21.78167664 20.45596191 -21.78793335 19.2902832 C-21.69627478 9.00343857 -21.69627478 9.00343857 -18.37109375 4.53125 C-13.01466856 -0.66430369 -7.02555866 -0.04945995 0 0 Z " fill="#7E56FA" transform="translate(250.37109375,29.46875)"/>
<path d="M0 0 C0 8.25 0 16.5 0 25 C-9.5 24.8125 -9.5 24.8125 -12.44335938 24.72973633 C-20.64858869 24.65212381 -27.22254551 26.48580242 -33.39453125 32.12109375 C-38.99223314 38.67217552 -41.09281652 46.09083644 -41.20532227 54.51269531 C-41.22017166 55.47917496 -41.22017166 55.47917496 -41.23532104 56.46517944 C-41.26680429 58.58612445 -41.29164103 60.70709181 -41.31640625 62.828125 C-41.33698718 64.30215015 -41.35798395 65.77616955 -41.37937927 67.25018311 C-41.4344824 71.12332491 -41.48394334 74.99651895 -41.53222656 78.86975098 C-41.58252763 82.82467274 -41.63816871 86.77951898 -41.69335938 90.734375 C-41.80079707 98.48952107 -41.90178006 106.2447307 -42 114 C-50.25 114 -58.5 114 -67 114 C-67 76.71 -67 39.42 -67 1 C-58.75 1 -50.5 1 -42 1 C-41.505 8.92 -41.505 8.92 -41 17 C-39.7625 14.958125 -39.7625 14.958125 -38.5 12.875 C-34.28773225 6.58626223 -28.71702972 1.91645719 -21.48046875 -0.5390625 C-14.53748741 -1.82925431 -6.81828866 -1.70457217 0 0 Z " fill="#FAFAFA" transform="translate(829,135)"/>
<path d="M0 0 C3.07539362 0.95789241 5.91618744 2.28660181 8.8125 3.6875 C9.59858643 4.05254639 10.38467285 4.41759277 11.19458008 4.79370117 C12.75661494 5.52006103 14.31588474 6.25240243 15.87207031 6.99121094 C18.62901389 8.29819704 21.40681379 9.5569547 24.1875 10.8125 C25.03699219 11.20050781 25.88648438 11.58851563 26.76171875 11.98828125 C28.6643527 12.84828508 30.58085191 13.67750796 32.5 14.5 C36.45518403 16.19507887 40.35353181 17.99925067 44.25390625 19.81640625 C47.1278632 21.05511031 50.02815415 22.02216685 53 23 C71.09210526 30.09210526 71.09210526 30.09210526 74 33 C74.46867231 39.32707625 74.46867231 39.32707625 72.87231445 41.61914062 C70.3013586 43.51525828 67.90160742 44.0008382 64.79296875 44.71875 C63.56642578 45.01136719 62.33988281 45.30398438 61.07617188 45.60546875 C59.1512793 46.04826172 59.1512793 46.04826172 57.1875 46.5 C54.65859051 47.08704539 52.13117767 47.68058376 49.60546875 48.28125 C48.48293701 48.53970703 47.36040527 48.79816406 46.20385742 49.06445312 C40.00487185 50.7909028 40.00487185 50.7909028 35.63208008 55.18554688 C35.34743896 56.02150391 35.06279785 56.85746094 34.76953125 57.71875 C34.44146484 58.65203125 34.11339844 59.5853125 33.77539062 60.546875 C33.45763672 61.52140625 33.13988281 62.4959375 32.8125 63.5 C32.48314453 64.44359375 32.15378906 65.3871875 31.81445312 66.359375 C29.84885171 72.0803302 28.23510121 77.80153753 26.9128418 83.70507812 C25.78776412 86.53356974 24.60838739 87.48358769 22 89 C19 89.4375 19 89.4375 16 89 C12.02261624 85.92691544 10.78010189 82.29924361 9.4375 77.625 C9.24220703 76.99722656 9.04691406 76.36945313 8.84570312 75.72265625 C7.53100036 71.34602359 6.56276392 66.94224184 5.65234375 62.46484375 C4.11589199 55.154094 2.03781862 48.09734374 -0.22412109 40.98608398 C-0.87489927 38.93781705 -1.51429626 36.88624824 -2.15234375 34.83398438 C-4.50718713 27.32416822 -7.07564207 19.98228136 -10.03759766 12.6862793 C-11.31990537 9.10707287 -11.65054285 6.74062141 -11 3 C-8.80721018 -1.24853028 -4.19661256 -0.49273254 0 0 Z " fill="#5624FD" transform="translate(245,220)"/>
<path d="M0 0 C3.86101556 1.6565723 7.639783 3.480024 11.41503906 5.32226562 C16.29912531 7.6820942 21.24512613 9.90836536 26.1796875 12.16015625 C27.19514648 12.62695801 28.21060547 13.09375977 29.25683594 13.57470703 C37.47825077 17.35358466 45.74515435 21.01722505 54.0546875 24.59765625 C54.0546875 25.91765625 54.0546875 27.23765625 54.0546875 28.59765625 C54.59996094 28.7678125 55.14523437 28.93796875 55.70703125 29.11328125 C74.26061505 35.07580049 74.26061505 35.07580049 78.16015625 41.38671875 C79.88132955 45.64079772 79.57043275 50.09957427 79.0546875 54.59765625 C76.69414161 59.79085721 73.28688267 62.54429887 68.0546875 64.59765625 C64.299179 65.70867845 60.52980139 66.70120662 56.73046875 67.6484375 C53.02795589 68.60455931 49.46898405 69.75369619 45.88671875 71.08203125 C44.0546875 71.59765625 44.0546875 71.59765625 40.0546875 71.59765625 C39.91933594 72.17128906 39.78398437 72.74492187 39.64453125 73.3359375 C37.99767588 79.83460631 35.91938567 86.15858137 33.6796875 92.47265625 C33.39988037 93.29290283 33.12007324 94.11314941 32.83178711 94.95825195 C31.03147957 99.92628592 29.17763721 103.09716485 25.0546875 106.59765625 C24.3534375 107.19578125 23.6521875 107.79390625 22.9296875 108.41015625 C18.35867374 110.29818367 13.92283776 110.24817266 9.0546875 109.59765625 C4.29177192 107.21619846 1.20255817 104.31006985 -0.88085938 99.38696289 C-1.13931641 98.60184326 -1.39777344 97.81672363 -1.6640625 97.0078125 C-1.95667969 96.14091797 -2.24929687 95.27402344 -2.55078125 94.38085938 C-2.84597656 93.48302734 -3.14117187 92.58519531 -3.4453125 91.66015625 C-4.0336596 89.87841515 -4.62726625 88.0984007 -5.2265625 86.3203125 C-5.48501953 85.53406494 -5.74347656 84.74781738 -6.00976562 83.93774414 C-6.90303443 81.51743944 -6.90303443 81.51743944 -8.41796875 79.17089844 C-10.06074286 76.40318119 -11.0713293 73.74992813 -12.1015625 70.703125 C-12.48441406 69.58228516 -12.86726563 68.46144531 -13.26171875 67.30664062 C-13.65230469 66.14455078 -14.04289063 64.98246094 -14.4453125 63.78515625 C-15.22564032 61.48666588 -16.00686957 59.18848133 -16.7890625 56.890625 C-17.15902344 55.80185059 -17.52898437 54.71307617 -17.91015625 53.59130859 C-18.77328034 51.09517001 -19.66650068 48.61824589 -20.6015625 46.1484375 C-21.79883674 42.98470993 -22.89681635 39.81304446 -23.9453125 36.59765625 C-25.07558011 33.13295131 -26.27571483 29.76496018 -27.6953125 26.41015625 C-29.97755891 20.30735371 -29.68340263 14.79983096 -27.2578125 8.78515625 C-21.9686346 -1.94271694 -10.60111125 -4.13407368 0 0 Z M-13.9453125 13.66015625 C-15.54389392 16.75740776 -15.56874073 19.25291433 -14.9453125 22.59765625 C-14.27230732 24.45450401 -13.55070382 26.29395508 -12.80078125 28.12109375 C-9.62594298 36.20116451 -7.08030281 44.44540407 -4.55102539 52.74658203 C-3.75434638 55.35902223 -2.94896468 57.96866691 -2.14257812 60.578125 C-1.62448462 62.26676904 -1.10688894 63.95556593 -0.58984375 65.64453125 C-0.35336624 66.41037537 -0.11688873 67.17621948 0.12675476 67.965271 C1.4924926 72.46673701 2.64145637 76.97085923 3.61936951 81.57249451 C4.29421586 84.71197653 5.09509306 87.80974137 5.9296875 90.91015625 C6.23648438 92.08191406 6.54328125 93.25367188 6.859375 94.4609375 C8.12815917 97.79045935 9.26687749 99.41404841 12.0546875 101.59765625 C15.2656949 102.06592816 17.19459077 102.03923848 20.09375 100.55078125 C22.88103651 97.77459947 23.49603937 94.61460444 24.4296875 90.91015625 C24.85704313 89.38049051 25.28813518 87.8518645 25.72265625 86.32421875 C25.94228027 85.54336914 26.1619043 84.76251953 26.38818359 83.95800781 C26.60812988 83.1790918 26.82807617 82.40017578 27.0546875 81.59765625 C27.26818848 80.83936523 27.48168945 80.08107422 27.70166016 79.29980469 C28.339747 77.11248682 29.0326866 74.95021816 29.7421875 72.78515625 C30.01651611 71.79092651 30.01651611 71.79092651 30.29638672 70.77661133 C31.27997752 67.90066925 32.44992607 65.96855 35.0534668 64.37182617 C42.60560537 61.16575107 50.77443451 59.60209859 58.74804688 57.79882812 C59.77607422 57.55583984 60.80410156 57.31285156 61.86328125 57.0625 C62.78939209 56.85230225 63.71550293 56.64210449 64.66967773 56.42553711 C67.25876264 55.52681801 68.43287361 54.79156524 70.0546875 52.59765625 C70.63802083 49.09765625 70.63802083 49.09765625 70.0546875 45.59765625 C67.40842506 43.15449296 64.65478112 41.903105 61.3046875 40.66015625 C58.11021015 39.43654066 55.07339923 38.1426816 52.0546875 36.53515625 C49.12671802 35.01520429 46.29799245 34.03254959 43.1171875 33.16015625 C38.81323641 31.95007882 35.36466058 30.18008736 31.53125 27.91796875 C27.59895195 25.8215701 23.42971965 24.39904899 19.2578125 22.8515625 C16.35893768 21.71675907 13.63350719 20.45746213 10.8671875 19.03515625 C-1.09044424 12.33804589 -1.09044424 12.33804589 -13.9453125 13.66015625 Z " fill="#F6F3FC" transform="translate(248.9453125,207.40234375)"/>
<path d="M0 0 C8.25 0 16.5 0 25 0 C25 37.29 25 74.58 25 113 C16.75 113 8.5 113 0 113 C0 75.71 0 38.42 0 0 Z " fill="#FBFBFB" transform="translate(508,136)"/>
<path d="M0 0 C0.73030913 17.50037053 0.73030913 17.50037053 -4.62890625 23.96484375 C-11.29507048 30.33473401 -18.51363872 33.18500841 -27.6875 33.4375 C-34.59813715 33.19388177 -38.66776297 32.12943381 -43.875 27.375 C-44.57625 26.59125 -45.2775 25.8075 -46 25 C-46.33 24.67 -46.66 24.34 -47 24 C-47.80752284 17.7508744 -48.3025399 11.63932979 -44.3125 6.4375 C-32.98157874 -4.28155151 -14.15601019 -1.67952663 0 0 Z " fill="#141315" transform="translate(907,198)"/>
<path d="M0 0 C5.57665055 4.83563054 9.12957771 9.86901503 11 17 C11 18.98 11 20.96 11 23 C-8.14 23 -27.28 23 -47 23 C-45.67529383 13.72705682 -42.18026274 6.99160355 -34.7265625 1.1796875 C-24.62659055 -5.72119831 -10.51099477 -6.58924546 0 0 Z " fill="#161617" transform="translate(707,159)"/>
<path d="M0 0 C3.5481507 2.98367218 7.3782617 6.375158 7.98828125 11.1953125 C8.18378383 17.10154845 7.25166395 21.47582667 3.75 26.3125 C-0.39892642 30.16507453 -4.35236808 31.07622897 -9.85546875 31.40625 C-14.05754889 31.24173136 -16.73641206 29.82197493 -19.6875 26.87890625 C-24.1393099 21.80738417 -24.67225403 17.63490468 -24.5859375 11.109375 C-24.06731385 6.7915316 -22.55292736 4.11958838 -19.25 1.3125 C-13.22633053 -2.27087693 -6.31928585 -3.28116765 0 0 Z " fill="#4913F8" transform="translate(529.25,84.6875)"/>
<path d="M0 0 C0.99 0.66 1.98 1.32 3 2 C2.04882866 3.1725131 1.08882991 4.33787015 0.125 5.5 C-0.40867187 6.1496875 -0.94234375 6.799375 -1.4921875 7.46875 C-1.98976563 7.9740625 -2.48734375 8.479375 -3 9 C-3.66 9 -4.32 9 -5 9 C-5.28875 9.969375 -5.5775 10.93875 -5.875 11.9375 C-7 15 -7 15 -9 16 C-9.33 15.34 -9.66 14.68 -10 14 C-15.84594566 14.98202645 -20.75077053 16.12542196 -26 19 C-26.63164062 19.12375 -27.26328125 19.2475 -27.9140625 19.375 C-32.29442661 20.68746865 -35.22711295 24.52243298 -38 28 C-39.70036542 31.22754547 -40.8452522 34.54615973 -42 38 C-42.69679595 39.79618511 -43.40494838 41.58801057 -44.125 43.375 C-44.59292969 44.56222656 -44.59292969 44.56222656 -45.0703125 45.7734375 C-46.71396955 49.70992706 -47.84493816 52.2383772 -51.4375 54.6875 C-52.33275391 55.31205078 -52.33275391 55.31205078 -53.24609375 55.94921875 C-58.05940968 58.83292028 -63.57696202 58.59047405 -69 58 C-72.4375 56.0625 -72.4375 56.0625 -75 54 C-77.09293032 53.35778998 -77.09293032 53.35778998 -79 53 C-79.12117188 52.38511719 -79.24234375 51.77023437 -79.3671875 51.13671875 C-79.53476563 50.32847656 -79.70234375 49.52023437 -79.875 48.6875 C-80.03742188 47.88699219 -80.19984375 47.08648437 -80.3671875 46.26171875 C-80.94478999 43.74698882 -80.94478999 43.74698882 -83 41 C-83.4140625 38.73828125 -83.4140625 38.73828125 -83.625 36.3125 C-83.73714844 35.10013672 -83.73714844 35.10013672 -83.8515625 33.86328125 C-83.90054688 33.24839844 -83.94953125 32.63351562 -84 32 C-84.66 32 -85.32 32 -86 32 C-86.495 30.515 -86.495 30.515 -87 29 C-87.99 29 -88.98 29 -90 29 C-90.495 28.01 -90.495 28.01 -91 27 C-92.88467987 26.99120064 -92.88467987 26.99120064 -94.80743408 26.98222351 C-106.63809561 26.92505453 -118.46857229 26.85232341 -130.29904556 26.76428509 C-136.38147919 26.71952379 -142.46384494 26.68028028 -148.54638672 26.65356445 C-154.41443434 26.62758909 -160.28222155 26.58722742 -166.15010834 26.53681374 C-168.39080318 26.52010599 -170.6315431 26.50861612 -172.87229156 26.50238609 C-176.00661129 26.49278762 -179.14025887 26.46477883 -182.27441406 26.43237305 C-183.20445755 26.43380814 -184.13450104 26.43524323 -185.09272766 26.4367218 C-191.41237553 26.34408289 -191.41237553 26.34408289 -194.60784912 24.47297668 C-195.06725891 23.98689438 -195.5266687 23.50081207 -196 23 C-195.06253937 23.10338684 -195.06253937 23.10338684 -194.10614014 23.2088623 C-184.78082636 24.11788721 -175.48321226 24.19381945 -166.12293243 24.26036072 C-163.1456845 24.28166095 -160.16853357 24.3086535 -157.19134521 24.33703613 C-149.80561288 24.40632392 -142.41981038 24.46620848 -135.03399658 24.52606201 C-128.76939303 24.57715837 -122.50484432 24.63200754 -116.2403183 24.69187927 C-113.31788299 24.71827795 -110.39544182 24.73918915 -107.47296143 24.7598877 C-105.67240142 24.77649988 -103.87184379 24.79337252 -102.07128906 24.81054688 C-101.2679866 24.81473129 -100.46468414 24.81891571 -99.63703918 24.82322693 C-94.68221373 24.87767051 -89.89332003 25.18590091 -85 26 C-83.51953125 27.57421875 -83.51953125 27.57421875 -82.8125 29.6875 C-82.51859375 30.48929687 -82.2246875 31.29109375 -81.921875 32.1171875 C-81.61765625 33.06851563 -81.3134375 34.01984375 -81 35 C-80.19872643 37.44121346 -79.38566284 39.87858023 -78.5625 42.3125 C-78.00755859 44.07013672 -78.00755859 44.07013672 -77.44140625 45.86328125 C-75.53915744 50.00286334 -73.02518819 51.98740591 -69 54 C-62.98892894 54.5033425 -57.95818322 54.83859346 -53 51 C-52.34 51 -51.68 51 -51 51 C-49.61653771 48.32793069 -48.44545939 45.6656904 -47.4140625 42.83984375 C-47.1260376 42.05109863 -46.8380127 41.26235352 -46.54125977 40.44970703 C-46.23889404 39.62067871 -45.93652832 38.79165039 -45.625 37.9375 C-45.30394287 37.08784668 -44.98288574 36.23819336 -44.65209961 35.36279297 C-43.29242013 31.73675066 -42.05944475 28.26646628 -41.21484375 24.48046875 C-40.51117369 21.40033215 -39.96418135 19.4864225 -38 17 C-32.84902896 14.4632212 -27.59035081 13.19821856 -22 12 C-10.07614311 9.70709764 -10.07614311 9.70709764 -1.0625 2.25 C-0.711875 1.5075 -0.36125 0.765 0 0 Z " fill="#5518DA" transform="translate(327,262)"/>
<path d="M0 0 C54.78 0 109.56 0 166 0 C166 0.66 166 1.32 166 2 C162.64091092 3.01388748 159.58457036 3.12572927 156.08392334 3.12698364 C154.87308075 3.12980347 153.66223816 3.13262329 152.41470337 3.13552856 C151.07562241 3.13358419 149.7365416 3.13153602 148.39746094 3.12939453 C146.9844254 3.13074996 145.57139022 3.13253069 144.15835571 3.13470459 C140.31878895 3.13926704 136.47924905 3.1374929 132.63968182 3.1343255 C128.60860307 3.13178984 124.57752659 3.13414336 120.54644775 3.13571167 C113.76403391 3.13753234 106.98163094 3.13513234 100.19921875 3.13037109 C92.39461312 3.12495498 84.59003373 3.12667213 76.78542876 3.1321975 C70.06413226 3.13676312 63.34284358 3.13736163 56.62154603 3.13475883 C52.61703453 3.13321152 48.61253527 3.13295882 44.6080246 3.13629532 C40.82905759 3.13922343 37.05012363 3.13710946 33.27116013 3.13140106 C31.25132032 3.12948561 29.23147767 3.13238685 27.2116394 3.13552856 C18.1057744 3.11489922 9.07774242 2.65531914 0 2 C0 1.34 0 0.68 0 0 Z " fill="#1D0F39" transform="translate(36,104)"/>
<path d="M0 0 C3.06400322 1.73265879 5.40133917 3.80267833 7 7 C7.59968751 12.27725011 6.27164725 14.88707202 3 19 C-0.74204605 21.49469737 -2.46758397 21.21754477 -6.76953125 20.5859375 C-10.5103531 19.60323474 -11.94352044 18.25056447 -14 15 C-15.00337599 9.9499506 -14.79317615 6.27931638 -12.0625 1.875 C-7.94151329 -0.64805309 -4.71404604 -1.06045324 0 0 Z " fill="#FAF7FE" transform="translate(126,58)"/>
<path d="M0 0 C3.49890004 2.11391877 4.70578686 3.11736059 6 7 C6.66611433 12.88400994 6.66611433 12.88400994 4.953125 15.75390625 C3.16567453 17.93564727 1.54217952 19.72891024 -1 21 C-5.18144011 21.39447548 -7.30946048 21.45035186 -10.875 19.125 C-13.87388696 16.12611304 -14.21340819 14.33295137 -14.375 10.1875 C-14.31526314 6.43493911 -14.10210616 5.16468736 -12.0625 1.875 C-7.94666868 -0.64489673 -4.71082814 -0.93875199 0 0 Z " fill="#FAF8FE" transform="translate(60,58)"/>
<path d="M0 0 C2.87029869 1.79393668 4.49131638 2.98263276 6 6 C6.34708476 11.29304255 6.51351894 14.73358414 3 19 C0.27643263 21.21920304 -1.34748844 21 -4.9375 21 C-8.34111442 20.44015314 -9.17731129 19.85224059 -12 17.5 C-14.34516081 14.18965396 -14.73610261 11.12398067 -14.47265625 7.125 C-14 5 -14 5 -12.0625 1.9375 C-7.95859581 -0.65884755 -4.73725096 -0.95259938 0 0 Z " fill="#FAF8FD" transform="translate(93,58)"/>
<path d="M0 0 C0 0.66 0 1.32 0 2 C-1.20679051 1.99861731 -1.20679051 1.99861731 -2.43796062 1.99720669 C-22.0092091 1.97512731 -41.5804551 1.95857664 -61.15171337 1.94818783 C-70.61620213 1.94303041 -80.08068259 1.93599824 -89.54516602 1.92456055 C-97.79390525 1.91459681 -106.04263847 1.90814253 -114.29138356 1.90591151 C-118.6594599 1.90460728 -123.02751901 1.90153957 -127.39558983 1.89426994 C-131.50687796 1.8874831 -135.61814177 1.88538849 -139.72943497 1.88689232 C-141.2383023 1.88661719 -142.74717045 1.88462787 -144.25603294 1.88079453 C-146.3168519 1.87581569 -148.37757917 1.87701718 -150.43840027 1.87974548 C-151.59156329 1.87882369 -152.74472631 1.8779019 -153.93283367 1.87695217 C-156.74154167 1.98963123 -159.26950311 2.35655951 -162 3 C-162 2.34 -162 1.68 -162 1 C-158.15472483 -0.78253677 -155.11020014 -1.25972898 -150.8853302 -1.29193115 C-149.65602783 -1.30598495 -148.42672546 -1.32003876 -147.16017151 -1.33451843 C-145.80575641 -1.34007265 -144.45134047 -1.34542161 -143.09692383 -1.35058594 C-141.66414669 -1.36316524 -140.23137666 -1.37657874 -138.7986145 -1.39076233 C-134.91202942 -1.42659391 -131.02546153 -1.44998538 -127.13876939 -1.4705801 C-123.88861708 -1.48901775 -120.63852553 -1.51375346 -117.38841647 -1.53855062 C-109.7146336 -1.59708953 -102.04083241 -1.64580627 -94.36694336 -1.68798828 C-86.46722416 -1.73154288 -78.56771022 -1.78960736 -70.66814595 -1.85523582 C-63.87393277 -1.91127543 -57.07969655 -1.95919533 -50.28537768 -2.0004847 C-46.23296157 -2.02513117 -42.18061738 -2.05255572 -38.12827492 -2.08739471 C-34.31240348 -2.11976556 -30.49660192 -2.14188889 -26.6806221 -2.15640068 C-25.28670863 -2.1633301 -23.89280697 -2.17370843 -22.49894905 -2.18795204 C-14.74228057 -2.26484936 -7.53323289 -1.94010259 0 0 Z " fill="#1B0C36" transform="translate(294,118)"/>
<path d="M0 0 C0.66 0 1.32 0 2 0 C2 49.5 2 99 2 150 C1.01 149.34 0.02 148.68 -1 148 C-1.29206094 145.08393814 -1.38839642 142.38062091 -1.35644531 139.46264648 C-1.35848969 138.57545929 -1.36053406 137.68827209 -1.36264038 136.77420044 C-1.36567219 133.80629514 -1.34703599 130.83893449 -1.328125 127.87109375 C-1.32505914 125.77173499 -1.32318932 123.67237418 -1.32244873 121.57301331 C-1.31782403 117.12973426 -1.30336266 112.68663419 -1.28125 108.2434082 C-1.25376866 102.70878585 -1.24220015 97.17430729 -1.23744965 91.63962364 C-1.20844657 61.0839993 -0.73184517 30.54639865 0 0 Z " fill="#291654" transform="translate(124,129)"/>
<path d="M0 0 C1.04885376 -0.00412399 2.09770752 -0.00824799 3.17834473 -0.01249695 C4.3234552 -0.00171112 5.46856567 0.00907471 6.64837646 0.02018738 C8.46341675 0.01953026 8.46341675 0.01953026 10.31512451 0.01885986 C13.6290518 0.0205912 16.94241769 0.03563106 20.25624561 0.05658174 C23.72090309 0.07534195 27.18556813 0.07709845 30.65026855 0.08065796 C37.20924455 0.08998038 43.76807044 0.11459673 50.32698035 0.14470643 C57.79486629 0.17824438 65.26275942 0.19473491 72.73070192 0.20979273 C88.09104233 0.24114619 103.45123301 0.29391041 118.8114624 0.36076355 C115.56891493 2.52246187 114.74967959 2.60387585 111.01806641 2.56762695 C110.03118835 2.56315048 109.0443103 2.55867401 108.02752686 2.55406189 C106.94592285 2.53901611 105.86431885 2.52397034 104.74993896 2.50846863 C103.03976593 2.49685951 103.03976593 2.49685951 101.29504395 2.48501587 C98.81503257 2.46733839 96.33504951 2.44527776 93.85511017 2.41939735 C89.92955962 2.3800691 86.00418569 2.35563461 82.07849121 2.33578491 C70.9153821 2.27822537 59.7525263 2.20087581 48.58978271 2.09342957 C41.76529634 2.02791722 34.94101701 1.98892169 28.11626434 1.96425438 C25.51510626 1.94999346 22.91398198 1.92638302 20.31299591 1.89324379 C16.67191166 1.8475074 13.03189918 1.83275496 9.39056396 1.82487488 C8.31705688 1.80375641 7.2435498 1.78263794 6.13751221 1.76087952 C-0.63309216 1.78789663 -4.15727702 2.73185319 -9.1885376 7.36076355 C-10.26749564 9.62965288 -10.26749564 9.62965288 -10.1885376 12.36076355 C-10.22182159 13.0013974 -10.25510559 13.64203125 -10.28939819 14.30207825 C-10.40111668 16.66174374 -10.45723079 19.01849134 -10.50494385 21.3802948 C-10.52572495 22.23886581 -10.54650604 23.09743683 -10.56791687 23.98202515 C-10.63306283 26.71236009 -10.69213413 29.4427875 -10.7510376 32.17326355 C-10.79425609 34.02939273 -10.83787143 35.88551271 -10.88189697 37.74162292 C-10.98870821 42.2812428 -11.09007324 46.82095527 -11.1885376 51.36076355 C-11.5185376 51.36076355 -11.8485376 51.36076355 -12.1885376 51.36076355 C-12.26278457 45.3284829 -12.3171859 39.29646923 -12.35333252 33.26383972 C-12.36840382 31.21236029 -12.38886442 29.16091299 -12.41485596 27.10954285 C-12.45131184 24.15804607 -12.46828066 21.20697592 -12.48150635 18.2552948 C-12.4969902 17.34052872 -12.51247406 16.42576263 -12.52842712 15.48327637 C-12.5297056 10.62810623 -12.43808736 7.24345553 -9.1885376 3.36076355 C-6.09220268 0.57194769 -4.14132405 -0.01257487 0 0 Z " fill="#AB79FA" transform="translate(138.18853759765625,119.63923645019531)"/>
<path d="M0 0 C0.66 0 1.32 0 2 0 C0.73090537 3.91304179 -0.46256976 5.85610288 -4 8 C-7.46282959 9.15427653 -10.14653307 9.12880633 -13.80116272 9.13371277 C-14.84419679 9.1371111 -14.84419679 9.1371111 -15.90830225 9.14057809 C-18.24365382 9.14691989 -20.57894739 9.14608862 -22.91430664 9.14526367 C-24.58636043 9.14825498 -26.25841352 9.15165744 -27.9304657 9.15544128 C-32.47573561 9.16428655 -37.02098671 9.16661957 -41.56626439 9.16725707 C-45.35635402 9.16820553 -49.14643925 9.17188295 -52.93652719 9.17542917 C-61.87378406 9.18357507 -70.81103086 9.18601321 -79.74829102 9.18530273 C-88.98064731 9.1847013 -98.21294529 9.19526582 -107.44528681 9.2110464 C-115.3629379 9.22409964 -123.28056987 9.2294876 -131.19823164 9.22884732 C-135.93115153 9.22859176 -140.66401957 9.23147507 -145.39692879 9.24202538 C-149.84479177 9.25166962 -154.29255293 9.25181097 -158.74041939 9.24450874 C-160.37632902 9.24345843 -162.01224487 9.24585203 -163.64814377 9.2518692 C-165.87415791 9.25952924 -168.09981507 9.25498468 -170.32582092 9.24723816 C-171.57371934 9.24778293 -172.82161776 9.24832769 -174.10733128 9.24888897 C-177 9 -177 9 -179 7 C-177.89043867 7.00138269 -177.89043867 7.00138269 -176.75846195 7.00279331 C-158.64060828 7.02501551 -140.52275738 7.04149212 -122.40489292 7.05181217 C-113.64272632 7.05693733 -104.8805689 7.06390665 -96.1184082 7.07543945 C-88.46863531 7.0855032 -80.81886907 7.0918808 -73.16908973 7.09408849 C-69.13013409 7.09537606 -65.09119746 7.09833454 -61.052248 7.10573006 C-51.03408699 7.12305706 -41.0177637 7.09076813 -31 7 C-29.73180798 6.99262188 -28.46361595 6.98524376 -27.15699387 6.97764206 C-23.6490209 6.94812263 -20.1436733 6.88394618 -16.63647461 6.80639648 C-15.61935929 6.80105676 -14.60224398 6.79571703 -13.55430698 6.79021549 C-8.81101989 6.64459008 -6.69909563 6.56064574 -2.89772034 3.51210022 C-2.27147263 2.68310715 -1.64522491 1.85411407 -1 1 C-0.67 0.67 -0.34 0.34 0 0 Z " fill="#8763CD" transform="translate(210,95)"/>
<path d="M0 0 C1.45823212 -0.0270043 2.91660675 -0.04639787 4.375 -0.0625 C5.18710938 -0.07410156 5.99921875 -0.08570312 6.8359375 -0.09765625 C9 0 9 0 11 1 C13.86431142 1.0980731 16.69875884 1.13902649 19.5625 1.125 C20.75262695 1.13080078 20.75262695 1.13080078 21.96679688 1.13671875 C25.7914162 1.50440225 25.7914162 1.50440225 29 0 C31.10580414 -0.1100096 33.21533306 -0.14913223 35.32397461 -0.16113281 C35.98415085 -0.16609772 36.64432709 -0.17106262 37.32450867 -0.17617798 C39.5171308 -0.19083106 41.70968062 -0.19760645 43.90234375 -0.203125 C45.42070011 -0.20887348 46.93905643 -0.21463124 48.45741272 -0.22039795 C51.64438212 -0.23091663 54.83132622 -0.23675373 58.01831055 -0.24023438 C62.10876993 -0.2457237 66.19889719 -0.26975707 70.28925228 -0.29820633 C73.42644742 -0.31679817 76.56356198 -0.32203643 79.70080757 -0.32357025 C81.209151 -0.32660471 82.71749276 -0.33465982 84.22578239 -0.34775543 C86.33299154 -0.36474622 88.43938166 -0.36295357 90.54663086 -0.35644531 C91.74718613 -0.36009094 92.94774139 -0.36373657 94.18467712 -0.36749268 C95.11373367 -0.24622009 96.04279022 -0.12494751 97 0 C97.99 1.485 97.99 1.485 99 3 C66 3 33 3 -1 3 C-0.67 2.01 -0.34 1.02 0 0 Z " fill="#180D2B" transform="translate(103,27)"/>
<path d="M0 0 C30.69 0 61.38 0 93 0 C92.67 0.66 92.34 1.32 92 2 C91.40461426 1.99476318 90.80922852 1.98952637 90.19580078 1.98413086 C87.50554453 1.96338001 84.81530511 1.95034593 82.125 1.9375 C81.18785156 1.92912109 80.25070313 1.92074219 79.28515625 1.91210938 C78.38925781 1.90888672 77.49335938 1.90566406 76.5703125 1.90234375 C75.74289551 1.89710693 74.91547852 1.89187012 74.06298828 1.88647461 C71.93588243 1.86647862 71.93588243 1.86647862 70 3 C70 2.34 70 1.68 70 1 C69.2575 1.33 68.515 1.66 67.75 2 C65 3 65 3 61 3 C59.05387252 3.00483697 57.10774629 3.01018792 55.16162109 3.01586914 C49.34014006 3.03186784 43.51866079 3.04344544 37.69716454 3.05181217 C34.17765443 3.0570488 30.65816823 3.0641691 27.13867188 3.07543945 C23.07942472 3.0883519 19.02020283 3.09322869 14.9609375 3.09765625 C13.05941422 3.10539818 13.05941422 3.10539818 11.11947632 3.11329651 C9.95131378 3.11337204 8.78315125 3.11344757 7.57958984 3.11352539 C6.03215591 3.11685631 6.03215591 3.11685631 4.45346069 3.12025452 C2 3 2 3 0 2 C0 1.34 0 0.68 0 0 Z " fill="#2D1071" transform="translate(137,288)"/>
<path d="M0 0 C0.62497375 0.06892456 1.24994751 0.13784912 1.89385986 0.2088623 C11.21917364 1.11788721 20.51678774 1.19381945 29.87706757 1.26036072 C32.8543155 1.28166095 35.83146643 1.3086535 38.80865479 1.33703613 C46.19438712 1.40632392 53.58018962 1.46620848 60.96600342 1.52606201 C67.23060697 1.57715837 73.49515568 1.63200754 79.7596817 1.69187927 C82.68211701 1.71827795 85.60455818 1.73918915 88.52703857 1.7598877 C90.32759858 1.77649988 92.12815621 1.79337252 93.92871094 1.81054688 C94.7320134 1.81473129 95.53531586 1.81891571 96.36296082 1.82322693 C101.31781511 1.87767082 106.10773414 2.17795384 111 3 C112.55078125 4.6796875 112.55078125 4.6796875 113.3125 6.875 C113.60253906 7.67550781 113.89257812 8.47601563 114.19140625 9.30078125 C115.55324655 13.84682786 116.86304573 18.39188988 118 23 C115.26722779 20.82779645 113.27111085 19.14172035 112.4453125 15.6640625 C112.21349978 13.43725548 112.05362988 11.23782882 112 9 C111.34 9 110.68 9 110 9 C109.505 7.515 109.505 7.515 109 6 C108.01 6 107.02 6 106 6 C105.505 5.01 105.505 5.01 105 4 C103.11532013 3.99120064 103.11532013 3.99120064 101.19256592 3.98222351 C89.36190439 3.92505453 77.53142771 3.85232341 65.70095444 3.76428509 C59.61852081 3.71952379 53.53615506 3.68028028 47.45361328 3.65356445 C41.58556566 3.62758909 35.71777845 3.58722742 29.84989166 3.53681374 C27.60919682 3.52010599 25.3684569 3.50861612 23.12770844 3.50238609 C19.99338871 3.49278762 16.85974113 3.46477883 13.72558594 3.43237305 C12.79554245 3.43380814 11.86549896 3.43524323 10.90727234 3.4367218 C4.58762447 3.34408289 4.58762447 3.34408289 1.39215088 1.47297668 C0.93274109 0.98689438 0.4733313 0.50081207 0 0 Z " fill="#4D1CE5" transform="translate(131,285)"/>
<path d="M0 0 C0.66 0 1.32 0 2 0 C0.48228108 4.24961299 -2.15638964 5.82307908 -6 8 C-9.26942444 8.5146637 -9.26942444 8.5146637 -12.84399414 8.53344727 C-13.50008163 8.54206284 -14.15616913 8.55067841 -14.83213806 8.55955505 C-16.98355453 8.58211081 -19.13365772 8.57549814 -21.28515625 8.56640625 C-22.78918339 8.57164552 -24.29320724 8.57792311 -25.79722595 8.58518982 C-28.94187946 8.59557394 -32.08607986 8.59106017 -35.23071289 8.57641602 C-39.2549762 8.55920656 -43.27781455 8.58275835 -47.30191898 8.61790562 C-50.40499784 8.63989051 -53.50773602 8.63843611 -56.61086845 8.6301403 C-58.09440108 8.62932183 -59.57795897 8.63616555 -61.06141853 8.65091133 C-63.13696548 8.66838573 -65.20995516 8.65379898 -67.28540039 8.63110352 C-69.053619 8.62966087 -69.053619 8.62966087 -70.8575592 8.62818909 C-74.88091933 7.82389997 -76.3955981 6.08040245 -79 3 C-76.525 3.495 -76.525 3.495 -74 4 C-74 4.66 -74 5.32 -74 6 C-72.18399292 5.8928064 -72.18399292 5.8928064 -70.33129883 5.78344727 C-55.77557753 4.97850386 -41.26221168 4.88147188 -26.6875 4.9375 C-24.37434994 4.94253247 -22.06119881 4.94709224 -19.74804688 4.95117188 C-14.16534044 4.962022 -8.58267554 4.9786175 -3 5 C-2.67 4.01 -2.34 3.02 -2 2 C-1.34 2 -0.68 2 0 2 C0 1.34 0 0.68 0 0 Z " fill="#5939C0" transform="translate(106,280)"/>
<path d="M0 0 C0.66 0 1.32 0 2 0 C2 19.8 2 39.6 2 60 C1.34 60 0.68 60 0 60 C-2.47175195 54.2477153 -2.28931147 48.76146878 -2.265625 42.6171875 C-2.26753845 41.52536163 -2.2694519 40.43353577 -2.27142334 39.30862427 C-2.27278099 37.00734221 -2.26911394 34.70605239 -2.26074219 32.40478516 C-2.25001631 28.88035955 -2.26066256 25.35644128 -2.2734375 21.83203125 C-2.27211624 19.59374888 -2.26955453 17.35546682 -2.265625 15.1171875 C-2.26967346 14.062966 -2.27372192 13.00874451 -2.27789307 11.9225769 C-2.27158875 10.94120758 -2.26528442 9.95983826 -2.25878906 8.94873047 C-2.25719788 8.08746552 -2.25560669 7.22620056 -2.25396729 6.33883667 C-1.98018091 3.81748199 -1.26741763 2.17805708 0 0 Z " fill="#1A0B35" transform="translate(228,37)"/>
<path d="M0 0 C1.32 0.33 2.64 0.66 4 1 C3.67 1.66 3.34 2.32 3 3 C3.41126782 5.15987504 3.90256328 7.30488562 4.4375 9.4375 C6 15.70852018 6 15.70852018 6 19 C6.99 19.2475 7.98 19.495 9 19.75 C14.97014367 21.4902848 21.23465641 23.87677331 25.16796875 28.94140625 C27.06733973 33.6407889 26.33154013 39.03426562 26 44 C25.67 44 25.34 44 25 44 C24.97421875 43.34773438 24.9484375 42.69546875 24.921875 42.0234375 C24.54961646 36.28727179 23.92596944 32.47124297 20 28 C16.29769911 25.50794158 12.4863026 23.92649333 8.3125 22.375 C2.12556054 20.06278027 2.12556054 20.06278027 0 19 C0 12.73 0 6.46 0 0 Z " fill="#3F1F75" transform="translate(303,217)"/>
<path d="M0 0 C0.99 0.33 1.98 0.66 3 1 C3.02534939 7.62027163 3.04286664 14.24053076 3.05493164 20.86083984 C3.05996123 23.11312325 3.06678566 25.36540339 3.07543945 27.61767578 C3.08756506 30.85450039 3.09324206 34.09128183 3.09765625 37.328125 C3.10281754 38.33554749 3.10797882 39.34296997 3.11329651 40.38092041 C3.11337204 41.32159363 3.11344757 42.26226685 3.11352539 43.23144531 C3.115746 44.05751282 3.11796661 44.88358032 3.12025452 45.73468018 C3.00259676 47.95108294 2.61598788 49.87303693 2 52 C1.34 52 0.68 52 0 52 C0 34.84 0 17.68 0 0 Z " fill="#1E113C" transform="translate(213,41)"/>
<path d="M0 0 C0.66 0 1.32 0 2 0 C1.41289778 5.87102222 -0.29096608 11.49460644 -4.71484375 15.5859375 C-10.83356072 20.06178543 -16.49520732 20.81714075 -24 20 C-27.4375 18.0625 -27.4375 18.0625 -30 16 C-32.22602615 15.23060319 -32.22602615 15.23060319 -34 15 C-34.33 12.36 -34.66 9.72 -35 7 C-34.29875 7.7425 -33.5975 8.485 -32.875 9.25 C-28.15975313 13.76023613 -25.07262164 16.24156352 -18.4375 16.4375 C-14.1505401 16.29188316 -11.46327692 15.68124665 -8 13 C-7.34 13 -6.68 13 -6 13 C-4.53347983 10.11980724 -3.17952126 7.20691485 -1.875 4.25 C-1.34519531 3.05117188 -1.34519531 3.05117188 -0.8046875 1.828125 C-0.53914063 1.22484375 -0.27359375 0.6215625 0 0 Z " fill="#491DA9" transform="translate(282,300)"/>
<path d="M0 0 C21.45 0 42.9 0 65 0 C64.67 0.66 64.34 1.32 64 2 C56.52410154 2.13089491 49.04819504 2.26132032 41.57227802 2.39115143 C38.10067153 2.45145601 34.62906797 2.51192044 31.1574707 2.57275391 C27.16358248 2.6427325 23.16968234 2.71200912 19.17578125 2.78125 C17.93290848 2.80312378 16.69003571 2.82499756 15.40950012 2.84753418 C14.24867416 2.86755493 13.08784821 2.88757568 11.8918457 2.90820312 C10.87258499 2.92596802 9.85332428 2.94373291 8.80317688 2.96203613 C6.20166977 2.99726875 3.60170146 3.00700208 1 3 C0.67 2.01 0.34 1.02 0 0 Z " fill="#BC9BF9" transform="translate(35,120)"/>
<path d="M0 0 C21.45 0 42.9 0 65 0 C64.67 0.66 64.34 1.32 64 2 C53.41375966 4.03129918 41.85422842 3.15284166 31.12280273 3.13037109 C28.04471 3.12496878 24.96676042 3.13036663 21.88867188 3.13671875 C19.91666635 3.13605862 17.94466091 3.1347788 15.97265625 3.1328125 C15.0600856 3.13483673 14.14751495 3.13686096 13.20729065 3.13894653 C8.69031822 3.12236193 4.44533951 2.91966243 0 2 C0 1.34 0 0.68 0 0 Z " fill="#1C1035" transform="translate(35,288)"/>
<path d="M0 0 C1.71132111 0.03014442 1.71132111 0.03014442 3.45721436 0.06089783 C5.29645477 0.10145042 5.29645477 0.10145042 7.17285156 0.14282227 C8.43236633 0.16643326 9.6918811 0.19004425 10.98956299 0.21437073 C14.3301993 0.27795245 17.67067568 0.34616532 21.01116943 0.41662598 C24.42306125 0.48745127 27.8350681 0.55218313 31.24707031 0.61743164 C37.93599259 0.74658376 44.62477061 0.88184319 51.31347656 1.02172852 C50.98347656 1.68172852 50.65347656 2.34172852 50.31347656 3.02172852 C30.51347656 3.02172852 10.71347656 3.02172852 -9.68652344 3.02172852 C-9.68652344 2.36172852 -9.68652344 1.70172852 -9.68652344 1.02172852 C-6.3800126 0.01919124 -3.44593263 -0.0686137 0 0 Z " fill="#180C2E" transform="translate(46.6865234375,115.978271484375)"/>
<path d="M0 0 C1.1745824 2.34916479 1.12910976 3.73684161 1.1328125 6.35546875 C1.13474609 7.27392578 1.13667969 8.19238281 1.13867188 9.13867188 C1.13416016 10.14478516 1.12964844 11.15089844 1.125 12.1875 C1.12306641 13.22583984 1.12113281 14.26417969 1.11914062 15.33398438 C1.04587967 29.2291461 0.51709045 43.11557119 0 57 C-0.66 56.67 -1.32 56.34 -2 56 C-2 37.85 -2 19.7 -2 1 C-1.34 0.67 -0.68 0.34 0 0 Z " fill="#B291E8" transform="translate(26,38)"/>
<path d="M0 0 C0.99261337 0.00222061 1.98522675 0.00444122 3.00791931 0.00672913 C4.12900589 0.00680466 5.25009247 0.00688019 6.40515137 0.00695801 C8.2348069 0.01469994 8.2348069 0.01469994 10.10142517 0.02259827 C11.96377052 0.02472069 11.96377052 0.02472069 13.86373901 0.02688599 C17.16982383 0.03154861 20.47584039 0.04053955 23.78190613 0.05158997 C27.15338042 0.06180625 30.52486175 0.06638407 33.89634705 0.07142639 C40.51550667 0.08248056 47.13463385 0.09923715 53.75376892 0.12025452 C53.75376892 0.45025452 53.75376892 0.78025452 53.75376892 1.12025452 C53.11341202 1.12612076 52.47305511 1.131987 51.81329346 1.13803101 C45.14578174 1.20198645 38.47875172 1.28641211 31.81163025 1.38270569 C29.32373914 1.41595109 26.83577268 1.44398418 24.34776306 1.46669006 C20.77053224 1.50024222 17.19399173 1.55256043 13.61705017 1.60853577 C11.94960503 1.61812065 11.94960503 1.61812065 10.24847412 1.62789917 C9.20777267 1.64769333 8.16707123 1.66748749 7.09483337 1.68788147 C5.72582634 1.70453606 5.72582634 1.70453606 4.3291626 1.7215271 C0.27286168 2.34953143 -2.38339067 4.2574141 -5.24623108 7.12025452 C-6.28554704 11.38144996 -6.27403535 15.44816526 -6.21498108 19.79603577 C-6.26197454 23.29117408 -6.7434188 26.66342013 -7.24623108 30.12025452 C-7.57623108 30.12025452 -7.90623108 30.12025452 -8.24623108 30.12025452 C-8.39176707 26.22481575 -8.48038167 22.33007801 -8.55873108 18.43275452 C-8.60062561 17.32996155 -8.64252014 16.22716858 -8.6856842 15.09095764 C-8.80694873 7.06324573 -8.80694873 7.06324573 -7.14613342 4.27015686 C-5.78919983 2.91322327 -5.78919983 2.91322327 -3.24623108 1.12025452 C-2.24623108 0.12025452 -2.24623108 0.12025452 0 0 Z " fill="#A57FFD" transform="translate(238.24623107910156,30.879745483398438)"/>
<path d="M0 0 C0 0.66 0 1.32 0 2 C-3.40007285 2.75863699 -6.58477244 3.14236023 -10.06567383 3.20532227 C-11.04631302 3.22526749 -12.02695221 3.24521271 -13.03730774 3.26576233 C-14.0833165 3.28247482 -15.12932526 3.29918732 -16.20703125 3.31640625 C-17.82782845 3.3475779 -17.82782845 3.3475779 -19.48136902 3.37937927 C-22.92501611 3.44464036 -26.36873795 3.50365075 -29.8125 3.5625 C-32.15039828 3.60570751 -34.48828907 3.64932251 -36.82617188 3.69335938 C-42.55070278 3.80029772 -48.27530765 3.90210727 -54 4 C-54.33 3.01 -54.66 2.02 -55 1 C-47.48861175 0.85732136 -39.97721801 0.71493462 -32.46582031 0.57275391 C-29.90885288 0.5243191 -27.35188673 0.47581669 -24.79492188 0.42724609 C-21.1263054 0.35757082 -17.45768445 0.2881362 -13.7890625 0.21875 C-12.64007477 0.19687622 -11.49108704 0.17500244 -10.30728149 0.15246582 C-8.71585831 0.12243469 -8.71585831 0.12243469 -7.09228516 0.09179688 C-6.15518707 0.07403198 -5.21808899 0.05626709 -4.25259399 0.03796387 C-2.83520746 0.01407609 -1.41758782 0 0 0 Z " fill="#1D103C" transform="translate(295,103)"/>
<path d="M0 0 C0.33 0 0.66 0 1 0 C1.33 6.27 1.66 12.54 2 19 C2.33 19 2.66 19 3 19 C2.67 30.88 2.34 42.76 2 55 C1.34 54.67 0.68 54.34 0 54 C0 36.18 0 18.36 0 0 Z " fill="#825FE5" transform="translate(229,40)"/>
<path d="M0 0 C0.99 0.66 1.98 1.32 3 2 C2.04882866 3.1725131 1.08882991 4.33787015 0.125 5.5 C-0.67550781 6.47453125 -0.67550781 6.47453125 -1.4921875 7.46875 C-1.98976563 7.9740625 -2.48734375 8.479375 -3 9 C-3.66 9 -4.32 9 -5 9 C-5.28875 9.969375 -5.5775 10.93875 -5.875 11.9375 C-7 15 -7 15 -9 16 C-9.33 15.34 -9.66 14.68 -10 14 C-10.68707031 14.144375 -11.37414062 14.28875 -12.08203125 14.4375 C-12.98308594 14.623125 -13.88414062 14.80875 -14.8125 15 C-15.70582031 15.185625 -16.59914063 15.37125 -17.51953125 15.5625 C-20 16 -20 16 -23 16 C-23.33 15.34 -23.66 14.68 -24 14 C-22.83082031 13.61328125 -21.66164063 13.2265625 -20.45703125 12.828125 C-18.90867155 12.3026211 -17.36050449 11.77654936 -15.8125 11.25 C-15.04357422 10.99734375 -14.27464844 10.7446875 -13.48242188 10.484375 C-8.19570728 8.66919402 -3.62974594 6.79385018 -0.6875 1.75 C-0.460625 1.1725 -0.23375 0.595 0 0 Z " fill="#461C9B" transform="translate(327,262)"/>
<path d="M0 0 C0.66 0 1.32 0 2 0 C2 19.8 2 39.6 2 60 C1.34 60 0.68 60 0 60 C-0.73080266 58.02253397 -1.39421747 56.01927511 -2 54 C-1.67 53.34 -1.34 52.68 -1 52 C-0.91477304 50.37096232 -0.8928368 48.73841561 -0.90234375 47.10717773 C-0.90564697 46.08949814 -0.9089502 45.07181854 -0.91235352 44.02330017 C-0.92065186 42.92119705 -0.9289502 41.81909393 -0.9375 40.68359375 C-0.94128662 39.55679703 -0.94507324 38.43000031 -0.94897461 37.26905823 C-0.96122815 33.65850074 -0.97986297 30.04802163 -1 26.4375 C-1.02646086 21.68620018 -1.04651945 16.93493905 -1.0625 12.18359375 C-1.07079834 11.0794664 -1.07909668 9.97533905 -1.08764648 8.8377533 C-1.09094971 7.82322586 -1.09425293 6.80869843 -1.09765625 5.76342773 C-1.10551147 4.41679298 -1.10551147 4.41679298 -1.11352539 3.04295349 C-1 1 -1 1 0 0 Z " fill="#241246" transform="translate(228,37)"/>
<path d="M0 0 C-1 3 -1 3 -4 4.875 C-7.10751626 6.62633633 -7.10751626 6.62633633 -7.66772461 9.0690918 C-8.11948592 13.05395182 -8.23544242 17.01180931 -8.31640625 21.01953125 C-8.33718735 21.87810226 -8.35796844 22.73667328 -8.37937927 23.6212616 C-8.44452523 26.35159654 -8.50359654 29.08202395 -8.5625 31.8125 C-8.6057185 33.66862918 -8.64933384 35.52474916 -8.69335938 37.38085938 C-8.80017061 41.92047925 -8.90153565 46.46019172 -9 51 C-9.33 51 -9.66 51 -10 51 C-10.07424697 44.96771935 -10.1286483 38.93570568 -10.16479492 32.90307617 C-10.17986622 30.85159674 -10.20032682 28.80014944 -10.22631836 26.7487793 C-10.26277424 23.79728252 -10.27974306 20.84621237 -10.29296875 17.89453125 C-10.30845261 16.97976517 -10.32393646 16.06499908 -10.33988953 15.12251282 C-10.34117441 10.24302786 -10.18773957 6.95791217 -7 3 C-4.3710719 0.61753391 -3.61165822 0 0 0 Z " fill="#A070F2" transform="translate(136,120)"/>
<path d="M0 0 C0 0.66 0 1.32 0 2 C-0.96164063 2.60199219 -1.92328125 3.20398438 -2.9140625 3.82421875 C-5.28211316 5.71963378 -5.9408604 6.76187638 -6.68261719 9.74853516 C-7.03943962 13.10767588 -7.24263194 16.43711444 -7.375 19.8125 C-7.44332031 20.98232422 -7.51164062 22.15214844 -7.58203125 23.35742188 C-7.74662988 26.23789786 -7.88500518 29.11718791 -8 32 C-8.33 32 -8.66 32 -9 32 C-9.14536813 27.60451509 -9.23409948 23.20964913 -9.3125 18.8125 C-9.35439453 17.56662109 -9.39628906 16.32074219 -9.43945312 15.03710938 C-9.57764287 4.72815446 -9.57764287 4.72815446 -6.73046875 1.63671875 C-4 0 -4 0 0 0 Z " fill="#B690FA" transform="translate(34,121)"/>
<path d="M0 0 C0.33 0 0.66 0 1 0 C1.01981934 1.31605225 1.03963867 2.63210449 1.06005859 3.98803711 C1.13652535 8.90277205 1.22517759 13.81722668 1.31738281 18.73168945 C1.35550365 20.85272662 1.39038501 22.97382473 1.421875 25.0949707 C1.46789444 28.15598223 1.525826 31.21658034 1.5859375 34.27734375 C1.59748871 35.21521225 1.60903992 36.15308075 1.62094116 37.11936951 C1.75089993 43.00752921 2.54735894 48.28882698 4 54 C3.01 53.67 2.02 53.34 1 53 C0.01533747 50.04601242 -0.12127836 48.14750978 -0.11352539 45.06958008 C-0.11344986 44.06876907 -0.11337433 43.06795807 -0.11329651 42.03681946 C-0.10813522 40.95861435 -0.10297394 39.88040924 -0.09765625 38.76953125 C-0.0962413 37.66397385 -0.09482635 36.55841644 -0.09336853 35.4193573 C-0.08776514 31.88371083 -0.07521204 28.34812738 -0.0625 24.8125 C-0.05748544 22.41731862 -0.05292246 20.02213625 -0.04882812 17.62695312 C-0.03779461 11.75128053 -0.02105316 5.87564477 0 0 Z " fill="#6949C9" transform="translate(24,228)"/>
<path d="M0 0 C1.66619446 0.0396713 3.33391013 0.04384447 5 0 C4.67 0.66 4.34 1.32 4 2 C-6.23 2 -16.46 2 -27 2 C-27.33 1.34 -27.66 0.68 -28 0 C-3.67643611 -1.83821805 -3.67643611 -1.83821805 0 0 Z " fill="#190D2C" transform="translate(94,28)"/>
<path d="M0 0 C1.32 0.33 2.64 0.66 4 1 C3.67 1.66 3.34 2.32 3 3 C3.41345847 5.57327298 3.88612155 8.08162024 4.4375 10.625 C4.58509766 11.33140625 4.73269531 12.0378125 4.88476562 12.765625 C5.25049493 14.51168749 5.62447121 16.25601884 6 18 C5.34 18 4.68 18 4 18 C4 17.34 4 16.68 4 16 C3.01 15.67 2.02 15.34 1 15 C-0.44207941 12.11584117 -0.09394887 9.58278472 -0.0625 6.375 C-0.05347656 5.18648437 -0.04445313 3.99796875 -0.03515625 2.7734375 C-0.02355469 1.85820312 -0.01195312 0.94296875 0 0 Z " fill="#350C81" transform="translate(303,217)"/>
<path d="M0 0 C0.33 0 0.66 0 1 0 C1 9.9 1 19.8 1 30 C-2.63 29.67 -6.26 29.34 -10 29 C-10 28.67 -10 28.34 -10 28 C-6.535 27.505 -6.535 27.505 -3 27 C-2.814375 25.3603125 -2.814375 25.3603125 -2.625 23.6875 C-2 20 -2 20 0 17 C-0.66 17 -1.32 17 -2 17 C-2 16.34 -2 15.68 -2 15 C-1.34 15 -0.68 15 0 15 C0 10.05 0 5.1 0 0 Z " fill="#F0F1F0" transform="translate(786,219)"/>
<path d="M0 0 C0.33 0 0.66 0 1 0 C1 4.62 1 9.24 1 14 C0.67 14 0.34 14 0 14 C-0.33 11.36 -0.66 8.72 -1 6 C-1.42410156 6.49371094 -1.84820313 6.98742187 -2.28515625 7.49609375 C-7.67219638 13.38039912 -7.67219638 13.38039912 -11.9375 13.9375 C-12.948125 13.958125 -13.95875 13.97875 -15 14 C-14.34 13.484375 -13.68 12.96875 -13 12.4375 C-10.57444092 10.46673325 -8.18197288 8.47464244 -5.8125 6.4375 C-4.80123047 5.56931641 -4.80123047 5.56931641 -3.76953125 4.68359375 C-1.79044936 2.92449646 -1.79044936 2.92449646 0 0 Z " fill="#2C2C2D" transform="translate(907,235)"/>
<path d="M0 0 C0.66 0 1.32 0 2 0 C0.72065513 3.94464667 -0.39796513 5.89931939 -4 8 C-6.93261719 8.34057617 -6.93261719 8.34057617 -10.296875 8.29296875 C-11.50214844 8.28330078 -12.70742187 8.27363281 -13.94921875 8.26367188 C-15.20347656 8.23853516 -16.45773438 8.21339844 -17.75 8.1875 C-19.01972656 8.17396484 -20.28945312 8.16042969 -21.59765625 8.14648438 C-24.73219844 8.1111324 -27.86588545 8.06178248 -31 8 C-31 7.67 -31 7.34 -31 7 C-30.26885986 6.99589111 -29.53771973 6.99178223 -28.78442383 6.98754883 C-25.45963693 6.95457791 -22.13667384 6.88392853 -18.8125 6.8125 C-17.66201172 6.80669922 -16.51152344 6.80089844 -15.32617188 6.79492188 C-8.43441086 6.86243849 -8.43441086 6.86243849 -2.76171875 3.51171875 C-2.18035156 2.68285156 -1.59898437 1.85398437 -1 1 C-0.67 0.67 -0.34 0.34 0 0 Z " fill="#9A6EFE" transform="translate(210,95)"/>
<path d="M0 0 C-0.55153215 3.73724772 -1.96149761 5.2235991 -4.8125 7.625 C-5.49957031 8.21539062 -6.18664062 8.80578125 -6.89453125 9.4140625 C-8.86605423 10.89910579 -10.75823992 11.98239206 -13 13 C-10.80926278 8.07084126 -6.00087211 0 0 0 Z " fill="#E9E8E9" transform="translate(392,92)"/>
<path d="M0 0 C0.66 0 1.32 0 2 0 C3.03004293 2.78858 4.04930997 5.58030288 5.0625 8.375 C5.35705078 9.1690625 5.65160156 9.963125 5.95507812 10.78125 C6.22900391 11.54179687 6.50292969 12.30234375 6.78515625 13.0859375 C7.17006226 14.1385376 7.17006226 14.1385376 7.56274414 15.21240234 C8 17 8 17 7 19 C2.65757571 14.65757571 2.2555331 10.86448454 2 5 C1.34 5 0.68 5 0 5 C0 3.35 0 1.7 0 0 Z " fill="#6129DA" transform="translate(241,289)"/>
<path d="M0 0 C2 1.375 2 1.375 4 3 C4 3.66 4 4.32 4 5 C6.97 5.99 9.94 6.98 13 8 C13 8.99 13 9.98 13 11 C11.58208592 10.54554036 10.16571954 10.08625056 8.75 9.625 C7.96109375 9.36976563 7.1721875 9.11453125 6.359375 8.8515625 C4.13372042 8.04826333 2.09068328 7.10288338 0 6 C0 4.02 0 2.04 0 0 Z " fill="#431F8A" transform="translate(303,230)"/>
<path d="M0 0 C0.99 0.66 1.98 1.32 3 2 C2.04882866 3.1725131 1.08882991 4.33787015 0.125 5.5 C-0.67550781 6.47453125 -0.67550781 6.47453125 -1.4921875 7.46875 C-2.23855469 8.22671875 -2.23855469 8.22671875 -3 9 C-3.66 9 -4.32 9 -5 9 C-5.433125 10.4540625 -5.433125 10.4540625 -5.875 11.9375 C-7 15 -7 15 -9 16 C-8.34 14.35 -7.68 12.7 -7 11 C-7.66 10.67 -8.32 10.34 -9 10 C-8.51789063 9.61328125 -8.03578125 9.2265625 -7.5390625 8.828125 C-6.90742188 8.30734375 -6.27578125 7.7865625 -5.625 7.25 C-4.68527344 6.48429687 -4.68527344 6.48429687 -3.7265625 5.703125 C-1.91687682 3.91800519 -0.99882545 2.32050356 0 0 Z " fill="#331866" transform="translate(327,262)"/>
<path d="M0 0 C0.99 0.33 1.98 0.66 3 1 C2.36578125 1.66386719 1.7315625 2.32773438 1.078125 3.01171875 C-1.38877821 6.55905138 -1.86526659 9.62451654 -2.25 13.8125 C-2.32734375 14.50537109 -2.4046875 15.19824219 -2.484375 15.91210938 C-2.67133957 17.60647581 -2.83777927 19.3030858 -3 21 C-3.33 21 -3.66 21 -4 21 C-4.10812003 18.24894578 -4.18734945 15.50214913 -4.25 12.75 C-4.28351562 11.97269531 -4.31703125 11.19539062 -4.3515625 10.39453125 C-4.45112665 4.57002825 -4.45112665 4.57002825 -1.984375 1.453125 C-1.00210937 0.73382813 -1.00210937 0.73382813 0 0 Z " fill="#9570F3" transform="translate(29,222)"/>
<path d="M0 0 C0.33 0 0.66 0 1 0 C1 5.28 1 10.56 1 16 C-4.94 15.67 -10.88 15.34 -17 15 C-17 14.67 -17 14.34 -17 14 C-12.71 14 -8.42 14 -4 14 C-3.67 13.34 -3.34 12.68 -3 12 C-2.34 12.33 -1.68 12.66 -1 13 C-0.67 8.71 -0.34 4.42 0 0 Z " fill="#A9A9A9" transform="translate(828,144)"/>
<path d="M0 0 C0.85078125 0.43505859 0.85078125 0.43505859 1.71875 0.87890625 C3.9524254 1.97662002 6.21093532 2.96151181 8.5 3.9375 C11.65367226 5.32470015 14.37794815 6.71995492 17 9 C15.421875 9.73828125 15.421875 9.73828125 13 10 C10.58844738 8.82043622 8.48372876 7.63819637 6.25 6.1875 C5.64800781 5.81818359 5.04601562 5.44886719 4.42578125 5.06835938 C2.90797934 4.10983822 1.44806594 3.06093849 0 2 C0 1.34 0 0.68 0 0 Z " fill="#1B1B1C" transform="translate(389,212)"/>
<path d="M0 0 C-1 3 -1 3 -3.9375 4.625 C-7.76223282 7.59111933 -8.01550591 9.56483986 -8.7734375 14.171875 C-8.84820312 14.77515625 -8.92296875 15.3784375 -9 16 C-9.33 16 -9.66 16 -10 16 C-10.44223108 7.30278884 -10.44223108 7.30278884 -7 3 C-4.3710719 0.61753391 -3.61165822 0 0 0 Z " fill="#AC7EE7" transform="translate(136,120)"/>
<path d="M0 0 C2.35983991 2.35983991 2.9573498 4.24023936 4.0625 7.375 C4.40410156 8.33148438 4.74570312 9.28796875 5.09765625 10.2734375 C5.83708645 12.5077331 6.47323125 14.70828442 7 17 C4 16 4 16 2.3125 12.75 C1.16055679 9.45873369 0.68974652 7.4127883 1 4 C0.34 3.67 -0.32 3.34 -1 3 C-0.67 2.01 -0.34 1.02 0 0 Z " fill="#343435" transform="translate(635,208)"/>
<path d="M0 0 C0.66 0 1.32 0 2 0 C1.67 8.25 1.34 16.5 1 25 C0.67 25 0.34 25 0 25 C-0.19585353 21.02119772 -0.3802867 17.04194844 -0.5625 13.0625 C-0.61857422 11.92619141 -0.67464844 10.78988281 -0.73242188 9.61914062 C-0.78076172 8.53955078 -0.82910156 7.45996094 -0.87890625 6.34765625 C-0.9260376 5.34742432 -0.97316895 4.34719238 -1.02172852 3.31665039 C-1 1 -1 1 0 0 Z " fill="#2B1A48" transform="translate(228,37)"/>
<path d="M0 0 C4.62 0.66 9.24 1.32 14 2 C14 2.66 14 3.32 14 4 C4.41885965 4.56359649 4.41885965 4.56359649 0 1 C0 0.67 0 0.34 0 0 Z " fill="#380B93" transform="translate(253,316)"/>
<path d="M0 0 C-2 2 -2 2 -3.97119141 2.13525391 C-4.75671387 2.08288574 -5.54223633 2.03051758 -6.3515625 1.9765625 C-7.20234375 1.925 -8.053125 1.8734375 -8.9296875 1.8203125 C-9.81914063 1.75585938 -10.70859375 1.69140625 -11.625 1.625 C-12.97078125 1.53992188 -12.97078125 1.53992188 -14.34375 1.453125 C-16.56328624 1.31145247 -18.78172402 1.1600296 -21 1 C-21 0.67 -21 0.34 -21 0 C-18.62543835 -0.1963696 -16.25079981 -0.38231294 -13.875 -0.5625 C-13.20984375 -0.61857422 -12.5446875 -0.67464844 -11.859375 -0.73242188 C-7.7271959 -1.03625857 -4.05304259 -0.85227531 0 0 Z " fill="#515152" transform="translate(901,133)"/>
<path d="M0 0 C0 0.66 0 1.32 0 2 C-1.4609375 3.2890625 -1.4609375 3.2890625 -3.375 4.625 C-4.00148438 5.07101563 -4.62796875 5.51703125 -5.2734375 5.9765625 C-7 7 -7 7 -9 7 C-6.79922603 2.09058114 -5.62803596 0 0 0 Z " fill="#B28EEA" transform="translate(34,121)"/>
<path d="M0 0 C-2.39509338 2.89932357 -4.31245243 3.50168276 -8 4 C-8 3.34 -8 2.68 -8 2 C-10.31 2 -12.62 2 -15 2 C-15 1.67 -15 1.34 -15 1 C-9.9752761 0.37470103 -5.07471573 -0.13012092 0 0 Z " fill="#471D96" transform="translate(275,316)"/>
<path d="M0 0 C0.66 0.33 1.32 0.66 2 1 C1.21625 1.9075 0.4325 2.815 -0.375 3.75 C-2.30052496 6.05190236 -3.82205741 8.21577207 -5 11 C-5.8125 8.8125 -5.8125 8.8125 -6 6 C-3.625 3.25 -3.625 3.25 -1 1 C-0.67 0.67 -0.34 0.34 0 0 Z " fill="#A079E8" transform="translate(236,31)"/>
<path d="M0 0 C-1.65 0.66 -3.3 1.32 -5 2 C-5 2.66 -5 3.32 -5 4 C-6.65 4.66 -8.3 5.32 -10 6 C-9.8125 3.625 -9.8125 3.625 -9 1 C-5.71803757 -0.95143712 -3.5838203 -1.32734085 0 0 Z " fill="#612FCA" transform="translate(309,275)"/>
<path d="M0 0 C0.79921875 0.19464844 1.5984375 0.38929687 2.421875 0.58984375 C3.32679687 0.82380859 3.32679687 0.82380859 4.25 1.0625 C4.25 1.3925 4.25 1.7225 4.25 2.0625 C-0.04 2.0625 -4.33 2.0625 -8.75 2.0625 C-8.75 1.4025 -8.75 0.7425 -8.75 0.0625 C-5.47814447 -1.01060858 -3.32052408 -0.83013102 0 0 Z " fill="#1C0F35" transform="translate(45.75,116.9375)"/>
<path d="M0 0 C4.71354196 1.57118065 7.29212409 4.93818614 10 9 C5.06789169 7.76697292 2.78225429 6.28039122 0 2 C0 1.34 0 0.68 0 0 Z " fill="#7C57D7" transform="translate(25,195)"/>
<path d="M0 0 C0.66 1.32 1.32 2.64 2 4 C-1.625 8.875 -1.625 8.875 -5 10 C-5.33 9.34 -5.66 8.68 -6 8 C-5.195625 7.236875 -4.39125 6.47375 -3.5625 5.6875 C-0.83200976 3.20569102 -0.83200976 3.20569102 0 0 Z " fill="#221148" transform="translate(212,94)"/>
<path d="M0 0 C-1.26117725 3.88862987 -2.45264167 5.89375599 -6 8 C-6.66 8 -7.32 8 -8 8 C-6.48291727 4.46014029 -4.24676932 0 0 0 Z " fill="#845AE3" transform="translate(212,95)"/>
<path d="M0 0 C2.5 1.1875 2.5 1.1875 4.5 3.1875 C4.125 5.3125 4.125 5.3125 3.5 7.1875 C2.736875 6.40375 1.97375 5.62 1.1875 4.8125 C-1.40891805 2.11492283 -1.40891805 2.11492283 -4.5 0.1875 C-2.5 -0.8125 -2.5 -0.8125 0 0 Z " fill="#22163E" transform="translate(207.5,29.8125)"/>
<path d="M0 0 C3 2 3 2 3.51171875 4.1640625 C3.56972656 4.97617188 3.62773437 5.78828125 3.6875 6.625 C3.75324219 7.44226563 3.81898438 8.25953125 3.88671875 9.1015625 C3.92410156 9.72804687 3.96148437 10.35453125 4 11 C1.6870518 8.6870518 1.50419025 7.52095125 0.875 4.375 C0.70742187 3.55773437 0.53984375 2.74046875 0.3671875 1.8984375 C0.24601563 1.27195313 0.12484375 0.64546875 0 0 Z " fill="#5F33FD" transform="translate(222,239)"/>
<path d="M0 0 C2 1.375 2 1.375 4 3 C4 3.66 4 4.32 4 5 C4.66 5.33 5.32 5.66 6 6 C2.25 7.125 2.25 7.125 0 6 C0 4.02 0 2.04 0 0 Z " fill="#4011A1" transform="translate(303,230)"/>
<path d="M0 0 C2.64 0.33 5.28 0.66 8 1 C8 1.99 8 2.98 8 4 C6.68 4 5.36 4 4 4 C4 3.34 4 2.68 4 2 C2.68 2 1.36 2 0 2 C0 1.34 0 0.68 0 0 Z " fill="#242425" transform="translate(437,107)"/>
<path d="M0 0 C-2.22189824 2.22189824 -4.08482708 2.92598892 -7 4 C-7.66 3.01 -8.32 2.02 -9 1 C-3.375 -1.125 -3.375 -1.125 0 0 Z " fill="#3E0AAD" transform="translate(312,275)"/>
<path d="M0 0 C0.33 0 0.66 0 1 0 C1.12375 0.763125 1.2475 1.52625 1.375 2.3125 C1.88102792 5.20267136 1.88102792 5.20267136 4 8 C2.02 8.99 2.02 8.99 0 10 C0 6.7 0 3.4 0 0 Z " fill="#1C1C1E" transform="translate(789,138)"/>
<path d="M0 0 C0.33 0.99 0.66 1.98 1 3 C-0.65 4.32 -2.3 5.64 -4 7 C-4.33 6.01 -4.66 5.02 -5 4 C-3.35 2.68 -1.7 1.36 0 0 Z " fill="#212122" transform="translate(408,111)"/>
<path d="M0 0 C0.66 0 1.32 0 2 0 C1.6875 2.875 1.6875 2.875 1 6 C0.01 6.66 -0.98 7.32 -2 8 C-1.125 2.25 -1.125 2.25 0 0 Z " fill="#440CBD" transform="translate(282,300)"/>
<path d="M0 0 C0.66 0.33 1.32 0.66 2 1 C-0.75 7.875 -0.75 7.875 -3 9 C-2.34 7.35 -1.68 5.7 -1 4 C-1.66 3.67 -2.32 3.34 -3 3 C-2.01 2.01 -1.02 1.02 0 0 Z " fill="#341376" transform="translate(321,269)"/>
<path d="M0 0 C3 2 3 2 3.51171875 3.9453125 C3.67447917 5.96354167 3.83723958 7.98177083 4 10 C0 4 0 4 0 0 Z " fill="#592CFC" transform="translate(230,262)"/>
<path d="M0 0 C1.48117801 0.28127421 2.95993249 0.57533732 4.4375 0.875 C5.67306641 1.11863281 5.67306641 1.11863281 6.93359375 1.3671875 C7.61550781 1.57601562 8.29742187 1.78484375 9 2 C9.33 2.66 9.66 3.32 10 4 C5.78087253 3.5205537 3.20336822 2.83374881 0 0 Z " fill="#693BF7" transform="translate(287,225)"/>
<path d="M0 0 C5.75 0.75 5.75 0.75 8 3 C6.25 3.75 6.25 3.75 4 4 C1.75 2.0625 1.75 2.0625 0 0 Z " fill="#212122" transform="translate(398,218)"/>
<path d="M0 0 C-0.33 0.99 -0.66 1.98 -1 3 C-3.375 3.625 -3.375 3.625 -6 4 C-6.66 3.34 -7.32 2.68 -8 2 C-5.09399739 0.74335022 -3.20395416 0 0 0 Z " fill="#262628" transform="translate(871,157)"/>
<path d="M0 0 C1.75098126 2.62647188 3.38731308 5.28775382 5 8 C4.34 8.66 3.68 9.32 3 10 C2.67 8.68 2.34 7.36 2 6 C1.34 6 0.68 6 0 6 C0 4.02 0 2.04 0 0 Z " fill="#29292B" transform="translate(375,148)"/>
<path d="M0 0 C0 0.33 0 0.66 0 1 C-3.3 1.33 -6.6 1.66 -10 2 C-10.33 1.34 -10.66 0.68 -11 0 C-7.18243176 -1.37432457 -3.92744671 -0.67975039 0 0 Z " fill="#2C2B2C" transform="translate(880,133)"/>
</svg>
